%TF.GenerationSoftware,KiCad,Pcbnew,10.0.4*%
%TF.CreationDate,2026-09-03T19:25:53-04:00*%
%TF.ProjectId,Aqua BMS Monitor(MAIN),41717561-2042-44d5-9320-4d6f6e69746f,rev?*%
%TF.SameCoordinates,Original*%
%TF.FileFunction,Copper,L1,Top*%
%TF.FilePolarity,Positive*%
%FSLAX46Y46*%
G04 Gerber Fmt 4.6, Leading zero omitted, Abs format (unit mm)*
G04 Created by KiCad (PCBNEW 10.0.4) date 2026-09-03 19:25:53*
%MOMM*%
%LPD*%
G01*
G04 APERTURE LIST*
G04 Aperture macros list*
%AMRoundRect*
0 Rectangle with rounded corners*
0 $1 Rounding radius*
0 $2 $3 $4 $5 $6 $7 $8 $9 X,Y pos of 4 corners*
0 Add a 4 corners polygon primitive as box body*
4,1,4,$2,$3,$4,$5,$6,$7,$8,$9,$2,$3,0*
0 Add four circle primitives for the rounded corners*
1,1,$1+$1,$2,$3*
1,1,$1+$1,$4,$5*
1,1,$1+$1,$6,$7*
1,1,$1+$1,$8,$9*
0 Add four rect primitives between the rounded corners*
20,1,$1+$1,$2,$3,$4,$5,0*
20,1,$1+$1,$4,$5,$6,$7,0*
20,1,$1+$1,$6,$7,$8,$9,0*
20,1,$1+$1,$8,$9,$2,$3,0*%
%AMFreePoly0*
4,1,13,3.735221,0.735277,3.749866,0.699922,3.749866,-0.700075,3.735221,-0.735430,3.699866,-0.750075,-3.700120,-0.750075,-3.735475,-0.735430,-3.750120,-0.700075,-3.750120,0.699922,-3.735475,0.735277,-3.700120,0.749922,3.699866,0.749922,3.735221,0.735277,3.735221,0.735277,$1*%
%AMFreePoly1*
4,1,17,-0.265800,1.686313,1.134197,0.366326,1.149874,0.331416,1.149896,0.329946,1.149896,-0.330048,1.135251,-0.365403,1.134197,-0.366427,-0.265800,-1.686439,-0.300101,-1.700060,-0.400075,-1.700060,-0.435430,-1.685415,-0.450075,-1.650060,-0.450075,1.649933,-0.435430,1.685288,-0.400075,1.699933,-0.300101,1.699933,-0.265800,1.686313,-0.265800,1.686313,$1*%
%AMFreePoly2*
4,1,13,3.735221,0.735328,3.749866,0.699973,3.749866,-0.700024,3.735221,-0.735379,3.699866,-0.750024,-3.700120,-0.750024,-3.735475,-0.735379,-3.750120,-0.700024,-3.750120,0.699973,-3.735475,0.735328,-3.700120,0.749973,3.699866,0.749973,3.735221,0.735328,3.735221,0.735328,$1*%
%AMFreePoly3*
4,1,53,-0.729566,1.835301,-0.714921,1.799946,-0.714921,1.379944,-0.584924,1.379944,-0.584924,1.799946,-0.570279,1.835301,-0.534924,1.849946,-0.114935,1.849946,-0.079580,1.835301,-0.064935,1.799946,-0.064935,1.379944,0.065087,1.379944,0.065087,1.799946,0.079732,1.835301,0.115087,1.849946,0.535076,1.849946,0.570431,1.835301,0.585076,1.799946,0.585076,1.379944,0.715073,1.379944,
0.715073,1.799946,0.729718,1.835301,0.765073,1.849946,1.185062,1.849946,1.220417,1.835301,1.235062,1.799946,1.235062,0.334937,1.730070,0.334937,1.765425,0.320292,1.780070,0.284937,1.780070,-0.285039,1.765425,-0.320394,1.730070,-0.335039,1.235062,-0.335039,1.235062,-0.465049,1.220417,-0.500404,1.185062,-0.515049,-1.184910,-0.515049,-1.220265,-0.500404,-1.234910,-0.465049,
-1.234910,-0.335039,-1.750035,-0.335039,-1.785390,-0.320394,-1.800035,-0.285039,-1.800035,0.284937,-1.785390,0.320292,-1.750035,0.334937,-1.234910,0.334937,-1.234910,1.799946,-1.220265,1.835301,-1.184910,1.849946,-0.764921,1.849946,-0.729566,1.835301,-0.729566,1.835301,$1*%
G04 Aperture macros list end*
%TA.AperFunction,SMDPad,CuDef*%
%ADD10RoundRect,0.200000X-0.275000X0.200000X-0.275000X-0.200000X0.275000X-0.200000X0.275000X0.200000X0*%
%TD*%
%TA.AperFunction,SMDPad,CuDef*%
%ADD11O,1.800000X0.280000*%
%TD*%
%TA.AperFunction,SMDPad,CuDef*%
%ADD12O,0.280000X1.800000*%
%TD*%
%TA.AperFunction,SMDPad,CuDef*%
%ADD13C,1.000000*%
%TD*%
%TA.AperFunction,ComponentPad*%
%ADD14R,1.300000X1.300000*%
%TD*%
%TA.AperFunction,ComponentPad*%
%ADD15C,1.300000*%
%TD*%
%TA.AperFunction,SMDPad,CuDef*%
%ADD16C,1.500000*%
%TD*%
%TA.AperFunction,SMDPad,CuDef*%
%ADD17R,1.200000X1.200000*%
%TD*%
%TA.AperFunction,SMDPad,CuDef*%
%ADD18R,1.350000X1.410000*%
%TD*%
%TA.AperFunction,SMDPad,CuDef*%
%ADD19R,0.806000X0.864000*%
%TD*%
%TA.AperFunction,SMDPad,CuDef*%
%ADD20R,0.490000X0.985000*%
%TD*%
%TA.AperFunction,SMDPad,CuDef*%
%ADD21R,0.540000X0.500000*%
%TD*%
%TA.AperFunction,ComponentPad*%
%ADD22C,3.600000*%
%TD*%
%TA.AperFunction,ConnectorPad*%
%ADD23C,6.400000*%
%TD*%
%TA.AperFunction,SMDPad,CuDef*%
%ADD24R,0.500000X0.540000*%
%TD*%
%TA.AperFunction,SMDPad,CuDef*%
%ADD25R,0.540000X0.566000*%
%TD*%
%TA.AperFunction,SMDPad,CuDef*%
%ADD26R,0.566000X0.540000*%
%TD*%
%TA.AperFunction,SMDPad,CuDef*%
%ADD27RoundRect,0.225000X-0.225000X-0.250000X0.225000X-0.250000X0.225000X0.250000X-0.225000X0.250000X0*%
%TD*%
%TA.AperFunction,SMDPad,CuDef*%
%ADD28R,0.800000X0.864000*%
%TD*%
%TA.AperFunction,SMDPad,CuDef*%
%ADD29R,1.377000X1.133000*%
%TD*%
%TA.AperFunction,SMDPad,CuDef*%
%ADD30R,0.864000X0.806000*%
%TD*%
%TA.AperFunction,SMDPad,CuDef*%
%ADD31R,1.283000X2.808000*%
%TD*%
%TA.AperFunction,SMDPad,CuDef*%
%ADD32R,3.456000X1.283000*%
%TD*%
%TA.AperFunction,SMDPad,CuDef*%
%ADD33RoundRect,0.135000X0.185000X-0.135000X0.185000X0.135000X-0.185000X0.135000X-0.185000X-0.135000X0*%
%TD*%
%TA.AperFunction,SMDPad,CuDef*%
%ADD34R,0.985000X0.490000*%
%TD*%
%TA.AperFunction,SMDPad,CuDef*%
%ADD35RoundRect,0.375000X-0.625000X-0.375000X0.625000X-0.375000X0.625000X0.375000X-0.625000X0.375000X0*%
%TD*%
%TA.AperFunction,SMDPad,CuDef*%
%ADD36RoundRect,0.500000X-0.500000X-1.400000X0.500000X-1.400000X0.500000X1.400000X-0.500000X1.400000X0*%
%TD*%
%TA.AperFunction,SMDPad,CuDef*%
%ADD37RoundRect,0.140000X-0.140000X-0.170000X0.140000X-0.170000X0.140000X0.170000X-0.140000X0.170000X0*%
%TD*%
%TA.AperFunction,SMDPad,CuDef*%
%ADD38R,0.900000X0.800000*%
%TD*%
%TA.AperFunction,ComponentPad*%
%ADD39R,3.716000X3.716000*%
%TD*%
%TA.AperFunction,ComponentPad*%
%ADD40C,3.716000*%
%TD*%
%TA.AperFunction,ComponentPad*%
%ADD41O,1.200000X2.400000*%
%TD*%
%TA.AperFunction,SMDPad,CuDef*%
%ADD42FreePoly0,270.000000*%
%TD*%
%TA.AperFunction,SMDPad,CuDef*%
%ADD43FreePoly1,270.000000*%
%TD*%
%TA.AperFunction,SMDPad,CuDef*%
%ADD44FreePoly2,270.000000*%
%TD*%
%TA.AperFunction,SMDPad,CuDef*%
%ADD45RoundRect,0.140000X-0.170000X0.140000X-0.170000X-0.140000X0.170000X-0.140000X0.170000X0.140000X0*%
%TD*%
%TA.AperFunction,SMDPad,CuDef*%
%ADD46R,1.208000X1.701000*%
%TD*%
%TA.AperFunction,ComponentPad*%
%ADD47C,1.270000*%
%TD*%
%TA.AperFunction,SMDPad,CuDef*%
%ADD48RoundRect,0.250000X0.400000X0.450000X-0.400000X0.450000X-0.400000X-0.450000X0.400000X-0.450000X0*%
%TD*%
%TA.AperFunction,SMDPad,CuDef*%
%ADD49R,0.660000X0.420000*%
%TD*%
%TA.AperFunction,SMDPad,CuDef*%
%ADD50FreePoly3,90.000000*%
%TD*%
%TA.AperFunction,SMDPad,CuDef*%
%ADD51FreePoly3,270.000000*%
%TD*%
%TA.AperFunction,ComponentPad*%
%ADD52C,1.508000*%
%TD*%
%TA.AperFunction,SMDPad,CuDef*%
%ADD53R,1.150000X0.950000*%
%TD*%
%TA.AperFunction,SMDPad,CuDef*%
%ADD54R,1.133000X1.377000*%
%TD*%
%TA.AperFunction,SMDPad,CuDef*%
%ADD55RoundRect,0.135000X-0.185000X0.135000X-0.185000X-0.135000X0.185000X-0.135000X0.185000X0.135000X0*%
%TD*%
%TA.AperFunction,ComponentPad*%
%ADD56C,1.050000*%
%TD*%
%TA.AperFunction,SMDPad,CuDef*%
%ADD57R,0.521000X0.250000*%
%TD*%
%TA.AperFunction,SMDPad,CuDef*%
%ADD58R,0.900000X1.600000*%
%TD*%
%TA.AperFunction,SMDPad,CuDef*%
%ADD59R,0.800000X0.900000*%
%TD*%
%TA.AperFunction,SMDPad,CuDef*%
%ADD60RoundRect,0.200000X0.275000X-0.200000X0.275000X0.200000X-0.275000X0.200000X-0.275000X-0.200000X0*%
%TD*%
%TA.AperFunction,SMDPad,CuDef*%
%ADD61R,1.500000X1.500000*%
%TD*%
%TA.AperFunction,SMDPad,CuDef*%
%ADD62R,1.701000X1.208000*%
%TD*%
%TA.AperFunction,SMDPad,CuDef*%
%ADD63RoundRect,0.225000X0.250000X-0.225000X0.250000X0.225000X-0.250000X0.225000X-0.250000X-0.225000X0*%
%TD*%
%TA.AperFunction,SMDPad,CuDef*%
%ADD64R,1.160000X0.600000*%
%TD*%
%TA.AperFunction,SMDPad,CuDef*%
%ADD65R,1.160000X0.300000*%
%TD*%
%TA.AperFunction,ComponentPad*%
%ADD66O,2.000000X0.900000*%
%TD*%
%TA.AperFunction,ComponentPad*%
%ADD67O,1.700000X0.900000*%
%TD*%
%TA.AperFunction,SMDPad,CuDef*%
%ADD68RoundRect,0.225000X0.225000X0.250000X-0.225000X0.250000X-0.225000X-0.250000X0.225000X-0.250000X0*%
%TD*%
%TA.AperFunction,SMDPad,CuDef*%
%ADD69RoundRect,0.225000X-0.250000X0.225000X-0.250000X-0.225000X0.250000X-0.225000X0.250000X0.225000X0*%
%TD*%
%TA.AperFunction,SMDPad,CuDef*%
%ADD70R,2.500000X7.000000*%
%TD*%
%TA.AperFunction,SMDPad,CuDef*%
%ADD71R,1.000000X1.250000*%
%TD*%
%TA.AperFunction,SMDPad,CuDef*%
%ADD72R,0.850000X0.350000*%
%TD*%
%TA.AperFunction,SMDPad,CuDef*%
%ADD73R,1.150000X1.400000*%
%TD*%
%TA.AperFunction,ComponentPad*%
%ADD74R,1.800000X1.800000*%
%TD*%
%TA.AperFunction,ComponentPad*%
%ADD75C,1.800000*%
%TD*%
%TA.AperFunction,SMDPad,CuDef*%
%ADD76R,0.600000X1.070000*%
%TD*%
%TA.AperFunction,SMDPad,CuDef*%
%ADD77RoundRect,0.250000X-0.450000X0.400000X-0.450000X-0.400000X0.450000X-0.400000X0.450000X0.400000X0*%
%TD*%
%TA.AperFunction,SMDPad,CuDef*%
%ADD78R,0.350000X0.850000*%
%TD*%
%TA.AperFunction,SMDPad,CuDef*%
%ADD79R,0.950000X1.150000*%
%TD*%
%TA.AperFunction,SMDPad,CuDef*%
%ADD80RoundRect,0.140000X0.170000X-0.140000X0.170000X0.140000X-0.170000X0.140000X-0.170000X-0.140000X0*%
%TD*%
%TA.AperFunction,ComponentPad*%
%ADD81C,1.524000*%
%TD*%
%TA.AperFunction,SMDPad,CuDef*%
%ADD82RoundRect,0.075000X-0.700000X-0.075000X0.700000X-0.075000X0.700000X0.075000X-0.700000X0.075000X0*%
%TD*%
%TA.AperFunction,SMDPad,CuDef*%
%ADD83RoundRect,0.075000X-0.075000X-0.700000X0.075000X-0.700000X0.075000X0.700000X-0.075000X0.700000X0*%
%TD*%
%TA.AperFunction,SMDPad,CuDef*%
%ADD84R,1.250000X1.000000*%
%TD*%
%TA.AperFunction,SMDPad,CuDef*%
%ADD85R,0.420000X0.660000*%
%TD*%
%TA.AperFunction,SMDPad,CuDef*%
%ADD86FreePoly3,180.000000*%
%TD*%
%TA.AperFunction,ComponentPad*%
%ADD87O,2.400000X1.200000*%
%TD*%
%TA.AperFunction,SMDPad,CuDef*%
%ADD88RoundRect,0.200000X-0.200000X-0.275000X0.200000X-0.275000X0.200000X0.275000X-0.200000X0.275000X0*%
%TD*%
%TA.AperFunction,SMDPad,CuDef*%
%ADD89RoundRect,0.140000X0.140000X0.170000X-0.140000X0.170000X-0.140000X-0.170000X0.140000X-0.170000X0*%
%TD*%
%TA.AperFunction,SMDPad,CuDef*%
%ADD90RoundRect,0.135000X0.135000X0.185000X-0.135000X0.185000X-0.135000X-0.185000X0.135000X-0.185000X0*%
%TD*%
%TA.AperFunction,SMDPad,CuDef*%
%ADD91RoundRect,0.062500X0.350000X0.062500X-0.350000X0.062500X-0.350000X-0.062500X0.350000X-0.062500X0*%
%TD*%
%TA.AperFunction,HeatsinkPad*%
%ADD92R,1.650000X1.350000*%
%TD*%
%TA.AperFunction,SMDPad,CuDef*%
%ADD93RoundRect,0.200000X0.200000X0.275000X-0.200000X0.275000X-0.200000X-0.275000X0.200000X-0.275000X0*%
%TD*%
%TA.AperFunction,SMDPad,CuDef*%
%ADD94R,1.635000X2.700000*%
%TD*%
%TA.AperFunction,SMDPad,CuDef*%
%ADD95R,2.808000X1.283000*%
%TD*%
%TA.AperFunction,SMDPad,CuDef*%
%ADD96R,1.050000X2.000000*%
%TD*%
%TA.AperFunction,SMDPad,CuDef*%
%ADD97R,3.170000X1.020000*%
%TD*%
%TA.AperFunction,SMDPad,CuDef*%
%ADD98R,0.532000X1.037000*%
%TD*%
%TA.AperFunction,ViaPad*%
%ADD99C,0.600000*%
%TD*%
%TA.AperFunction,Conductor*%
%ADD100C,0.254000*%
%TD*%
%TA.AperFunction,Conductor*%
%ADD101C,0.300000*%
%TD*%
%TA.AperFunction,Conductor*%
%ADD102C,0.200000*%
%TD*%
%TA.AperFunction,Conductor*%
%ADD103C,0.500000*%
%TD*%
%TA.AperFunction,Conductor*%
%ADD104C,0.317500*%
%TD*%
%TA.AperFunction,Conductor*%
%ADD105C,1.270000*%
%TD*%
%TA.AperFunction,Conductor*%
%ADD106C,0.381000*%
%TD*%
%TA.AperFunction,Conductor*%
%ADD107C,0.508000*%
%TD*%
%TA.AperFunction,Conductor*%
%ADD108C,0.203200*%
%TD*%
%TA.AperFunction,Conductor*%
%ADD109C,2.540000*%
%TD*%
G04 APERTURE END LIST*
D10*
%TO.P,RR2,1*%
%TO.N,BAT-*%
X132500000Y-115400000D03*
%TO.P,RR2,2*%
%TO.N,BREG*%
X132500000Y-117050000D03*
%TD*%
D11*
%TO.P,U1,1,VC15_1*%
%TO.N,Cell3+{slash}4-*%
X124600000Y-120050000D03*
%TO.P,U1,2,VC14_2*%
X124600000Y-120550000D03*
%TO.P,U1,3,VC13_3*%
X124600000Y-121050000D03*
%TO.P,U1,4,VC12_4*%
X124600000Y-121550000D03*
%TO.P,U1,5,VC11_5*%
X124600000Y-122050000D03*
%TO.P,U1,6,VC10_6*%
X124600000Y-122550000D03*
%TO.P,U1,7,VC9_7*%
X124600000Y-123050000D03*
%TO.P,U1,8,VC8_8*%
X124600000Y-123550000D03*
%TO.P,U1,9,VC7_9*%
X124600000Y-124050000D03*
%TO.P,U1,10,VC6_10*%
X124600000Y-124550000D03*
%TO.P,U1,11,VC5_11*%
X124600000Y-125050000D03*
%TO.P,U1,12,VC4_12*%
X124600000Y-125550000D03*
D12*
%TO.P,U1,13,VC3_13*%
X126050000Y-127000000D03*
%TO.P,U1,14,VC2_14*%
%TO.N,Cell2+{slash}3-*%
X126550000Y-127000000D03*
%TO.P,U1,15,VC1_15*%
%TO.N,Cell1+{slash}2-*%
X127050000Y-127000000D03*
%TO.P,U1,16,VC0_16*%
%TO.N,Cell1-*%
X127550000Y-127000000D03*
%TO.P,U1,17,VSS_17*%
%TO.N,BAT-*%
X128050000Y-127000000D03*
%TO.P,U1,18,SRP_18*%
%TO.N,SRN*%
X128550000Y-127000000D03*
%TO.P,U1,19,NC_19*%
%TO.N,unconnected-(U1-NC-Pad19)*%
X129050000Y-127000000D03*
%TO.P,U1,20,SRN_20*%
%TO.N,SRP*%
X129550000Y-127000000D03*
%TO.P,U1,21,TS1_21*%
%TO.N,TS1*%
X130050000Y-127000000D03*
%TO.P,U1,22,TS2_22*%
%TO.N,TS2*%
X130550000Y-127000000D03*
%TO.P,U1,23,TS3_23*%
%TO.N,TS3*%
X131050000Y-127000000D03*
%TO.P,U1,24,REG18_24*%
%TO.N,Net-(U1-REG18)*%
X131550000Y-127000000D03*
D11*
%TO.P,U1,25,ALERT_25*%
%TO.N,ALERT*%
X133000000Y-125550000D03*
%TO.P,U1,26,SCL_26*%
%TO.N,SCL*%
X133000000Y-125050000D03*
%TO.P,U1,27,SDA_27*%
%TO.N,SDA*%
X133000000Y-124550000D03*
%TO.P,U1,28,HDQ_28*%
%TO.N,HDQ*%
X133000000Y-124050000D03*
%TO.P,U1,29,CFETOFF_29*%
%TO.N,CFETOFF*%
X133000000Y-123550000D03*
%TO.P,U1,30,DFETOFF_30*%
%TO.N,DFETOFF*%
X133000000Y-123050000D03*
%TO.P,U1,31,DCHG_31*%
%TO.N,DCHG*%
X133000000Y-122550000D03*
%TO.P,U1,32,DDSG_32*%
%TO.N,DDSG*%
X133000000Y-122050000D03*
%TO.P,U1,33,RST_SHUT_33*%
%TO.N,RST_SHUT*%
X133000000Y-121550000D03*
%TO.P,U1,34,REG2_34*%
%TO.N,REG2*%
X133000000Y-121050000D03*
%TO.P,U1,35,REG1_35*%
%TO.N,REG1*%
X133000000Y-120550000D03*
%TO.P,U1,36,REGIN_36*%
%TO.N,REGIN*%
X133000000Y-120050000D03*
D12*
%TO.P,U1,37,BREG_37*%
%TO.N,BREG*%
X131550000Y-118600000D03*
%TO.P,U1,38,FUSE_38*%
%TO.N,Net-(U1-FUSE)*%
X131050000Y-118600000D03*
%TO.P,U1,39,PDSG_39*%
%TO.N,PDSG*%
X130550000Y-118600000D03*
%TO.P,U1,40,PCHG_40*%
%TO.N,PCHG*%
X130050000Y-118600000D03*
%TO.P,U1,41,LD_41*%
%TO.N,LD*%
X129550000Y-118600000D03*
%TO.P,U1,42,PACK_42*%
%TO.N,PACK*%
X129050000Y-118600000D03*
%TO.P,U1,43,DSG_43*%
%TO.N,DSG*%
X128550000Y-118600000D03*
%TO.P,U1,44,NC_44*%
%TO.N,unconnected-(U1-NC-Pad44)*%
X128050000Y-118600000D03*
%TO.P,U1,45,CHG_45*%
%TO.N,CHG*%
X127550000Y-118600000D03*
%TO.P,U1,46,CP1_46*%
%TO.N,CP1*%
X127050000Y-118600000D03*
%TO.P,U1,47,BAT_47*%
%TO.N,BAT*%
X126550000Y-118600000D03*
%TO.P,U1,48,VC16_48*%
%TO.N,Cell4+*%
X126050000Y-118600000D03*
%TD*%
D13*
%TO.P,TP55,1,1_1*%
%TO.N,DSG*%
X145500000Y-116950000D03*
%TD*%
D14*
%TO.P,S1,1,NC_1_1*%
%TO.N,MCUCFETOFF*%
X153582500Y-149895342D03*
D15*
%TO.P,S1,2,NO_1_2*%
%TO.N,VDD*%
X156082500Y-149895342D03*
%TO.P,S1,3,COM_1_3*%
%TO.N,CFETOFF*%
X158582500Y-149895342D03*
%TO.P,S1,4,NC_2_4*%
%TO.N,MCUDFETOFF*%
X158582500Y-143895342D03*
%TO.P,S1,5,NO_2_5*%
%TO.N,VDD*%
X156082500Y-143895342D03*
%TO.P,S1,6,COM_2_6*%
%TO.N,DFETOFF*%
X153582500Y-143895342D03*
%TD*%
D16*
%TO.P,TP9,1,1_1*%
%TO.N,PWR+*%
X121500000Y-78050000D03*
%TD*%
%TO.P,TP23,1,1_1*%
%TO.N,USART1_RX*%
X194736389Y-134826579D03*
%TD*%
%TO.P,TP67,1,1_1*%
%TO.N,CFETOFF*%
X162700000Y-149850000D03*
%TD*%
D17*
%TO.P,D15,1,K_1*%
%TO.N,Net-(D15-K)*%
X160760000Y-112550000D03*
%TO.P,D15,2,A_2*%
%TO.N,BAT-*%
X157500000Y-112550000D03*
%TD*%
D18*
%TO.P,BC1,1*%
%TO.N,BAT*%
X123300000Y-109150000D03*
%TO.P,BC1,2*%
%TO.N,BAT-*%
X123300000Y-107150000D03*
%TD*%
D19*
%TO.P,DR3,1*%
%TO.N,DSG*%
X148400000Y-116950000D03*
%TO.P,DR3,2*%
%TO.N,Net-(DD1-K)*%
X149900000Y-116950000D03*
%TD*%
D20*
%TO.P,MCUTVS4,1,1_1*%
%TO.N,BAT-*%
X197000000Y-134930000D03*
%TO.P,MCUTVS4,2,2_2*%
%TO.N,USART1_RX*%
X197000000Y-137170000D03*
%TD*%
D16*
%TO.P,TP31,1,1_1*%
%TO.N,V3*%
X89500000Y-121550000D03*
%TD*%
D21*
%TO.P,OSCC1,1*%
%TO.N,OSC_IN*%
X156900000Y-128830000D03*
%TO.P,OSCC1,2*%
%TO.N,BAT-*%
X156900000Y-129670000D03*
%TD*%
%TO.P,C70,1*%
%TO.N,V_SWD*%
X177582500Y-143815342D03*
%TO.P,C70,2*%
%TO.N,BAT-*%
X177582500Y-142975342D03*
%TD*%
D22*
%TO.P,H4,1,1_1*%
%TO.N,unconnected-(H4-Pad1)*%
X182070000Y-68840000D03*
D23*
%TO.N,unconnected-(H4-Pad1)_2*%
X182070000Y-68840000D03*
%TD*%
D13*
%TO.P,TP46,1,1_1*%
%TO.N,REG1*%
X142900000Y-120800000D03*
%TD*%
%TO.P,TP37,1,1_1*%
%TO.N,Net-(BQ296115DSGR1-VDD)*%
X104500000Y-141550000D03*
%TD*%
%TO.P,TP39,1,1_1*%
%TO.N,Net-(BQ296115DSGR1-V3)*%
X98500000Y-141550000D03*
%TD*%
D24*
%TO.P,RC4,1*%
%TO.N,BAT-*%
X136700000Y-121550000D03*
%TO.P,RC4,2*%
%TO.N,REG2*%
X135860000Y-121550000D03*
%TD*%
D25*
%TO.P,MCUR5,1*%
%TO.N,VDD*%
X163250000Y-122305000D03*
%TO.P,MCUR5,2*%
%TO.N,Net-(U2-PB6)*%
X163250000Y-121445000D03*
%TD*%
D26*
%TO.P,MCUR4,1*%
%TO.N,Net-(U2-PB2)*%
X167998750Y-140060342D03*
%TO.P,MCUR4,2*%
%TO.N,BAT-*%
X168858750Y-140060342D03*
%TD*%
D27*
%TO.P,PCc2,1*%
%TO.N,Net-(PCc2-Pad1)*%
X141950000Y-78550000D03*
%TO.P,PCc2,2*%
%TO.N,CPACK+*%
X143500000Y-78550000D03*
%TD*%
D24*
%TO.P,TsC2,1*%
%TO.N,TS3*%
X135660000Y-129050000D03*
%TO.P,TsC2,2*%
%TO.N,BAT-*%
X136500000Y-129050000D03*
%TD*%
%TO.P,MCUC13,1*%
%TO.N,VDD*%
X163082500Y-125000000D03*
%TO.P,MCUC13,2*%
%TO.N,BAT-*%
X163922500Y-125000000D03*
%TD*%
D28*
%TO.P,FB1,1*%
%TO.N,Net-(U2-PB6)*%
X157650000Y-121560342D03*
%TO.P,FB1,2*%
%TO.N,SCL*%
X156250000Y-121560342D03*
%TD*%
D29*
%TO.P,LEDR2,1*%
%TO.N,Net-(LED2-A)*%
X173500000Y-105550000D03*
%TO.P,LEDR2,2*%
%TO.N,DPACK+*%
X173500000Y-103550000D03*
%TD*%
D16*
%TO.P,TP65,1,1_1*%
%TO.N,Net-(U2-NRST)*%
X177700000Y-149650000D03*
%TD*%
D30*
%TO.P,ChR2,1*%
%TO.N,CHG*%
X154300000Y-86550000D03*
%TO.P,ChR2,2*%
%TO.N,Net-(ChD2-K)*%
X154300000Y-85050000D03*
%TD*%
D27*
%TO.P,PcC1,1*%
%TO.N,CD*%
X138450000Y-78550000D03*
%TO.P,PcC1,2*%
%TO.N,Net-(PCc2-Pad1)*%
X140000000Y-78550000D03*
%TD*%
D10*
%TO.P,PdR2,1*%
%TO.N,CD*%
X161700000Y-81150000D03*
%TO.P,PdR2,2*%
%TO.N,Net-(PdFet1-G)*%
X161700000Y-82800000D03*
%TD*%
D31*
%TO.P,Rshunt3,1*%
%TO.N,Net-(Rshunt3-Pad1)*%
X101500000Y-105590000D03*
%TO.P,Rshunt3,2*%
%TO.N,Net-(Rshunt2-Pad1)*%
X98620000Y-105590000D03*
%TD*%
D32*
%TO.P,XRreg1,1*%
%TO.N,Net-(XCreg1-Pad1)*%
X89000000Y-153690000D03*
%TO.P,XRreg1,2*%
%TO.N,Net-(BQ296115DSGR1-REG)*%
X89000000Y-147550000D03*
%TD*%
D33*
%TO.P,XRC5,1*%
%TO.N,Net-(BQ296115DSGR1-VDD)*%
X104500000Y-138560000D03*
%TO.P,XRC5,2*%
%TO.N,BAT+*%
X104500000Y-137540000D03*
%TD*%
D34*
%TO.P,MCUTVS2,1,1_1*%
%TO.N,BAT-*%
X166702500Y-123560342D03*
%TO.P,MCUTVS2,2,2_2*%
%TO.N,Net-(U2-PB7)*%
X164462500Y-123560342D03*
%TD*%
D13*
%TO.P,TP15,1,1_1*%
%TO.N,TS3*%
X133400000Y-129550000D03*
%TD*%
D35*
%TO.P,U9,1,GND_1*%
%TO.N,BAT-*%
X182872379Y-118483513D03*
%TO.P,U9,2,VO_2*%
%TO.N,V_REGUSB*%
X182872379Y-120783513D03*
D36*
X189172379Y-120783513D03*
D35*
%TO.P,U9,3,VI_3*%
%TO.N,USB_C_VBUS*%
X182872379Y-123083513D03*
%TD*%
D37*
%TO.P,SC3,1*%
%TO.N,SRN*%
X128570000Y-129300000D03*
%TO.P,SC3,2*%
%TO.N,SRP*%
X129530000Y-129300000D03*
%TD*%
D38*
%TO.P,DC3,1*%
%TO.N,DPACK+*%
X157500000Y-108050000D03*
%TO.P,DC3,2*%
%TO.N,Net-(D2-A1)*%
X157500000Y-109450000D03*
%TD*%
D39*
%TO.P,J6,1,P_1*%
%TO.N,CPACK+*%
X148000000Y-72550000D03*
D40*
%TO.P,J6,2,N_2*%
%TO.N,PACK-*%
X140800000Y-72550000D03*
D41*
%TO.P,J6,SH1,SHIELD_SH1*%
%TO.N,unconnected-(J6-SHIELD-PadSH1)_1*%
X151150000Y-66550000D03*
%TO.P,J6,SH2,SHIELD_SH2*%
%TO.N,unconnected-(J6-SHIELD-PadSH1)*%
X137650000Y-66550000D03*
%TD*%
D21*
%TO.P,MCUC18,1*%
%TO.N,VDD*%
X158582500Y-136980342D03*
%TO.P,MCUC18,2*%
%TO.N,BAT-*%
X158582500Y-136140342D03*
%TD*%
D13*
%TO.P,TP8,1,1_1*%
%TO.N,SRP*%
X131500000Y-136050000D03*
%TD*%
D25*
%TO.P,MCUR3,1*%
%TO.N,VDD*%
X165750000Y-142805000D03*
%TO.P,MCUR3,2*%
%TO.N,ALERT*%
X165750000Y-141945000D03*
%TD*%
D31*
%TO.P,Rshunt2,1*%
%TO.N,Net-(Rshunt2-Pad1)*%
X95500000Y-105590000D03*
%TO.P,Rshunt2,2*%
%TO.N,Net-(Rshunt1-Pad1)*%
X92620000Y-105590000D03*
%TD*%
D42*
%TO.P,3TFuse1,1,1_1*%
%TO.N,CD*%
X126900000Y-96750000D03*
D43*
%TO.P,3TFuse1,2,2_2*%
%TO.N,Net-(FFet1-D)*%
X124850000Y-91910000D03*
D44*
%TO.P,3TFuse1,3,3_3*%
%TO.N,BAT+*%
X122800000Y-96750000D03*
%TD*%
D45*
%TO.P,C1-0,1*%
%TO.N,Cell1-*%
X123500000Y-131070000D03*
%TO.P,C1-0,2*%
%TO.N,BAT-*%
X123500000Y-132030000D03*
%TD*%
D34*
%TO.P,MCUTVS1,1,1_1*%
%TO.N,BAT-*%
X170702500Y-123560342D03*
%TO.P,MCUTVS1,2,2_2*%
%TO.N,Net-(U2-PB6)*%
X168462500Y-123560342D03*
%TD*%
D16*
%TO.P,TP20,1,1_1*%
%TO.N,CPACK+*%
X149500000Y-78050000D03*
%TD*%
D24*
%TO.P,RC3,1*%
%TO.N,BAT-*%
X138900000Y-121050000D03*
%TO.P,RC3,2*%
%TO.N,REG1*%
X138060000Y-121050000D03*
%TD*%
D46*
%TO.P,PackR1,1*%
%TO.N,PACK*%
X156000000Y-78050000D03*
%TO.P,PackR1,2*%
%TO.N,CPACK+*%
X153040000Y-78050000D03*
%TD*%
D16*
%TO.P,TP50,1,1_1*%
%TO.N,IDin*%
X147500000Y-96550000D03*
%TD*%
D13*
%TO.P,TP54,1,1_1*%
%TO.N,Net-(DD1-K)*%
X143000000Y-107550000D03*
%TD*%
D47*
%TO.P,better1,1,On_1*%
%TO.N,PWR+*%
X114500000Y-82650000D03*
%TO.P,better1,2,Comm_2*%
%TO.N,BAT+*%
X114500000Y-87350000D03*
%TO.P,better1,3,Off_3*%
X114500000Y-92050000D03*
%TD*%
D38*
%TO.P,USBC2,1*%
%TO.N,V_REGUSB*%
X180522379Y-119483513D03*
%TO.P,USBC2,2*%
%TO.N,BAT-*%
X180522379Y-118083513D03*
%TD*%
D37*
%TO.P,SC2,1*%
%TO.N,SRP*%
X129790000Y-130550000D03*
%TO.P,SC2,2*%
%TO.N,BAT-*%
X130750000Y-130550000D03*
%TD*%
D48*
%TO.P,D2,1,A1_1*%
%TO.N,Net-(D2-A1)*%
X151000000Y-109050000D03*
%TO.P,D2,2,A2_2*%
%TO.N,Net-(D1-A2)*%
X148100000Y-109050000D03*
%TD*%
D13*
%TO.P,TP34,1,1_1*%
%TO.N,Cell2+{slash}3-*%
X118500000Y-123950000D03*
%TD*%
D49*
%TO.P,DFet2,1,S_1*%
%TO.N,IDin*%
X140500000Y-102020000D03*
%TO.P,DFet2,2,S_2*%
X140500000Y-101370000D03*
%TO.P,DFet2,3,S_3*%
X140500000Y-100730000D03*
%TO.P,DFet2,4,G_4*%
%TO.N,Net-(DFet2-G)*%
X140500000Y-100080000D03*
D50*
%TO.P,DFet2,5,D_5*%
%TO.N,CD*%
X139020000Y-101050000D03*
%TD*%
D21*
%TO.P,MCUC20,1*%
%TO.N,Net-(U2-VCAP_1)*%
X170082500Y-139975342D03*
%TO.P,MCUC20,2*%
%TO.N,BAT-*%
X170082500Y-140815342D03*
%TD*%
D16*
%TO.P,TP29,1,1_1*%
%TO.N,V1*%
X89500000Y-126550000D03*
%TD*%
D49*
%TO.P,DFet3,1,S_1*%
%TO.N,IDin*%
X159020000Y-100080000D03*
%TO.P,DFet3,2,S_2*%
X159020000Y-100730000D03*
%TO.P,DFet3,3,S_3*%
X159020000Y-101370000D03*
%TO.P,DFet3,4,G_4*%
%TO.N,Net-(DFet3-G)*%
X159020000Y-102020000D03*
D51*
%TO.P,DFet3,5,D_5*%
%TO.N,DPACK+*%
X160500000Y-101050000D03*
%TD*%
D16*
%TO.P,TP63,1,1_1*%
%TO.N,ALERT*%
X146600000Y-129550000D03*
%TD*%
D17*
%TO.P,ChD1,1,K_1*%
%TO.N,Net-(ChD1-K)*%
X146500000Y-84680000D03*
%TO.P,ChD1,2,A_2*%
%TO.N,CPACK+*%
X146500000Y-81420000D03*
%TD*%
D13*
%TO.P,TP16,1,1_1*%
%TO.N,Cell1-*%
X117100000Y-130750000D03*
%TD*%
D16*
%TO.P,TP68,1,1_1*%
%TO.N,MCUDFETOFF*%
X153200000Y-137350000D03*
%TD*%
D52*
%TO.P,S3,1*%
%TO.N,V3*%
X103000000Y-116050000D03*
%TO.P,S3,2*%
X103000000Y-113550000D03*
%TO.P,S3,3*%
%TO.N,Net-(Rshunt3-Pad1)*%
X103000000Y-111050000D03*
%TD*%
D17*
%TO.P,BD1,1,K_1*%
%TO.N,Net-(BD1-K)*%
X118700000Y-106780000D03*
%TO.P,BD1,2,A_2*%
%TO.N,BAT+*%
X118700000Y-103520000D03*
%TD*%
D53*
%TO.P,DD1,1,K_1*%
%TO.N,Net-(DD1-K)*%
X145500000Y-106740000D03*
%TO.P,DD1,2,A_2*%
%TO.N,IDin*%
X145500000Y-103360000D03*
%TD*%
D54*
%TO.P,CR1,1*%
%TO.N,V4*%
X113500000Y-115550000D03*
%TO.P,CR1,2*%
%TO.N,Cell4+*%
X115500000Y-115550000D03*
%TD*%
D55*
%TO.P,SRinN1,1*%
%TO.N,SRN*%
X128550000Y-136300000D03*
%TO.P,SRinN1,2*%
%TO.N,BAT-*%
X128550000Y-137320000D03*
%TD*%
D16*
%TO.P,TP59,1,1_1*%
%TO.N,V_SWD*%
X172582500Y-144810342D03*
%TD*%
D13*
%TO.P,TP33,1,1_1*%
%TO.N,Cell1+{slash}2-*%
X119900000Y-129750000D03*
%TD*%
D25*
%TO.P,TsR1,1*%
%TO.N,Net-(TsRST1A-B)*%
X141000000Y-134660000D03*
%TO.P,TsR1,2*%
%TO.N,BAT-*%
X141000000Y-133800000D03*
%TD*%
D56*
%TO.P,TH1,1*%
%TO.N,TS1*%
X131000000Y-132840000D03*
%TO.P,TH1,2*%
%TO.N,BAT-*%
X133540000Y-132840000D03*
%TD*%
D57*
%TO.P,BQ296115DSGR1,1,VDD_1*%
%TO.N,Net-(BQ296115DSGR1-VDD)*%
X94500000Y-147800000D03*
%TO.P,BQ296115DSGR1,2,V4_2*%
%TO.N,Net-(BQ296115DSGR1-V4)*%
X94500000Y-147300000D03*
%TO.P,BQ296115DSGR1,3,V3_3*%
%TO.N,Net-(BQ296115DSGR1-V3)*%
X94500000Y-146800000D03*
%TO.P,BQ296115DSGR1,4,V2_4*%
%TO.N,Net-(BQ296115DSGR1-V2)*%
X94500000Y-146300000D03*
%TO.P,BQ296115DSGR1,5,V1_5*%
%TO.N,Net-(BQ296115DSGR1-V1)*%
X92600000Y-146300000D03*
%TO.P,BQ296115DSGR1,6,VSS_6*%
%TO.N,BAT-*%
X92600000Y-146800000D03*
%TO.P,BQ296115DSGR1,7,REG_7*%
%TO.N,Net-(BQ296115DSGR1-REG)*%
X92600000Y-147300000D03*
%TO.P,BQ296115DSGR1,8,OUT_8*%
%TO.N,Net-(BQ296115DSGR1-OUT)*%
X92600000Y-147800000D03*
D58*
%TO.P,BQ296115DSGR1,9,PWPD_9*%
%TO.N,BAT-*%
X93550000Y-147050000D03*
%TD*%
D59*
%TO.P,BC2,1*%
%TO.N,BAT*%
X123300000Y-111350000D03*
%TO.P,BC2,2*%
%TO.N,BAT-*%
X124700000Y-111350000D03*
%TD*%
D25*
%TO.P,MCUR6,1*%
%TO.N,VDD*%
X160750000Y-123920342D03*
%TO.P,MCUR6,2*%
%TO.N,Net-(U2-PB7)*%
X160750000Y-123060342D03*
%TD*%
D13*
%TO.P,TP6,1,1_1*%
%TO.N,SRN*%
X126500000Y-136050000D03*
%TD*%
D53*
%TO.P,DD3,1,K_1*%
%TO.N,Net-(DD3-K)*%
X157000000Y-105240000D03*
%TO.P,DD3,2,A_2*%
%TO.N,IDin*%
X157000000Y-101860000D03*
%TD*%
D24*
%TO.P,MCUC15,1*%
%TO.N,VDD*%
X164252500Y-139560342D03*
%TO.P,MCUC15,2*%
%TO.N,BAT-*%
X163412500Y-139560342D03*
%TD*%
D49*
%TO.P,ChFet1,1,S_1*%
%TO.N,CD*%
X139020000Y-88080000D03*
%TO.P,ChFet1,2,S_2*%
X139020000Y-88730000D03*
%TO.P,ChFet1,3,S_3*%
X139020000Y-89370000D03*
%TO.P,ChFet1,4,G_4*%
%TO.N,Net-(ChD2-K)*%
X139020000Y-90020000D03*
D51*
%TO.P,ChFet1,5,D_5*%
%TO.N,Net-(ChD1-K)*%
X140500000Y-89050000D03*
%TD*%
D60*
%TO.P,DR1,1*%
%TO.N,Net-(DD1-K)*%
X143000000Y-105200000D03*
%TO.P,DR1,2*%
%TO.N,IDin*%
X143000000Y-103550000D03*
%TD*%
D61*
%TO.P,TP7,1,1_1*%
%TO.N,BAT-*%
X120000000Y-137550000D03*
%TD*%
D27*
%TO.P,BC3,1*%
%TO.N,BAT*%
X124550000Y-114950000D03*
%TO.P,BC3,2*%
%TO.N,CP1*%
X126100000Y-114950000D03*
%TD*%
D13*
%TO.P,TP58,1,1_1*%
%TO.N,Net-(D2-A1)*%
X149000000Y-111550000D03*
%TD*%
D62*
%TO.P,XRC3,1*%
%TO.N,Net-(BQ296115DSGR1-V3)*%
X98500000Y-139510000D03*
%TO.P,XRC3,2*%
%TO.N,V3*%
X98500000Y-136550000D03*
%TD*%
D63*
%TO.P,DC1,1*%
%TO.N,DPACK+*%
X168500000Y-85100000D03*
%TO.P,DC1,2*%
%TO.N,Net-(DC1-Pad2)*%
X168500000Y-83550000D03*
%TD*%
D64*
%TO.P,J7,A1,GND_A1*%
%TO.N,BAT-*%
X182990000Y-133750000D03*
%TO.P,J7,A4,VBUS_A4*%
%TO.N,USB_C_VBUS*%
X182990000Y-132950000D03*
D65*
%TO.P,J7,A5,CC1_A5*%
%TO.N,Net-(J7-CC1)*%
X182990000Y-131800000D03*
%TO.P,J7,A6,D+_A6*%
%TO.N,USB_D+*%
X182990000Y-130800000D03*
%TO.P,J7,A7,D-_A7*%
%TO.N,USB_D-*%
X182990000Y-130300000D03*
%TO.P,J7,A8,SBU1_A8*%
%TO.N,unconnected-(J7-SBU1-PadA8)*%
X182990000Y-129300000D03*
D64*
%TO.P,J7,A9,VBUS_A9*%
%TO.N,USB_C_VBUS*%
X182990000Y-128150000D03*
%TO.P,J7,A12,GND_A12*%
%TO.N,BAT-*%
X182990000Y-127350000D03*
%TO.P,J7,B1,GND_B1*%
X182990000Y-127350000D03*
%TO.P,J7,B4,VBUS_B4*%
%TO.N,USB_C_VBUS*%
X182990000Y-128150000D03*
D65*
%TO.P,J7,B5,CC2_B5*%
%TO.N,Net-(J7-CC2)*%
X182990000Y-128800000D03*
%TO.P,J7,B6,D+_B6*%
%TO.N,USB_D+*%
X182990000Y-129800000D03*
%TO.P,J7,B7,D-_B7*%
%TO.N,USB_D-*%
X182990000Y-131300000D03*
%TO.P,J7,B8,SBU2_B8*%
%TO.N,unconnected-(J7-SBU2-PadB8)*%
X182990000Y-132300000D03*
D64*
%TO.P,J7,B9,VBUS_B9*%
%TO.N,USB_C_VBUS*%
X182990000Y-132950000D03*
%TO.P,J7,B12,GND_B12*%
%TO.N,BAT-*%
X182990000Y-133750000D03*
D66*
%TO.P,J7,S1,SHIELD_S1*%
%TO.N,unconnected-(J7-SHIELD-PadS1)*%
X183570000Y-134870000D03*
D67*
%TO.N,unconnected-(J7-SHIELD-PadS1)_3*%
X187740000Y-134870000D03*
D66*
%TO.N,unconnected-(J7-SHIELD-PadS1)_1*%
X183570000Y-126230000D03*
D67*
%TO.N,unconnected-(J7-SHIELD-PadS1)_2*%
X187740000Y-126230000D03*
%TD*%
D13*
%TO.P,TP18,1,1_1*%
%TO.N,HDQ*%
X122500000Y-122550000D03*
%TD*%
%TO.P,TP53,1,1_1*%
%TO.N,Net-(D17-K)*%
X163500000Y-108550000D03*
%TD*%
D22*
%TO.P,H2,1,1_1*%
%TO.N,unconnected-(H2-Pad1)_2*%
X196070000Y-154440000D03*
D23*
%TO.N,unconnected-(H2-Pad1)_1*%
X196070000Y-154440000D03*
%TD*%
D13*
%TO.P,TP44,1,1_1*%
%TO.N,BREG*%
X134500000Y-117050000D03*
%TD*%
D68*
%TO.P,XC2,1*%
%TO.N,Net-(BQ296115DSGR1-V2)*%
X95750000Y-143550000D03*
%TO.P,XC2,2*%
%TO.N,Net-(BQ296115DSGR1-V1)*%
X94200000Y-143550000D03*
%TD*%
D69*
%TO.P,PdC2,1*%
%TO.N,Net-(PdC1-Pad2)*%
X166500000Y-83550000D03*
%TO.P,PdC2,2*%
%TO.N,DPACK+*%
X166500000Y-85100000D03*
%TD*%
D70*
%TO.P,FRShunt1,1*%
%TO.N,BAT-*%
X126250000Y-143550000D03*
%TO.P,FRShunt1,2*%
%TO.N,PACK-*%
X131850000Y-143550000D03*
%TD*%
D60*
%TO.P,R46,1*%
%TO.N,Net-(D17-K)*%
X166000000Y-106375000D03*
%TO.P,R46,2*%
%TO.N,DPACK+*%
X166000000Y-104725000D03*
%TD*%
D13*
%TO.P,TP49,1,1_1*%
%TO.N,Net-(PdFet1-G)*%
X159100000Y-85350000D03*
%TD*%
D21*
%TO.P,RC1,1*%
%TO.N,Net-(Q6-C)*%
X140000000Y-117210000D03*
%TO.P,RC1,2*%
%TO.N,BAT-*%
X140000000Y-118050000D03*
%TD*%
D71*
%TO.P,LED1,1,K_1*%
%TO.N,BAT-*%
X102800000Y-77550000D03*
%TO.P,LED1,2,A_2*%
%TO.N,Net-(LED1-A)*%
X105000000Y-77550000D03*
%TD*%
D31*
%TO.P,Rshunt4,1*%
%TO.N,PWR+*%
X107380000Y-105550000D03*
%TO.P,Rshunt4,2*%
%TO.N,Net-(Rshunt3-Pad1)*%
X104500000Y-105550000D03*
%TD*%
D62*
%TO.P,XRC2,1*%
%TO.N,Net-(BQ296115DSGR1-V2)*%
X95750000Y-139510000D03*
%TO.P,XRC2,2*%
%TO.N,V2*%
X95750000Y-136550000D03*
%TD*%
D21*
%TO.P,MCUC17,1*%
%TO.N,VDD*%
X159582500Y-136980342D03*
%TO.P,MCUC17,2*%
%TO.N,BAT-*%
X159582500Y-136140342D03*
%TD*%
D16*
%TO.P,TP60,1,1_1*%
%TO.N,V_REGUSB*%
X194250000Y-124050000D03*
%TD*%
D27*
%TO.P,PdC1,1*%
%TO.N,CD*%
X164950000Y-81150000D03*
%TO.P,PdC1,2*%
%TO.N,Net-(PdC1-Pad2)*%
X166500000Y-81150000D03*
%TD*%
D46*
%TO.P,DRgate2,1*%
%TO.N,Net-(DD1-K)*%
X145300000Y-112350000D03*
%TO.P,DRgate2,2*%
%TO.N,Net-(DFet2-G)*%
X142340000Y-112350000D03*
%TD*%
D13*
%TO.P,TP14,1,1_1*%
%TO.N,Net-(Q6-C)*%
X142000000Y-118550000D03*
%TD*%
D52*
%TO.P,S2,1*%
%TO.N,V4*%
X108000000Y-116050000D03*
%TO.P,S2,2*%
X108000000Y-113550000D03*
%TO.P,S2,3*%
%TO.N,PWR+*%
X108000000Y-111050000D03*
%TD*%
D16*
%TO.P,TP25,1,1_1*%
%TO.N,SCL*%
X157000000Y-119850000D03*
%TD*%
D72*
%TO.P,U6,1,VIN_1*%
%TO.N,REG1*%
X151482500Y-125700000D03*
%TO.P,U6,2,GND_2*%
%TO.N,BAT-*%
X151482500Y-126350000D03*
%TO.P,U6,3,\u002ACE_3*%
%TO.N,VDD*%
X151482500Y-127000000D03*
%TO.P,U6,4,NC_4*%
%TO.N,unconnected-(U6-NC-Pad4)*%
X153682500Y-127000000D03*
%TO.P,U6,5,ST_5*%
%TO.N,BAT-*%
X153682500Y-126350000D03*
%TO.P,U6,6,VOUT_6*%
%TO.N,VDD*%
X153682500Y-125700000D03*
%TD*%
D16*
%TO.P,TP72,1,1_1*%
%TO.N,RST_SHUT*%
X148500000Y-132050000D03*
%TD*%
D59*
%TO.P,C4,1*%
%TO.N,SRN*%
X128350000Y-134810000D03*
%TO.P,C4,2*%
%TO.N,SRP*%
X129750000Y-134810000D03*
%TD*%
D13*
%TO.P,TP22,1,1_1*%
%TO.N,Net-(ChD2-K)*%
X154500000Y-83150000D03*
%TD*%
D54*
%TO.P,LEDR3,1*%
%TO.N,Net-(LED3-A)*%
X157500000Y-73550000D03*
%TO.P,LEDR3,2*%
%TO.N,CPACK+*%
X155500000Y-73550000D03*
%TD*%
D19*
%TO.P,PcR3,1*%
%TO.N,PCHG*%
X136000000Y-84550000D03*
%TO.P,PcR3,2*%
%TO.N,Net-(PcFet1-G)*%
X137500000Y-84550000D03*
%TD*%
D21*
%TO.P,TsC3,1*%
%TO.N,HDQ*%
X122170000Y-120720000D03*
%TO.P,TsC3,2*%
%TO.N,BAT-*%
X122170000Y-119880000D03*
%TD*%
D16*
%TO.P,TP71,1,1_1*%
%TO.N,DDSG*%
X150700000Y-136050000D03*
%TD*%
D30*
%TO.P,USBR2,1*%
%TO.N,BAT-*%
X180500000Y-126300000D03*
%TO.P,USBR2,2*%
%TO.N,Net-(J7-CC2)*%
X180500000Y-127800000D03*
%TD*%
D16*
%TO.P,TP26,1,1_1*%
%TO.N,CD*%
X131500000Y-96550000D03*
%TD*%
D73*
%TO.P,X1,1,OSC1_1*%
%TO.N,OSC_IN*%
X154100000Y-129650000D03*
%TO.P,X1,2,GND_2*%
%TO.N,BAT-*%
X154100000Y-131850000D03*
%TO.P,X1,3,OSC2_3*%
%TO.N,OSC_OUT*%
X155700000Y-131850000D03*
%TO.P,X1,4,GND_4*%
%TO.N,BAT-*%
X155700000Y-129650000D03*
%TD*%
D74*
%TO.P,Cellin1,1,1_1*%
%TO.N,BAT-*%
X75500000Y-129049250D03*
D75*
%TO.P,Cellin1,2,2_2*%
%TO.N,V1*%
X75500000Y-126509250D03*
%TO.P,Cellin1,3,3_3*%
%TO.N,V2*%
X75500000Y-123969250D03*
%TO.P,Cellin1,4,4_4*%
%TO.N,V3*%
X75500000Y-121429250D03*
%TO.P,Cellin1,5,5_5*%
%TO.N,V4*%
X75500000Y-118889250D03*
%TD*%
D76*
%TO.P,PcFet1,1,D_1*%
%TO.N,Net-(PcFet1-D)*%
X139750000Y-83130000D03*
%TO.P,PcFet1,2,G_2*%
%TO.N,Net-(PcFet1-G)*%
X141650000Y-83130000D03*
%TO.P,PcFet1,3,S_3*%
%TO.N,CPACK+*%
X140700000Y-80650000D03*
%TD*%
D21*
%TO.P,C72,1*%
%TO.N,REG1*%
X150000000Y-125580000D03*
%TO.P,C72,2*%
%TO.N,BAT-*%
X150000000Y-126420000D03*
%TD*%
D77*
%TO.P,D1,1,A1_1*%
%TO.N,IDin*%
X148000000Y-103550000D03*
%TO.P,D1,2,A2_2*%
%TO.N,Net-(D1-A2)*%
X148000000Y-106450000D03*
%TD*%
D78*
%TO.P,U4,1,VIN_1*%
%TO.N,V_SWD*%
X174355000Y-143160342D03*
%TO.P,U4,2,GND_2*%
%TO.N,BAT-*%
X175005000Y-143160342D03*
%TO.P,U4,3,\u002ACE_3*%
%TO.N,VDD*%
X175655000Y-143160342D03*
%TO.P,U4,4,NC_4*%
%TO.N,unconnected-(U4-NC-Pad4)*%
X175655000Y-140960342D03*
%TO.P,U4,5,ST_5*%
%TO.N,BAT-*%
X175005000Y-140960342D03*
%TO.P,U4,6,VOUT_6*%
%TO.N,VDD*%
X174355000Y-140960342D03*
%TD*%
D79*
%TO.P,ChD2,1,K_1*%
%TO.N,Net-(ChD2-K)*%
X152190000Y-87550000D03*
%TO.P,ChD2,2,A_2*%
%TO.N,CD*%
X148810000Y-87550000D03*
%TD*%
D60*
%TO.P,LDR1,1*%
%TO.N,LD*%
X140500000Y-105200000D03*
%TO.P,LDR1,2*%
%TO.N,IDin*%
X140500000Y-103550000D03*
%TD*%
D13*
%TO.P,TP57,1,1_1*%
%TO.N,Net-(DD3-K)*%
X155500000Y-106550000D03*
%TD*%
%TO.P,TP51,1,1_1*%
%TO.N,LD*%
X137500000Y-106550000D03*
%TD*%
D16*
%TO.P,TP42,1,1_1*%
%TO.N,Net-(BQ296115DSGR1-REG)*%
X84500000Y-147550000D03*
%TD*%
D54*
%TO.P,CR2,1*%
%TO.N,V3*%
X113500000Y-118800000D03*
%TO.P,CR2,2*%
%TO.N,Cell3+{slash}4-*%
X115500000Y-118800000D03*
%TD*%
D52*
%TO.P,S4,1*%
%TO.N,V2*%
X97000000Y-116050000D03*
%TO.P,S4,2*%
X97000000Y-113550000D03*
%TO.P,S4,3*%
%TO.N,Net-(Rshunt2-Pad1)*%
X97000000Y-111050000D03*
%TD*%
D38*
%TO.P,USBC1,1*%
%TO.N,USB_C_VBUS*%
X180522379Y-122583513D03*
%TO.P,USBC1,2*%
%TO.N,BAT-*%
X180522379Y-123983513D03*
%TD*%
D54*
%TO.P,LEDR5,1*%
%TO.N,Net-(LED5-A)*%
X129000000Y-72050000D03*
%TO.P,LEDR5,2*%
%TO.N,PWR+*%
X127000000Y-72050000D03*
%TD*%
D22*
%TO.P,H3,1,1_1*%
%TO.N,unconnected-(H3-Pad1)_2*%
X101270000Y-67840000D03*
D23*
%TO.N,unconnected-(H3-Pad1)*%
X101270000Y-67840000D03*
%TD*%
D80*
%TO.P,C2-0,1*%
%TO.N,Cell1+{slash}2-*%
X122250000Y-129800000D03*
%TO.P,C2-0,2*%
%TO.N,BAT-*%
X122250000Y-128840000D03*
%TD*%
D81*
%TO.P,J1,1,Pin_1_1*%
%TO.N,USART1_TX*%
X197500000Y-140300000D03*
%TO.P,J1,2,Pin_2_2*%
%TO.N,USART1_RX*%
X197500000Y-142300000D03*
%TO.P,J1,3,Pin_3_3*%
%TO.N,BAT-*%
X197500000Y-144300000D03*
%TD*%
D46*
%TO.P,RR1,1*%
%TO.N,Net-(Q6-C)*%
X135000000Y-113050000D03*
%TO.P,RR1,2*%
%TO.N,Net-(RD1-K)*%
X132040000Y-113050000D03*
%TD*%
D13*
%TO.P,TP11,1,1_1*%
%TO.N,CP1*%
X126100000Y-112950000D03*
%TD*%
D37*
%TO.P,XC1,1*%
%TO.N,BAT-*%
X91640000Y-145450000D03*
%TO.P,XC1,2*%
%TO.N,Net-(BQ296115DSGR1-V1)*%
X92600000Y-145450000D03*
%TD*%
D60*
%TO.P,DFetGate4,1*%
%TO.N,Net-(DD3-K)*%
X160500000Y-106700000D03*
%TO.P,DFetGate4,2*%
%TO.N,Net-(DFet4-G)*%
X160500000Y-105050000D03*
%TD*%
D16*
%TO.P,TP24,1,1_1*%
%TO.N,SDA*%
X156900000Y-124950000D03*
%TD*%
%TO.P,TP28,1,1_1*%
%TO.N,BAT-*%
X82900000Y-129150000D03*
%TD*%
D39*
%TO.P,J3,1,P_1*%
%TO.N,PWR+*%
X121350000Y-72550000D03*
D40*
%TO.P,J3,2,N_2*%
%TO.N,BAT-*%
X114150000Y-72550000D03*
D41*
%TO.P,J3,SH1,SHIELD_SH1*%
%TO.N,unconnected-(J3-SHIELD-PadSH1)_1*%
X124500000Y-66550000D03*
%TO.P,J3,SH2,SHIELD_SH2*%
%TO.N,unconnected-(J3-SHIELD-PadSH1)*%
X111000000Y-66550000D03*
%TD*%
D54*
%TO.P,CR3,1*%
%TO.N,V2*%
X113500000Y-124050000D03*
%TO.P,CR3,2*%
%TO.N,Cell2+{slash}3-*%
X115500000Y-124050000D03*
%TD*%
D24*
%TO.P,MCUC19,1*%
%TO.N,Net-(U2-NRST)*%
X159600000Y-131950000D03*
%TO.P,MCUC19,2*%
%TO.N,BAT-*%
X158760000Y-131950000D03*
%TD*%
D69*
%TO.P,FC1,1*%
%TO.N,FUSE*%
X129900000Y-84300000D03*
%TO.P,FC1,2*%
%TO.N,BAT-*%
X129900000Y-85850000D03*
%TD*%
D82*
%TO.P,U2,1,VBAT_1*%
%TO.N,VDD*%
X161325000Y-128800000D03*
%TO.P,U2,2,PC13_2*%
%TO.N,unconnected-(U2-PC13-Pad2)*%
X161325000Y-129300000D03*
%TO.P,U2,3,PC14_3*%
%TO.N,unconnected-(U2-PC14-Pad3)*%
X161325000Y-129800000D03*
%TO.P,U2,4,PC15_4*%
%TO.N,unconnected-(U2-PC15-Pad4)*%
X161325000Y-130300000D03*
%TO.P,U2,5,PH0_5*%
%TO.N,OSC_IN*%
X161325000Y-130800000D03*
%TO.P,U2,6,PH1_6*%
%TO.N,OSC_OUT*%
X161325000Y-131300000D03*
%TO.P,U2,7,NRST_7*%
%TO.N,Net-(U2-NRST)*%
X161325000Y-131800000D03*
%TO.P,U2,8,PC0_8*%
%TO.N,RST_SHUT*%
X161325000Y-132300000D03*
%TO.P,U2,9,PC1_9*%
%TO.N,MCUDFETOFF*%
X161325000Y-132800000D03*
%TO.P,U2,10,PC2_10*%
%TO.N,MCUCFETOFF*%
X161325000Y-133300000D03*
%TO.P,U2,11,PC3_11*%
%TO.N,DDSG*%
X161325000Y-133800000D03*
%TO.P,U2,12,VSSA_12*%
%TO.N,BAT-*%
X161325000Y-134300000D03*
%TO.P,U2,13,VDDA_13*%
%TO.N,VDD*%
X161325000Y-134800000D03*
%TO.P,U2,14,PA0_14*%
%TO.N,unconnected-(U2-PA0-Pad14)*%
X161325000Y-135300000D03*
%TO.P,U2,15,PA1_15*%
%TO.N,unconnected-(U2-PA1-Pad15)*%
X161325000Y-135800000D03*
%TO.P,U2,16,PA2_16*%
%TO.N,unconnected-(U2-PA2-Pad16)*%
X161325000Y-136300000D03*
D83*
%TO.P,U2,17,PA3_17*%
%TO.N,unconnected-(U2-PA3-Pad17)*%
X163250000Y-138225000D03*
%TO.P,U2,18,VSS_18*%
%TO.N,BAT-*%
X163750000Y-138225000D03*
%TO.P,U2,19,VDD_19*%
%TO.N,VDD*%
X164250000Y-138225000D03*
%TO.P,U2,20,PA4_20*%
%TO.N,unconnected-(U2-PA4-Pad20)*%
X164750000Y-138225000D03*
%TO.P,U2,21,PA5_21*%
%TO.N,unconnected-(U2-PA5-Pad21)*%
X165250000Y-138225000D03*
%TO.P,U2,22,PA6_22*%
%TO.N,unconnected-(U2-PA6-Pad22)*%
X165750000Y-138225000D03*
%TO.P,U2,23,PA7_23*%
%TO.N,unconnected-(U2-PA7-Pad23)*%
X166250000Y-138225000D03*
%TO.P,U2,24,PC4_24*%
%TO.N,DCHG*%
X166750000Y-138225000D03*
%TO.P,U2,25,PC5_25*%
%TO.N,ALERT*%
X167250000Y-138225000D03*
%TO.P,U2,26,PB0_26*%
%TO.N,unconnected-(U2-PB0-Pad26)*%
X167750000Y-138225000D03*
%TO.P,U2,27,PB1_27*%
%TO.N,unconnected-(U2-PB1-Pad27)*%
X168250000Y-138225000D03*
%TO.P,U2,28,PB2_28*%
%TO.N,Net-(U2-PB2)*%
X168750000Y-138225000D03*
%TO.P,U2,29,PB10_29*%
%TO.N,unconnected-(U2-PB10-Pad29)*%
X169250000Y-138225000D03*
%TO.P,U2,30,PB11_30*%
%TO.N,unconnected-(U2-PB11-Pad30)*%
X169750000Y-138225000D03*
%TO.P,U2,31,VCAP_1_31*%
%TO.N,Net-(U2-VCAP_1)*%
X170250000Y-138225000D03*
%TO.P,U2,32,VDD_32*%
%TO.N,VDD*%
X170750000Y-138225000D03*
D82*
%TO.P,U2,33,PB12_33*%
%TO.N,unconnected-(U2-PB12-Pad33)*%
X172675000Y-136300000D03*
%TO.P,U2,34,PB13_34*%
%TO.N,unconnected-(U2-PB13-Pad34)*%
X172675000Y-135800000D03*
%TO.P,U2,35,PB14_35*%
%TO.N,unconnected-(U2-PB14-Pad35)*%
X172675000Y-135300000D03*
%TO.P,U2,36,PB15_36*%
%TO.N,unconnected-(U2-PB15-Pad36)*%
X172675000Y-134800000D03*
%TO.P,U2,37,PC6_37*%
%TO.N,unconnected-(U2-PC6-Pad37)*%
X172675000Y-134300000D03*
%TO.P,U2,38,PC7_38*%
%TO.N,unconnected-(U2-PC7-Pad38)*%
X172675000Y-133800000D03*
%TO.P,U2,39,PC8_39*%
%TO.N,unconnected-(U2-PC8-Pad39)*%
X172675000Y-133300000D03*
%TO.P,U2,40,PC9_40*%
%TO.N,unconnected-(U2-PC9-Pad40)*%
X172675000Y-132800000D03*
%TO.P,U2,41,PA8_41*%
%TO.N,unconnected-(U2-PA8-Pad41)*%
X172675000Y-132300000D03*
%TO.P,U2,42,PA9_42*%
%TO.N,USART1_TX*%
X172675000Y-131800000D03*
%TO.P,U2,43,PA10_43*%
%TO.N,USART1_RX*%
X172675000Y-131300000D03*
%TO.P,U2,44,PA11_44*%
%TO.N,USB_D-*%
X172675000Y-130800000D03*
%TO.P,U2,45,PA12_45*%
%TO.N,USB_D+*%
X172675000Y-130300000D03*
%TO.P,U2,46,PA13_46*%
%TO.N,SWDIO*%
X172675000Y-129800000D03*
%TO.P,U2,47,VCAP_2_47*%
%TO.N,Net-(U2-VCAP_2)*%
X172675000Y-129300000D03*
%TO.P,U2,48,VDD_48*%
%TO.N,VDD*%
X172675000Y-128800000D03*
D83*
%TO.P,U2,49,PA14_49*%
%TO.N,SWCLK*%
X170750000Y-126875000D03*
%TO.P,U2,50,PA15_50*%
%TO.N,unconnected-(U2-PA15-Pad50)*%
X170250000Y-126875000D03*
%TO.P,U2,51,PC10_51*%
%TO.N,unconnected-(U2-PC10-Pad51)*%
X169750000Y-126875000D03*
%TO.P,U2,52,PC11_52*%
%TO.N,unconnected-(U2-PC11-Pad52)*%
X169250000Y-126875000D03*
%TO.P,U2,53,PC12_53*%
%TO.N,unconnected-(U2-PC12-Pad53)*%
X168750000Y-126875000D03*
%TO.P,U2,54,PD2_54*%
%TO.N,unconnected-(U2-PD2-Pad54)*%
X168250000Y-126875000D03*
%TO.P,U2,55,PB3_55*%
%TO.N,unconnected-(U2-PB3-Pad55)*%
X167750000Y-126875000D03*
%TO.P,U2,56,PB4_56*%
%TO.N,unconnected-(U2-PB4-Pad56)*%
X167250000Y-126875000D03*
%TO.P,U2,57,PB5_57*%
%TO.N,unconnected-(U2-PB5-Pad57)*%
X166750000Y-126875000D03*
%TO.P,U2,58,PB6_58*%
%TO.N,Net-(U2-PB6)*%
X166250000Y-126875000D03*
%TO.P,U2,59,PB7_59*%
%TO.N,Net-(U2-PB7)*%
X165750000Y-126875000D03*
%TO.P,U2,60,BOOT0_60*%
%TO.N,Net-(U2-BOOT0)*%
X165250000Y-126875000D03*
%TO.P,U2,61,PB8_61*%
%TO.N,unconnected-(U2-PB8-Pad61)*%
X164750000Y-126875000D03*
%TO.P,U2,62,PB9_62*%
%TO.N,unconnected-(U2-PB9-Pad62)*%
X164250000Y-126875000D03*
%TO.P,U2,63,VSS_63*%
%TO.N,BAT-*%
X163750000Y-126875000D03*
%TO.P,U2,64,VDD_64*%
%TO.N,VDD*%
X163250000Y-126875000D03*
%TD*%
D10*
%TO.P,PdR1,1*%
%TO.N,Net-(PdFet1-D)*%
X159500000Y-88725000D03*
%TO.P,PdR1,2*%
%TO.N,DPACK+*%
X159500000Y-90375000D03*
%TD*%
D84*
%TO.P,LED3,1,K_1*%
%TO.N,PACK-*%
X157500000Y-68350000D03*
%TO.P,LED3,2,A_2*%
%TO.N,Net-(LED3-A)*%
X157500000Y-70550000D03*
%TD*%
D37*
%TO.P,RC2,1*%
%TO.N,REGIN*%
X139520000Y-119800000D03*
%TO.P,RC2,2*%
%TO.N,BAT-*%
X140480000Y-119800000D03*
%TD*%
D16*
%TO.P,TP61,1,1_1*%
%TO.N,Net-(U2-VCAP_1)*%
X170100000Y-143650000D03*
%TD*%
D26*
%TO.P,MCUR2,1*%
%TO.N,Net-(U2-BOOT0)*%
X167998750Y-141060342D03*
%TO.P,MCUR2,2*%
%TO.N,BAT-*%
X168858750Y-141060342D03*
%TD*%
D56*
%TO.P,TH2,1*%
%TO.N,TS3*%
X135000000Y-130800000D03*
%TO.P,TH2,2*%
%TO.N,BAT-*%
X137540000Y-130800000D03*
%TD*%
D80*
%TO.P,CC2-1,1*%
%TO.N,Cell1+{slash}2-*%
X124750000Y-129760000D03*
%TO.P,CC2-1,2*%
%TO.N,Cell2+{slash}3-*%
X124750000Y-128800000D03*
%TD*%
D85*
%TO.P,NMOS1,1,S_1*%
%TO.N,DPACK+*%
X169470000Y-107070000D03*
%TO.P,NMOS1,2,S_2*%
X168820000Y-107070000D03*
%TO.P,NMOS1,3,S_3*%
X168180000Y-107070000D03*
%TO.P,NMOS1,4,G_4*%
%TO.N,Net-(D17-K)*%
X167530000Y-107070000D03*
D86*
%TO.P,NMOS1,5,D_5*%
%TO.N,Net-(DD1-K)*%
X168500000Y-108550000D03*
%TD*%
D13*
%TO.P,TP13,1,1_1*%
%TO.N,Net-(RD1-K)*%
X130500000Y-110050000D03*
%TD*%
D39*
%TO.P,J4,1,P_1*%
%TO.N,DPACK+*%
X177500000Y-95900000D03*
D40*
%TO.P,J4,2,N_2*%
%TO.N,PACK-*%
X177500000Y-88700000D03*
D87*
%TO.P,J4,SH1,SHIELD_SH1*%
%TO.N,unconnected-(J4-SHIELD-PadSH1)*%
X183500000Y-99050000D03*
%TO.P,J4,SH2,SHIELD_SH2*%
%TO.N,unconnected-(J4-SHIELD-PadSH1)_1*%
X183500000Y-85550000D03*
%TD*%
D78*
%TO.P,U5,1,VIN_1*%
%TO.N,V_REGUSB*%
X191372379Y-121383513D03*
%TO.P,U5,2,GND_2*%
%TO.N,BAT-*%
X192022379Y-121383513D03*
%TO.P,U5,3,\u002ACE_3*%
%TO.N,VDD*%
X192672379Y-121383513D03*
%TO.P,U5,4,NC_4*%
%TO.N,unconnected-(U5-NC-Pad4)*%
X192672379Y-119183513D03*
%TO.P,U5,5,ST_5*%
%TO.N,BAT-*%
X192022379Y-119183513D03*
%TO.P,U5,6,VOUT_6*%
%TO.N,VDD*%
X191372379Y-119183513D03*
%TD*%
D28*
%TO.P,FB2,1*%
%TO.N,Net-(U2-PB7)*%
X157600000Y-123250000D03*
%TO.P,FB2,2*%
%TO.N,SDA*%
X156200000Y-123250000D03*
%TD*%
D80*
%TO.P,CC4-3,1*%
%TO.N,Cell3+{slash}4-*%
X120750000Y-118680000D03*
%TO.P,CC4-3,2*%
%TO.N,Cell4+*%
X120750000Y-117720000D03*
%TD*%
D53*
%TO.P,D17,1,K_1*%
%TO.N,Net-(D17-K)*%
X164000000Y-106550000D03*
%TO.P,D17,2,A_2*%
%TO.N,DPACK+*%
X164000000Y-103170000D03*
%TD*%
D37*
%TO.P,XC5,1*%
%TO.N,Net-(BQ296115DSGR1-VDD)*%
X108540000Y-141550000D03*
%TO.P,XC5,2*%
%TO.N,BAT-*%
X109500000Y-141550000D03*
%TD*%
D68*
%TO.P,ChC1,1*%
%TO.N,CPACK+*%
X145375000Y-76250000D03*
%TO.P,ChC1,2*%
%TO.N,Net-(ChC1-Pad2)*%
X143825000Y-76250000D03*
%TD*%
D55*
%TO.P,SRinP1,1*%
%TO.N,SRP*%
X129550000Y-136290000D03*
%TO.P,SRinP1,2*%
%TO.N,PACK-*%
X129550000Y-137310000D03*
%TD*%
D54*
%TO.P,CR5,1*%
%TO.N,BAT-*%
X113500000Y-129050000D03*
%TO.P,CR5,2*%
%TO.N,Cell1-*%
X115500000Y-129050000D03*
%TD*%
D19*
%TO.P,Xout1,1*%
%TO.N,Net-(BQ296115DSGR1-OUT)*%
X92500000Y-151550000D03*
%TO.P,Xout1,2*%
%TO.N,FUSE*%
X94000000Y-151550000D03*
%TD*%
D88*
%TO.P,R47,1*%
%TO.N,Net-(D15-K)*%
X161675000Y-110550000D03*
%TO.P,R47,2*%
%TO.N,Net-(D17-K)*%
X163325000Y-110550000D03*
%TD*%
D89*
%TO.P,XC3,1*%
%TO.N,Net-(BQ296115DSGR1-V3)*%
X96750000Y-145300000D03*
%TO.P,XC3,2*%
%TO.N,Net-(BQ296115DSGR1-V2)*%
X95790000Y-145300000D03*
%TD*%
D52*
%TO.P,S6,1*%
%TO.N,BAT-*%
X85000000Y-116050000D03*
%TO.P,S6,2*%
X85000000Y-113550000D03*
%TO.P,S6,3*%
%TO.N,Net-(Rshunt1-Pad2)*%
X85000000Y-111050000D03*
%TD*%
D54*
%TO.P,CR4,1*%
%TO.N,V1*%
X113500000Y-126550000D03*
%TO.P,CR4,2*%
%TO.N,Cell1+{slash}2-*%
X115500000Y-126550000D03*
%TD*%
D60*
%TO.P,PcR2,1*%
%TO.N,Net-(PcFet1-G)*%
X144000000Y-82700000D03*
%TO.P,PcR2,2*%
%TO.N,CPACK+*%
X144000000Y-81050000D03*
%TD*%
D31*
%TO.P,Rshunt1,1*%
%TO.N,Net-(Rshunt1-Pad1)*%
X89500000Y-105590000D03*
%TO.P,Rshunt1,2*%
%TO.N,Net-(Rshunt1-Pad2)*%
X86620000Y-105590000D03*
%TD*%
D13*
%TO.P,TP43,1,1_1*%
%TO.N,Net-(BQ296115DSGR1-OUT)*%
X92500000Y-149550000D03*
%TD*%
%TO.P,TP48,1,1_1*%
%TO.N,Net-(PcFet1-G)*%
X139870000Y-85050000D03*
%TD*%
D37*
%TO.P,CC3-2,1*%
%TO.N,Cell2+{slash}3-*%
X123620000Y-126950000D03*
%TO.P,CC3-2,2*%
%TO.N,Cell3+{slash}4-*%
X124580000Y-126950000D03*
%TD*%
D24*
%TO.P,MCUC14,1*%
%TO.N,VDD*%
X172830000Y-127875000D03*
%TO.P,MCUC14,2*%
%TO.N,BAT-*%
X173670000Y-127875000D03*
%TD*%
D60*
%TO.P,DR4,1*%
%TO.N,Net-(DD3-K)*%
X155000000Y-104050000D03*
%TO.P,DR4,2*%
%TO.N,IDin*%
X155000000Y-102400000D03*
%TD*%
D16*
%TO.P,TP32,1,1_1*%
%TO.N,V4*%
X81000000Y-119050000D03*
%TD*%
D84*
%TO.P,LED5,1,K_1*%
%TO.N,BAT-*%
X129700000Y-67550000D03*
%TO.P,LED5,2,A_2*%
%TO.N,Net-(LED5-A)*%
X129700000Y-69750000D03*
%TD*%
D17*
%TO.P,BD2,1,K_1*%
%TO.N,Net-(BD1-K)*%
X116930000Y-109350000D03*
%TO.P,BD2,2,A_2*%
%TO.N,PWR+*%
X113670000Y-109350000D03*
%TD*%
D24*
%TO.P,C71,1*%
%TO.N,V_REGUSB*%
X191354879Y-122303855D03*
%TO.P,C71,2*%
%TO.N,BAT-*%
X192194879Y-122303855D03*
%TD*%
D56*
%TO.P,TH3,1*%
%TO.N,HDQ*%
X129500000Y-104800000D03*
%TO.P,TH3,2*%
%TO.N,BAT-*%
X126960000Y-104800000D03*
%TD*%
D62*
%TO.P,XRC4,1*%
%TO.N,Net-(BQ296115DSGR1-V4)*%
X101500000Y-139550000D03*
%TO.P,XRC4,2*%
%TO.N,V4*%
X101500000Y-136590000D03*
%TD*%
D68*
%TO.P,XCshun1,1*%
%TO.N,Net-(XCshun1-Pad1)*%
X98000000Y-132050000D03*
%TO.P,XCshun1,2*%
%TO.N,BAT-*%
X96450000Y-132050000D03*
%TD*%
D60*
%TO.P,DFetGate3,1*%
%TO.N,Net-(DD3-K)*%
X159000000Y-106700000D03*
%TO.P,DFetGate3,2*%
%TO.N,Net-(DFet3-G)*%
X159000000Y-105050000D03*
%TD*%
D17*
%TO.P,RD2,1,K_1*%
%TO.N,Net-(RD1-K)*%
X127500000Y-110180000D03*
%TO.P,RD2,2,A_2*%
%TO.N,PWR+*%
X127500000Y-106920000D03*
%TD*%
D16*
%TO.P,TP62,1,1_1*%
%TO.N,Net-(U2-VCAP_2)*%
X173250000Y-124550000D03*
%TD*%
D13*
%TO.P,TP41,1,1_1*%
%TO.N,Net-(BQ296115DSGR1-V2)*%
X95775000Y-141550000D03*
%TD*%
D16*
%TO.P,TP1,1,1_1*%
%TO.N,BAT+*%
X114000000Y-102050000D03*
%TD*%
D90*
%TO.P,Xshun1,1*%
%TO.N,V4*%
X104000000Y-132050000D03*
%TO.P,Xshun1,2*%
%TO.N,Net-(XCshun1-Pad1)*%
X102980000Y-132050000D03*
%TD*%
D13*
%TO.P,TP35,1,1_1*%
%TO.N,Cell3+{slash}4-*%
X118100000Y-118750000D03*
%TD*%
D49*
%TO.P,DFet4,1,S_1*%
%TO.N,IDin*%
X157500000Y-93550000D03*
%TO.P,DFet4,2,S_2*%
X157500000Y-94200000D03*
%TO.P,DFet4,3,S_3*%
X157500000Y-94840000D03*
%TO.P,DFet4,4,G_4*%
%TO.N,Net-(DFet4-G)*%
X157500000Y-95490000D03*
D51*
%TO.P,DFet4,5,D_5*%
%TO.N,DPACK+*%
X158980000Y-94520000D03*
%TD*%
D91*
%TO.P,U7,1,OUT_1*%
%TO.N,DPACK+*%
X153027500Y-105390000D03*
%TO.P,U7,2,GATE_2*%
%TO.N,Net-(DD3-K)*%
X153027500Y-104890000D03*
%TO.P,U7,3,SRC_3*%
%TO.N,IDin*%
X153027500Y-104390000D03*
%TO.P,U7,4,IN_4*%
X150152500Y-104390000D03*
%TO.P,U7,5,~{SHDN}_5*%
%TO.N,unconnected-(U7-~{SHDN}-Pad5)*%
X150152500Y-104890000D03*
%TO.P,U7,6,Vss_6*%
%TO.N,Net-(D2-A1)*%
X150152500Y-105390000D03*
D92*
%TO.P,U7,7,Pad_7*%
X151590000Y-104890000D03*
%TD*%
D16*
%TO.P,TP30,1,1_1*%
%TO.N,V2*%
X95500000Y-123950000D03*
%TD*%
%TO.P,TP17,1,1_1*%
%TO.N,TS2*%
X136000000Y-137550000D03*
%TD*%
D80*
%TO.P,BMSC1,1*%
%TO.N,BAT-*%
X132500000Y-128030000D03*
%TO.P,BMSC1,2*%
%TO.N,Net-(U1-REG18)*%
X132500000Y-127070000D03*
%TD*%
D20*
%TO.P,MCUTVS3,1,1_1*%
%TO.N,BAT-*%
X194250000Y-140170000D03*
%TO.P,MCUTVS3,2,2_2*%
%TO.N,USART1_TX*%
X194250000Y-137930000D03*
%TD*%
D16*
%TO.P,TP64,1,1_1*%
%TO.N,Net-(U2-BOOT0)*%
X193750000Y-148840000D03*
%TD*%
D88*
%TO.P,DR2,1*%
%TO.N,Net-(DD2-A)*%
X146350000Y-115050000D03*
%TO.P,DR2,2*%
%TO.N,Net-(DD1-K)*%
X148000000Y-115050000D03*
%TD*%
D39*
%TO.P,J2,1,P_1*%
%TO.N,BAT+*%
X107000000Y-88700000D03*
D40*
%TO.P,J2,2,N_2*%
%TO.N,BAT-*%
X107000000Y-95900000D03*
D87*
%TO.P,J2,SH1,SHIELD_SH1*%
%TO.N,unconnected-(J2-SHIELD-PadSH1)*%
X101000000Y-85550000D03*
%TO.P,J2,SH2,SHIELD_SH2*%
%TO.N,unconnected-(J2-SHIELD-PadSH1)_1*%
X101000000Y-99050000D03*
%TD*%
D16*
%TO.P,TP66,1,1_1*%
%TO.N,MCUCFETOFF*%
X148750000Y-149750000D03*
%TD*%
%TO.P,TP21,1,1_1*%
%TO.N,DPACK+*%
X167500000Y-95550000D03*
%TD*%
D13*
%TO.P,TP36,1,1_1*%
%TO.N,Cell4+*%
X118100000Y-115550000D03*
%TD*%
D71*
%TO.P,LED2,1,K_1*%
%TO.N,PACK-*%
X178700000Y-105550000D03*
%TO.P,LED2,2,A_2*%
%TO.N,Net-(LED2-A)*%
X176500000Y-105550000D03*
%TD*%
D22*
%TO.P,H1,1,1_1*%
%TO.N,unconnected-(H1-Pad1)_2*%
X75670000Y-154340000D03*
D23*
%TO.N,unconnected-(H1-Pad1)_1*%
X75670000Y-154340000D03*
%TD*%
D13*
%TO.P,TP38,1,1_1*%
%TO.N,Net-(BQ296115DSGR1-V4)*%
X101500000Y-141550000D03*
%TD*%
D17*
%TO.P,DD2,1,K_1*%
%TO.N,DSG*%
X141370000Y-115050000D03*
%TO.P,DD2,2,A_2*%
%TO.N,Net-(DD2-A)*%
X144630000Y-115050000D03*
%TD*%
D16*
%TO.P,TP5,1,1_1*%
%TO.N,USART1_TX*%
X192162403Y-138450618D03*
%TD*%
D52*
%TO.P,S5,1*%
%TO.N,V1*%
X91000000Y-116050000D03*
%TO.P,S5,2*%
X91000000Y-113550000D03*
%TO.P,S5,3*%
%TO.N,Net-(Rshunt1-Pad1)*%
X91000000Y-111050000D03*
%TD*%
D88*
%TO.P,BR1,1*%
%TO.N,Net-(BD1-K)*%
X119450000Y-109350000D03*
%TO.P,BR1,2*%
%TO.N,BAT*%
X121100000Y-109350000D03*
%TD*%
D93*
%TO.P,ChR1,1*%
%TO.N,Net-(ChD2-K)*%
X152550000Y-85150000D03*
%TO.P,ChR1,2*%
%TO.N,CD*%
X150900000Y-85150000D03*
%TD*%
D16*
%TO.P,TP69,1,1_1*%
%TO.N,DFETOFF*%
X149100000Y-143650000D03*
%TD*%
D13*
%TO.P,TP40,1,1_1*%
%TO.N,Net-(BQ296115DSGR1-V1)*%
X93250000Y-141550000D03*
%TD*%
D21*
%TO.P,OSCC2,1*%
%TO.N,OSC_OUT*%
X156900000Y-132330000D03*
%TO.P,OSCC2,2*%
%TO.N,BAT-*%
X156900000Y-133170000D03*
%TD*%
D13*
%TO.P,TP12,1,1_1*%
%TO.N,TS1*%
X133500000Y-134800000D03*
%TD*%
D30*
%TO.P,PdR3,1*%
%TO.N,Net-(PdFet1-G)*%
X161700000Y-84750000D03*
%TO.P,PdR3,2*%
%TO.N,PDSG*%
X161700000Y-86250000D03*
%TD*%
D89*
%TO.P,SC1,1*%
%TO.N,SRN*%
X128250000Y-130550000D03*
%TO.P,SC1,2*%
%TO.N,BAT-*%
X127290000Y-130550000D03*
%TD*%
D49*
%TO.P,FFet1,1,S_1*%
%TO.N,BAT-*%
X126700000Y-89472535D03*
%TO.P,FFet1,2,S_2*%
X126700000Y-88822535D03*
%TO.P,FFet1,3,S_3*%
X126700000Y-88182535D03*
%TO.P,FFet1,4,G_4*%
%TO.N,FUSE*%
X126700000Y-87532535D03*
D50*
%TO.P,FFet1,5,D_5*%
%TO.N,Net-(FFet1-D)*%
X125220000Y-88502535D03*
%TD*%
D21*
%TO.P,MCUC16,1*%
%TO.N,VDD*%
X159582500Y-128900342D03*
%TO.P,MCUC16,2*%
%TO.N,BAT-*%
X159582500Y-128060342D03*
%TD*%
D30*
%TO.P,USBR1,1*%
%TO.N,Net-(J7-CC1)*%
X181000000Y-133300000D03*
%TO.P,USBR1,2*%
%TO.N,BAT-*%
X181000000Y-134800000D03*
%TD*%
D21*
%TO.P,MCUC21,1*%
%TO.N,Net-(U2-VCAP_2)*%
X171750000Y-126715000D03*
%TO.P,MCUC21,2*%
%TO.N,BAT-*%
X171750000Y-125875000D03*
%TD*%
D94*
%TO.P,XCreg1,1*%
%TO.N,Net-(XCreg1-Pad1)*%
X92960000Y-154050000D03*
%TO.P,XCreg1,2*%
%TO.N,BAT-*%
X96000000Y-154050000D03*
%TD*%
D25*
%TO.P,MCUR1,1*%
%TO.N,VDD*%
X159582500Y-140010000D03*
%TO.P,MCUR1,2*%
%TO.N,Net-(U2-NRST)*%
X159582500Y-139150000D03*
%TD*%
D95*
%TO.P,DR5,1*%
%TO.N,BAT-*%
X154000000Y-111930000D03*
%TO.P,DR5,2*%
%TO.N,Net-(D2-A1)*%
X154000000Y-109050000D03*
%TD*%
D62*
%TO.P,XRC1,1*%
%TO.N,Net-(BQ296115DSGR1-V1)*%
X93250000Y-139490000D03*
%TO.P,XRC1,2*%
%TO.N,V1*%
X93250000Y-136530000D03*
%TD*%
D96*
%TO.P,NRSTSW2,1,1_1*%
%TO.N,BAT-*%
X184622500Y-150395342D03*
%TO.P,NRSTSW2,2,2_2*%
%TO.N,Net-(U2-NRST)*%
X180542500Y-150395342D03*
%TD*%
D21*
%TO.P,MCUC12,1*%
%TO.N,VDD*%
X158582500Y-128900342D03*
%TO.P,MCUC12,2*%
%TO.N,BAT-*%
X158582500Y-128060342D03*
%TD*%
D76*
%TO.P,PdFet1,1,D_1*%
%TO.N,Net-(PdFet1-D)*%
X157150000Y-83190000D03*
%TO.P,PdFet1,2,G_2*%
%TO.N,Net-(PdFet1-G)*%
X159050000Y-83190000D03*
%TO.P,PdFet1,3,S_3*%
%TO.N,CD*%
X158100000Y-80710000D03*
%TD*%
D13*
%TO.P,TP27,1,1_1*%
%TO.N,FUSE*%
X129900000Y-82150000D03*
%TD*%
D24*
%TO.P,TsC1,1*%
%TO.N,TS1*%
X131580000Y-131300000D03*
%TO.P,TsC1,2*%
%TO.N,BAT-*%
X132420000Y-131300000D03*
%TD*%
D30*
%TO.P,USBR3,1*%
%TO.N,VDD*%
X175070000Y-128528059D03*
%TO.P,USBR3,2*%
%TO.N,USB_D+*%
X175070000Y-130028059D03*
%TD*%
D21*
%TO.P,MCUC11,1*%
%TO.N,VDD*%
X171582500Y-139640342D03*
%TO.P,MCUC11,2*%
%TO.N,BAT-*%
X171582500Y-140480342D03*
%TD*%
D46*
%TO.P,DRgate1,1*%
%TO.N,Net-(DD1-K)*%
X143260000Y-109950000D03*
%TO.P,DRgate1,2*%
%TO.N,Net-(Dfet1-G)*%
X140300000Y-109950000D03*
%TD*%
D89*
%TO.P,XC4,1*%
%TO.N,Net-(BQ296115DSGR1-V4)*%
X99000000Y-144050000D03*
%TO.P,XC4,2*%
%TO.N,Net-(BQ296115DSGR1-V3)*%
X98040000Y-144050000D03*
%TD*%
D30*
%TO.P,FUSER2,1*%
%TO.N,Net-(U1-FUSE)*%
X129900000Y-78850000D03*
%TO.P,FUSER2,2*%
%TO.N,FUSE*%
X129900000Y-80350000D03*
%TD*%
D96*
%TO.P,BOOTSW1,1,1_1*%
%TO.N,Net-(U2-BOOT0)*%
X191622500Y-150395342D03*
%TO.P,BOOTSW1,2,2_2*%
%TO.N,VDD*%
X187542500Y-150395342D03*
%TD*%
D29*
%TO.P,LEDR1,1*%
%TO.N,Net-(LED1-A)*%
X105500000Y-79550000D03*
%TO.P,LEDR1,2*%
%TO.N,BAT+*%
X105500000Y-81550000D03*
%TD*%
D27*
%TO.P,DC2,1*%
%TO.N,Net-(DC1-Pad2)*%
X171225000Y-82550000D03*
%TO.P,DC2,2*%
%TO.N,PACK-*%
X172775000Y-82550000D03*
%TD*%
D16*
%TO.P,TP52,1,1_1*%
%TO.N,PACK*%
X159500000Y-78050000D03*
%TD*%
D60*
%TO.P,FR1,1*%
%TO.N,BAT-*%
X128300000Y-85875000D03*
%TO.P,FR1,2*%
%TO.N,FUSE*%
X128300000Y-84225000D03*
%TD*%
D16*
%TO.P,TP70,1,1_1*%
%TO.N,DCHG*%
X156400000Y-139150000D03*
%TD*%
D46*
%TO.P,PcR1,1*%
%TO.N,CD*%
X134040000Y-82050000D03*
%TO.P,PcR1,2*%
%TO.N,Net-(PcFet1-D)*%
X137000000Y-82050000D03*
%TD*%
D13*
%TO.P,TP10,1,1_1*%
%TO.N,BAT*%
X123100000Y-113150000D03*
%TD*%
D17*
%TO.P,RD1,1,K_1*%
%TO.N,Net-(RD1-K)*%
X133250000Y-107930000D03*
%TO.P,RD1,2,A_2*%
%TO.N,CD*%
X133250000Y-104670000D03*
%TD*%
D49*
%TO.P,Dfet1,1,S_1*%
%TO.N,IDin*%
X140480000Y-94520000D03*
%TO.P,Dfet1,2,S_2*%
X140480000Y-93870000D03*
%TO.P,Dfet1,3,S_3*%
X140480000Y-93230000D03*
%TO.P,Dfet1,4,G_4*%
%TO.N,Net-(Dfet1-G)*%
X140480000Y-92580000D03*
D50*
%TO.P,Dfet1,5,D_5*%
%TO.N,CD*%
X139000000Y-93550000D03*
%TD*%
D68*
%TO.P,ChC2,1*%
%TO.N,Net-(ChC1-Pad2)*%
X142000000Y-76250000D03*
%TO.P,ChC2,2*%
%TO.N,PACK-*%
X140450000Y-76250000D03*
%TD*%
D96*
%TO.P,TsRST1,1,A_1*%
%TO.N,TS2*%
X135460000Y-134550000D03*
%TO.P,TsRST1,2,B_2*%
%TO.N,Net-(TsRST1A-B)*%
X139540000Y-134550000D03*
%TD*%
D97*
%TO.P,J5,1,GND_1*%
%TO.N,BAT-*%
X179680000Y-146205342D03*
%TO.P,J5,2,VDD_2*%
%TO.N,V_SWD*%
X179680000Y-143665342D03*
%TO.P,J5,3,SWDIO_3*%
%TO.N,SWDIO*%
X179680000Y-141125342D03*
%TO.P,J5,4,SWCLK_4*%
%TO.N,SWCLK*%
X179680000Y-138585342D03*
%TD*%
D98*
%TO.P,Q6,1,C_1*%
%TO.N,Net-(Q6-C)*%
X138450000Y-117350000D03*
%TO.P,Q6,2,B_2*%
%TO.N,BREG*%
X136550000Y-117350000D03*
%TO.P,Q6,3,E_3*%
%TO.N,REGIN*%
X137500000Y-119550000D03*
%TD*%
D99*
%TO.N,BAT-*%
X177750000Y-115500000D03*
X178070000Y-128840000D03*
X115000000Y-137050000D03*
X113500000Y-141300000D03*
X177128000Y-141895342D03*
X182750000Y-155250000D03*
X169500000Y-146000000D03*
X164600000Y-140650000D03*
X111500000Y-143300000D03*
X124500000Y-133550000D03*
X196750000Y-115750000D03*
X174750000Y-126875000D03*
X186082500Y-149895342D03*
X166500000Y-119750000D03*
X168250000Y-148800000D03*
X127500000Y-123300000D03*
X113500000Y-143300000D03*
X112250000Y-136300000D03*
X127250000Y-124300000D03*
X175000000Y-151800000D03*
X115250000Y-147050000D03*
X116500000Y-133550000D03*
X179832500Y-134560342D03*
X115400000Y-133200000D03*
X112600000Y-133800000D03*
X131500000Y-115050000D03*
X114250000Y-134300000D03*
X111500000Y-134800000D03*
X179250000Y-123875000D03*
X154500000Y-147050000D03*
X116250000Y-146300000D03*
X123500000Y-133550000D03*
X160332500Y-127310342D03*
X111500000Y-142300000D03*
X167250000Y-128800000D03*
X116500000Y-135550000D03*
X125500000Y-132550000D03*
X124500000Y-132550000D03*
X171000000Y-125050000D03*
X194320000Y-150946411D03*
X114000000Y-135050000D03*
X171082500Y-122395342D03*
X149750000Y-146300000D03*
X116500000Y-134550000D03*
X130000000Y-125050000D03*
X159300000Y-124550000D03*
X113000000Y-136050000D03*
X116500000Y-147050000D03*
X126500000Y-132550000D03*
X179070000Y-132340000D03*
X136750000Y-122550000D03*
X146750000Y-154500000D03*
X195829074Y-150549132D03*
X112500000Y-142300000D03*
X191522379Y-120283513D03*
X177070000Y-132840000D03*
X129250000Y-124800000D03*
X113500000Y-142300000D03*
X157200000Y-135450000D03*
X127300000Y-67950000D03*
X152500000Y-126350000D03*
X193750000Y-142300000D03*
X171000000Y-141356017D03*
X183720000Y-139340000D03*
X115000000Y-135050000D03*
X195250000Y-127750000D03*
X118250000Y-146300000D03*
X179250000Y-125875000D03*
X133400000Y-128000000D03*
X113000000Y-137050000D03*
X163750000Y-154000000D03*
X165000000Y-135050000D03*
X115000000Y-136050000D03*
X128250000Y-88300000D03*
X198500000Y-135050000D03*
X134000000Y-119050000D03*
X196250000Y-146750000D03*
X168250000Y-130050000D03*
X198250000Y-148050000D03*
X191854879Y-123303855D03*
X128250000Y-87050000D03*
X153500000Y-146050000D03*
X157963361Y-133013361D03*
X187500000Y-142050000D03*
X180500000Y-145050000D03*
X166000000Y-133550000D03*
X129750000Y-122800000D03*
X102700000Y-78950000D03*
X155500000Y-134950000D03*
X188250000Y-144920000D03*
X155250000Y-113600000D03*
X114000000Y-136050000D03*
X117250000Y-146300000D03*
X114000000Y-137050000D03*
X151700000Y-137950000D03*
X129000000Y-139050000D03*
X184410000Y-144420000D03*
X157850000Y-132285000D03*
X126500000Y-131550000D03*
X113500000Y-140300000D03*
X192253894Y-155287628D03*
X171750000Y-116000000D03*
X187700000Y-138960000D03*
X163750000Y-128300000D03*
X177082500Y-146895342D03*
X169750000Y-132800000D03*
X184500000Y-114750000D03*
X111500000Y-141300000D03*
X115250000Y-145300000D03*
X130000000Y-87050000D03*
X168800000Y-141800000D03*
X132750000Y-119050000D03*
X168750000Y-134050000D03*
X116250000Y-145300000D03*
X193750000Y-147050000D03*
X166750000Y-134800000D03*
X197404898Y-150810636D03*
X165000000Y-129800000D03*
X117250000Y-145300000D03*
X174000000Y-154750000D03*
X122500000Y-132550000D03*
X123000000Y-119800000D03*
X113750000Y-132550000D03*
X163500000Y-129050000D03*
X128250000Y-124800000D03*
X192250000Y-130500000D03*
X112500000Y-143300000D03*
X88000000Y-118050000D03*
X163750000Y-130800000D03*
X164000000Y-132800000D03*
X192000000Y-114550000D03*
X122750000Y-128000000D03*
X176500000Y-146050000D03*
X192320000Y-153446411D03*
X113000000Y-133050000D03*
X115250000Y-146300000D03*
X89500000Y-129050000D03*
X130500000Y-131550000D03*
X170000000Y-131050000D03*
X124700000Y-108550000D03*
X179250000Y-118375000D03*
X169500000Y-129050000D03*
X193750000Y-144300000D03*
X191500000Y-145050000D03*
X157300000Y-130550000D03*
X112000000Y-137050000D03*
X170000000Y-134800000D03*
X187250000Y-130550000D03*
X113250000Y-135300000D03*
X111500000Y-140300000D03*
X162500000Y-118550000D03*
X112000000Y-134050000D03*
X176000000Y-121250000D03*
X152500000Y-135550000D03*
X112500000Y-140300000D03*
X159082500Y-126895342D03*
X198500000Y-130250000D03*
X167082500Y-122395342D03*
X125500000Y-131550000D03*
X198592845Y-151566955D03*
X157500000Y-145800000D03*
X192000000Y-134750000D03*
X165250000Y-131300000D03*
X173000000Y-119800000D03*
X100270000Y-87840000D03*
X128250000Y-123800000D03*
X112500000Y-141300000D03*
X168750000Y-131800000D03*
X116500000Y-136550000D03*
X115000000Y-134050000D03*
X156250000Y-153300000D03*
X160700000Y-121950000D03*
X172500000Y-147500000D03*
X196500000Y-120250000D03*
X198000000Y-124750000D03*
X140000000Y-121050000D03*
X193070000Y-151946411D03*
X166250000Y-117000000D03*
X118250000Y-145300000D03*
%TO.N,ALERT*%
X152900000Y-141150000D03*
X143400000Y-125550000D03*
X164805000Y-141945000D03*
X144750000Y-127550000D03*
%TO.N,HDQ*%
X127000000Y-121300000D03*
X123250000Y-121300000D03*
%TO.N,CFETOFF*%
X150100000Y-140950000D03*
X131000000Y-123300000D03*
%TO.N,DFETOFF*%
X150500000Y-143800000D03*
X134373240Y-124196517D03*
%TO.N,DCHG*%
X156400000Y-139150000D03*
X166750000Y-137000000D03*
X131500000Y-122550000D03*
%TO.N,DDSG*%
X134700000Y-122750000D03*
X158900000Y-134750000D03*
X150700000Y-136050000D03*
%TO.N,RST_SHUT*%
X158944499Y-132905500D03*
X134900000Y-121950000D03*
X148500000Y-132050000D03*
%TO.N,REG1*%
X148500000Y-125550000D03*
X145500000Y-123550000D03*
%TO.N,Net-(U1-FUSE)*%
X129300000Y-121550000D03*
X122500000Y-87750000D03*
%TO.N,PDSG*%
X130700000Y-117150000D03*
X160300000Y-87550000D03*
%TO.N,PCHG*%
X128300000Y-111550000D03*
X135500000Y-86150000D03*
%TO.N,LD*%
X137500000Y-108350000D03*
X129628883Y-119829245D03*
%TO.N,PACK*%
X129100000Y-115350000D03*
X157500000Y-79550000D03*
%TO.N,DSG*%
X129100000Y-120750000D03*
X139700000Y-115150000D03*
%TO.N,CHG*%
X155300000Y-87950000D03*
X128300000Y-113950000D03*
%TO.N,MCUCFETOFF*%
X163300000Y-140950000D03*
X150500000Y-149550000D03*
X160500000Y-144150000D03*
%TO.N,VDD*%
X164937500Y-145687500D03*
X164250000Y-136800000D03*
X161917500Y-123875000D03*
X162250000Y-120050000D03*
X166250000Y-144375000D03*
X162714658Y-135085342D03*
X161917500Y-122272842D03*
%TO.N,MCUDFETOFF*%
X154700000Y-137950000D03*
X159026723Y-133750000D03*
%TO.N,PWR+*%
X111000000Y-106550000D03*
X126500000Y-106550000D03*
%TO.N,V3*%
X108000000Y-121429250D03*
X101000000Y-134050000D03*
X106000000Y-118050000D03*
%TO.N,Net-(U2-NRST)*%
X163200000Y-132200000D03*
X159800000Y-138000000D03*
%TO.N,Net-(ChD2-K)*%
X139020000Y-90484000D03*
X153200000Y-88250000D03*
%TO.N,BAT+*%
X107500000Y-133550000D03*
%TO.N,PACK-*%
X140000000Y-145300000D03*
X136000000Y-148300000D03*
X139000000Y-144300000D03*
X138000000Y-148300000D03*
X138000000Y-145300000D03*
X136000000Y-147300000D03*
X137000000Y-146300000D03*
X137000000Y-148300000D03*
X140000000Y-144300000D03*
X140000000Y-146300000D03*
X137000000Y-147300000D03*
X140000000Y-147300000D03*
X138900000Y-75350000D03*
X137000000Y-145300000D03*
X139000000Y-147300000D03*
X140000000Y-148300000D03*
X138000000Y-147300000D03*
X159300000Y-68150000D03*
X136000000Y-144300000D03*
X138000000Y-144300000D03*
X139000000Y-146300000D03*
X139000000Y-148300000D03*
X136000000Y-145300000D03*
X179900000Y-103750000D03*
X138000000Y-146300000D03*
X136000000Y-146300000D03*
X174100000Y-82550000D03*
X139000000Y-145300000D03*
X137000000Y-144300000D03*
%TO.N,Net-(DFet2-G)*%
X140100000Y-112150000D03*
X140300000Y-99280000D03*
%TO.N,V1*%
X95500000Y-126509250D03*
X94000000Y-118050000D03*
X94000000Y-134050000D03*
%TO.N,V4*%
X106500000Y-132050000D03*
X110160750Y-118889250D03*
%TO.N,V2*%
X100000000Y-118050000D03*
X103500000Y-124050000D03*
X97000000Y-134550000D03*
%TO.N,Net-(DFet4-G)*%
X157900000Y-96550000D03*
X160500000Y-103950000D03*
%TO.N,FUSE*%
X96500000Y-151050000D03*
X126700001Y-82150001D03*
%TO.N,SWCLK*%
X170750000Y-128227842D03*
X174582500Y-136395342D03*
%TO.N,Net-(U2-BOOT0)*%
X165250000Y-128375000D03*
X167998750Y-142050000D03*
%TO.N,Net-(Dfet1-G)*%
X138900000Y-107550000D03*
X139792039Y-91829435D03*
%TO.N,BAT-*%
X84200000Y-156200000D03*
%TD*%
%TO.N,TS1*%
D100*
X131000000Y-132840000D02*
X131540000Y-132840000D01*
X131540000Y-132840000D02*
X133500000Y-134800000D01*
X130050000Y-127000000D02*
X130050000Y-128600000D01*
X130050000Y-128600000D02*
X131580000Y-130130000D01*
X131580000Y-130130000D02*
X131580000Y-132260000D01*
X131580000Y-132260000D02*
X131000000Y-132840000D01*
%TO.N,BAT-*%
D101*
X158582500Y-128060342D02*
X158582500Y-127395342D01*
X175912000Y-144060342D02*
X176997000Y-142975342D01*
D102*
X171750000Y-125800000D02*
X171000000Y-125050000D01*
X127250000Y-130800000D02*
X127000000Y-131050000D01*
D100*
X93922000Y-148242500D02*
X93922000Y-148188500D01*
D103*
X182082500Y-143291842D02*
X181165658Y-142375000D01*
D102*
X155250000Y-113600000D02*
X155300000Y-113550000D01*
X124700000Y-111350000D02*
X124700000Y-108550000D01*
X128050000Y-127000000D02*
X128050000Y-128250000D01*
D101*
X163750000Y-126875000D02*
X163750000Y-125172500D01*
D102*
X93550000Y-147050000D02*
X93550000Y-147816500D01*
D101*
X175912000Y-144060342D02*
X175180000Y-144060342D01*
X179530892Y-118375000D02*
X179822379Y-118083513D01*
D102*
X93300000Y-146800000D02*
X93550000Y-147050000D01*
D103*
X182401094Y-127350000D02*
X182990000Y-127350000D01*
D101*
X158582500Y-127395342D02*
X159082500Y-126895342D01*
X179822379Y-118083513D02*
X180522379Y-118083513D01*
D102*
X133540000Y-132420000D02*
X132420000Y-131300000D01*
D103*
X180522379Y-118083513D02*
X182472379Y-118083513D01*
X180522379Y-123983513D02*
X180522379Y-126277621D01*
D102*
X113500000Y-129050000D02*
X89500000Y-129050000D01*
X177128000Y-141895342D02*
X177128000Y-142520842D01*
X137875000Y-130300000D02*
X141000000Y-133425000D01*
X180822379Y-117783513D02*
X180522379Y-118083513D01*
D101*
X192022379Y-120283513D02*
X191522379Y-120283513D01*
D102*
X158385000Y-131950000D02*
X158760000Y-131950000D01*
X163750000Y-138225000D02*
X163712000Y-138263000D01*
X140480000Y-119800000D02*
X140480000Y-118800000D01*
X102800000Y-77550000D02*
X102800000Y-78850000D01*
D103*
X181272500Y-146205342D02*
X182082500Y-145395342D01*
D102*
X156500000Y-113550000D02*
X157500000Y-112550000D01*
X85000000Y-116050000D02*
X85000000Y-113550000D01*
X184622500Y-150395342D02*
X185582500Y-150395342D01*
X92600000Y-146800000D02*
X93300000Y-146800000D01*
X163412500Y-140030342D02*
X164032158Y-140650000D01*
D101*
X163750000Y-128300000D02*
X163750000Y-126875000D01*
D102*
X127250000Y-129050000D02*
X127250000Y-130800000D01*
X180522379Y-126277621D02*
X180500000Y-126300000D01*
D103*
X181165658Y-142375000D02*
X178182842Y-142375000D01*
D102*
X122250000Y-128500000D02*
X122250000Y-128840000D01*
D101*
X150090000Y-126350000D02*
X150000000Y-126440000D01*
D102*
X89499250Y-129049250D02*
X89500000Y-129050000D01*
D101*
X155164000Y-133170000D02*
X156900000Y-133170000D01*
D102*
X174750000Y-126875000D02*
X174250000Y-126875000D01*
X181000000Y-134800000D02*
X180072158Y-134800000D01*
X171082500Y-122395342D02*
X170702500Y-122775342D01*
X122170000Y-119880000D02*
X122250000Y-119800000D01*
X131850000Y-115400000D02*
X131500000Y-115050000D01*
D101*
X163750000Y-125172500D02*
X163922500Y-125000000D01*
D102*
X132800000Y-128000000D02*
X132770000Y-128030000D01*
D101*
X157680000Y-133170000D02*
X156900000Y-133170000D01*
D100*
X96000000Y-153517500D02*
X96000000Y-154050000D01*
D102*
X129700000Y-67550000D02*
X127700000Y-67550000D01*
X170702500Y-122775342D02*
X170702500Y-123440342D01*
X156900000Y-130150000D02*
X157300000Y-130550000D01*
X168858750Y-141060342D02*
X168858750Y-141741250D01*
X137540000Y-130800000D02*
X137540000Y-130635000D01*
X133540000Y-132550000D02*
X133540000Y-132420000D01*
D101*
X175180000Y-144060342D02*
X175005000Y-143885342D01*
X154100000Y-132106000D02*
X155164000Y-133170000D01*
D102*
X156900000Y-129670000D02*
X156900000Y-130150000D01*
X130830000Y-130630000D02*
X130750000Y-130550000D01*
X75500000Y-129049250D02*
X89499250Y-129049250D01*
X135625000Y-128050000D02*
X137875000Y-130300000D01*
D101*
X175005000Y-143885342D02*
X175005000Y-143160342D01*
D102*
X174250000Y-126875000D02*
X173670000Y-127455000D01*
X155300000Y-113550000D02*
X156500000Y-113550000D01*
X125650000Y-104800000D02*
X123300000Y-107150000D01*
D103*
X179680000Y-146205342D02*
X181272500Y-146205342D01*
D102*
X126250000Y-143550000D02*
X126250000Y-139620000D01*
X92500000Y-132050000D02*
X89500000Y-129050000D01*
X132500000Y-115400000D02*
X131850000Y-115400000D01*
D103*
X181351094Y-126300000D02*
X182401094Y-127350000D01*
D101*
X157836639Y-133013361D02*
X157680000Y-133170000D01*
D102*
X155700000Y-129650000D02*
X156880000Y-129650000D01*
X166702500Y-122775342D02*
X167082500Y-122395342D01*
X155250000Y-113600000D02*
X155250000Y-113550000D01*
X166702500Y-123560342D02*
X166702500Y-122775342D01*
X197000000Y-134930000D02*
X198380000Y-134930000D01*
X181000000Y-134800000D02*
X181940000Y-134800000D01*
D101*
X192274879Y-122303855D02*
X192022379Y-122051355D01*
X175005000Y-143160342D02*
X175005000Y-140960342D01*
D100*
X98000000Y-151517500D02*
X96000000Y-153517500D01*
D102*
X122250000Y-119800000D02*
X123000000Y-119800000D01*
X194250000Y-141800000D02*
X193750000Y-142300000D01*
X127700000Y-67550000D02*
X127300000Y-67950000D01*
X126960000Y-104800000D02*
X125650000Y-104800000D01*
D100*
X98000000Y-150800000D02*
X95444500Y-148244500D01*
D102*
X130500000Y-131550000D02*
X130830000Y-131220000D01*
D103*
X182472379Y-118083513D02*
X182872379Y-118483513D01*
D102*
X138750000Y-121050000D02*
X140000000Y-121050000D01*
X96450000Y-132050000D02*
X92500000Y-132050000D01*
D101*
X153682500Y-126350000D02*
X152500000Y-126350000D01*
X160332500Y-127310342D02*
X159582500Y-128060342D01*
D102*
X181000000Y-134800000D02*
X180592842Y-134800000D01*
X140480000Y-118530000D02*
X140000000Y-118050000D01*
D101*
X179250000Y-118375000D02*
X179530892Y-118375000D01*
X157837500Y-136140342D02*
X158582500Y-136140342D01*
X157200000Y-135450000D02*
X157200000Y-135502842D01*
D102*
X91640000Y-146306500D02*
X91640000Y-145450000D01*
D101*
X151482500Y-126350000D02*
X150090000Y-126350000D01*
D102*
X92133500Y-146800000D02*
X91640000Y-146306500D01*
X168858750Y-140060342D02*
X168858750Y-141060342D01*
X158050000Y-132285000D02*
X158385000Y-131950000D01*
X180072158Y-134800000D02*
X179832500Y-134560342D01*
X136750000Y-121600000D02*
X136700000Y-121550000D01*
D101*
X161325000Y-134300000D02*
X160092842Y-134300000D01*
D102*
X88000000Y-118050000D02*
X87000000Y-118050000D01*
X134500000Y-128050000D02*
X135625000Y-128050000D01*
X136750000Y-122550000D02*
X136750000Y-121600000D01*
X171750000Y-125875000D02*
X171750000Y-125800000D01*
X128050000Y-128250000D02*
X127250000Y-129050000D01*
D101*
X192022379Y-122051355D02*
X192022379Y-121383513D01*
D103*
X182082500Y-145395342D02*
X182082500Y-143291842D01*
D102*
X173670000Y-127455000D02*
X173670000Y-127875000D01*
X133400000Y-128000000D02*
X134450000Y-128000000D01*
X140000000Y-121050000D02*
X140480000Y-120570000D01*
X133400000Y-128000000D02*
X132800000Y-128000000D01*
D101*
X159582500Y-136140342D02*
X158582500Y-136140342D01*
X152500000Y-126350000D02*
X151482500Y-126350000D01*
D102*
X185582500Y-150395342D02*
X186082500Y-149895342D01*
X132770000Y-128030000D02*
X132500000Y-128030000D01*
D101*
X157200000Y-135502842D02*
X157837500Y-136140342D01*
D102*
X87000000Y-118050000D02*
X85000000Y-116050000D01*
X140480000Y-118800000D02*
X140480000Y-118530000D01*
X194250000Y-140170000D02*
X194250000Y-141800000D01*
X164032158Y-140650000D02*
X164600000Y-140650000D01*
X91640000Y-132910000D02*
X92500000Y-132050000D01*
X102800000Y-78850000D02*
X102700000Y-78950000D01*
X91640000Y-145450000D02*
X91640000Y-132910000D01*
X181940000Y-134800000D02*
X182990000Y-133750000D01*
X126250000Y-139620000D02*
X128550000Y-137320000D01*
X156880000Y-129650000D02*
X156900000Y-129670000D01*
X124700000Y-108550000D02*
X123300000Y-107150000D01*
X155250000Y-113550000D02*
X154000000Y-112300000D01*
X92600000Y-146800000D02*
X92133500Y-146800000D01*
D100*
X94313882Y-148242500D02*
X93922000Y-148242500D01*
D101*
X157963361Y-133013361D02*
X157836639Y-133013361D01*
X160092842Y-134300000D02*
X159582500Y-134810342D01*
D100*
X98000000Y-150800000D02*
X98000000Y-151517500D01*
X95444500Y-148244500D02*
X94315882Y-148244500D01*
D102*
X134450000Y-128000000D02*
X134500000Y-128050000D01*
X192274879Y-122303855D02*
X192274879Y-122883855D01*
D103*
X178182842Y-142375000D02*
X177582500Y-142975342D01*
D102*
X168858750Y-141741250D02*
X168800000Y-141800000D01*
X163412500Y-139560342D02*
X163412500Y-140030342D01*
X122750000Y-128000000D02*
X122250000Y-128500000D01*
X198380000Y-134930000D02*
X198500000Y-135050000D01*
D101*
X159582500Y-134810342D02*
X159582500Y-136062842D01*
D102*
X192274879Y-122883855D02*
X191854879Y-123303855D01*
D101*
X192022379Y-119183513D02*
X192022379Y-120283513D01*
D102*
X137540000Y-130635000D02*
X137875000Y-130300000D01*
D100*
X94315882Y-148244500D02*
X94313882Y-148242500D01*
D101*
X176997000Y-142975342D02*
X177582500Y-142975342D01*
D103*
X180500000Y-126300000D02*
X181351094Y-126300000D01*
D102*
X130830000Y-131220000D02*
X130830000Y-130630000D01*
D101*
X192022379Y-120283513D02*
X192022379Y-121383513D01*
D102*
X163712000Y-138263000D02*
X163712000Y-139260842D01*
X141000000Y-133425000D02*
X141000000Y-133800000D01*
D100*
X93922000Y-148188500D02*
X93550000Y-147816500D01*
D102*
X140480000Y-120570000D02*
X140480000Y-119800000D01*
X177128000Y-142520842D02*
X177582500Y-142975342D01*
X163712000Y-139260842D02*
X163412500Y-139560342D01*
X154000000Y-112300000D02*
X154000000Y-111930000D01*
D101*
X158582500Y-128060342D02*
X159582500Y-128060342D01*
%TO.N,BREG*%
D100*
X134500000Y-117050000D02*
X136250000Y-117050000D01*
X131550000Y-118000000D02*
X131550000Y-118600000D01*
X134500000Y-117050000D02*
X132675000Y-117050000D01*
X136250000Y-117050000D02*
X136550000Y-117350000D01*
X132500000Y-117050000D02*
X131550000Y-118000000D01*
%TO.N,Cell3+{slash}4-*%
X124580000Y-121630000D02*
X124600000Y-121610000D01*
X126050000Y-127000000D02*
X124630000Y-127000000D01*
X124600000Y-121610000D02*
X124600000Y-120050000D01*
X124580000Y-126950000D02*
X124580000Y-121630000D01*
X124600000Y-120050000D02*
X123350000Y-118800000D01*
X123350000Y-118800000D02*
X115750000Y-118800000D01*
X124630000Y-127000000D02*
X124580000Y-126950000D01*
%TO.N,Cell2+{slash}3-*%
X124750000Y-128800000D02*
X125657003Y-128800000D01*
X123620000Y-126950000D02*
X123620000Y-126420000D01*
X125657003Y-128800000D02*
X126550000Y-127907003D01*
X121250000Y-124050000D02*
X115500000Y-124050000D01*
X126550000Y-127907003D02*
X126550000Y-127000000D01*
X123620000Y-126420000D02*
X121250000Y-124050000D01*
X123620000Y-127670000D02*
X124750000Y-128800000D01*
X123620000Y-126950000D02*
X123620000Y-127670000D01*
%TO.N,Cell1+{slash}2-*%
D102*
X125390000Y-129760000D02*
X127050000Y-128100000D01*
X118710000Y-129760000D02*
X115500000Y-126550000D01*
X127050000Y-128100000D02*
X127050000Y-127000000D01*
X118710000Y-129760000D02*
X125390000Y-129760000D01*
%TO.N,Cell1-*%
X127550000Y-128152250D02*
X127550000Y-127000000D01*
X124632250Y-131070000D02*
X127550000Y-128152250D01*
X115500000Y-129050000D02*
X117520000Y-131070000D01*
X117520000Y-131070000D02*
X124632250Y-131070000D01*
%TO.N,SRN*%
X128350000Y-134810000D02*
X128350000Y-134400000D01*
X128550000Y-135010000D02*
X128350000Y-134810000D01*
X128330000Y-130550000D02*
X128330000Y-129540000D01*
X128350000Y-134400000D02*
X128330000Y-134380000D01*
X128570000Y-127020000D02*
X128550000Y-127000000D01*
X127760000Y-134810000D02*
X127750000Y-134800000D01*
X128550000Y-136300000D02*
X128550000Y-135010000D01*
X128330000Y-134380000D02*
X128330000Y-130550000D01*
X128350000Y-134810000D02*
X127760000Y-134810000D01*
X128330000Y-129540000D02*
X128570000Y-129300000D01*
X128350000Y-134810000D02*
X127740000Y-134810000D01*
X127740000Y-134810000D02*
X126500000Y-136050000D01*
X128570000Y-129300000D02*
X128570000Y-127020000D01*
%TO.N,SRP*%
X129750000Y-130570000D02*
X129770000Y-130550000D01*
X129550000Y-135010000D02*
X129750000Y-134810000D01*
X129750000Y-134810000D02*
X130260000Y-134810000D01*
X129530000Y-129300000D02*
X129530000Y-127020000D01*
X129550000Y-136290000D02*
X129550000Y-135010000D01*
X129770000Y-129540000D02*
X129530000Y-129300000D01*
X130260000Y-134810000D02*
X131500000Y-136050000D01*
X129750000Y-134810000D02*
X129750000Y-130570000D01*
X129530000Y-127020000D02*
X129550000Y-127000000D01*
X129770000Y-130550000D02*
X129770000Y-129540000D01*
%TO.N,TS2*%
D100*
X132519118Y-129994500D02*
X135460000Y-132935382D01*
X136000000Y-136630000D02*
X136000000Y-137550000D01*
X132078618Y-130000000D02*
X132250000Y-130000000D01*
X132250000Y-130000000D02*
X132255500Y-129994500D01*
X135460000Y-136090000D02*
X136000000Y-136630000D01*
X135460000Y-132935382D02*
X135460000Y-134550000D01*
X132255500Y-129994500D02*
X132519118Y-129994500D01*
X135460000Y-136090000D02*
X135460000Y-134550000D01*
X130550000Y-127000000D02*
X130550000Y-128471382D01*
X130550000Y-128471382D02*
X132078618Y-130000000D01*
%TO.N,TS3*%
X134000000Y-129550000D02*
X135160000Y-129550000D01*
X135160000Y-129550000D02*
X135660000Y-129050000D01*
X135160000Y-129550000D02*
X135000000Y-129710000D01*
X135000000Y-129710000D02*
X135000000Y-130800000D01*
X131050000Y-128154000D02*
X132446000Y-129550000D01*
X131050000Y-127000000D02*
X131050000Y-128154000D01*
X132446000Y-129550000D02*
X134000000Y-129550000D01*
%TO.N,Net-(U1-REG18)*%
X132500000Y-127070000D02*
X132410000Y-127070000D01*
X132410000Y-127070000D02*
X132340000Y-127000000D01*
X131550000Y-127000000D02*
X132340000Y-127000000D01*
%TO.N,ALERT*%
X144750000Y-127550000D02*
X144700000Y-127600000D01*
X167250000Y-139875000D02*
X165750000Y-141375000D01*
X147900000Y-134050000D02*
X147900000Y-135150000D01*
X151500000Y-138750000D02*
X152600000Y-138750000D01*
X143400000Y-125550000D02*
X133000000Y-125550000D01*
X152600000Y-138750000D02*
X152900000Y-139050000D01*
X152900000Y-139050000D02*
X152900000Y-141150000D01*
X165750000Y-141375000D02*
X165750000Y-141945000D01*
X144900000Y-129550000D02*
X146600000Y-129550000D01*
X144700000Y-127600000D02*
X144700000Y-129350000D01*
X144700000Y-129350000D02*
X144700000Y-130850000D01*
X144700000Y-130850000D02*
X147900000Y-134050000D01*
X167250000Y-138225000D02*
X167250000Y-139875000D01*
X165750000Y-141945000D02*
X164805000Y-141945000D01*
X144700000Y-129350000D02*
X144900000Y-129550000D01*
X147900000Y-135150000D02*
X151500000Y-138750000D01*
%TO.N,SCL*%
X134350000Y-125050000D02*
X133000000Y-125050000D01*
X156250000Y-121560342D02*
X156250000Y-120600000D01*
X149239658Y-121560342D02*
X146050000Y-124750000D01*
X134650000Y-124750000D02*
X134350000Y-125050000D01*
X156250000Y-121560342D02*
X149239658Y-121560342D01*
X146050000Y-124750000D02*
X134650000Y-124750000D01*
X156250000Y-120600000D02*
X157000000Y-119850000D01*
%TO.N,SDA*%
X132863382Y-126242500D02*
X132970882Y-126350000D01*
X156000000Y-123050000D02*
X156200000Y-123250000D01*
X145450000Y-126350000D02*
X148750000Y-123050000D01*
X131782500Y-124860497D02*
X131782500Y-125739503D01*
X131782500Y-125739503D02*
X132285497Y-126242500D01*
X132092997Y-124550000D02*
X131782500Y-124860497D01*
X156200000Y-123250000D02*
X156200000Y-124250000D01*
X148750000Y-123050000D02*
X156000000Y-123050000D01*
X156200000Y-124250000D02*
X156900000Y-124950000D01*
X132970882Y-126350000D02*
X145450000Y-126350000D01*
X133000000Y-124550000D02*
X132092997Y-124550000D01*
X132285497Y-126242500D02*
X132863382Y-126242500D01*
%TO.N,HDQ*%
X122500000Y-122050000D02*
X123250000Y-121300000D01*
X122670000Y-120720000D02*
X122170000Y-120720000D01*
X122500000Y-122550000D02*
X122500000Y-122050000D01*
X129750000Y-124050000D02*
X127000000Y-121300000D01*
X133000000Y-124050000D02*
X129750000Y-124050000D01*
X123250000Y-121300000D02*
X122670000Y-120720000D01*
%TO.N,CFETOFF*%
X157027842Y-151450000D02*
X158582500Y-149895342D01*
X133000000Y-123550000D02*
X131250000Y-123550000D01*
X152000000Y-151450000D02*
X157027842Y-151450000D01*
X158582500Y-149895342D02*
X162654658Y-149895342D01*
X151400000Y-150850000D02*
X152000000Y-151450000D01*
X151400000Y-142250000D02*
X151400000Y-150850000D01*
X158582500Y-149895342D02*
X158627842Y-149850000D01*
X150100000Y-140950000D02*
X151400000Y-142250000D01*
X131250000Y-123550000D02*
X131000000Y-123300000D01*
X162654658Y-149895342D02*
X162700000Y-149850000D01*
%TO.N,DFETOFF*%
X134373240Y-123419738D02*
X134003502Y-123050000D01*
X150500000Y-143800000D02*
X149250000Y-143800000D01*
X149250000Y-143800000D02*
X149100000Y-143650000D01*
X134003502Y-123050000D02*
X133000000Y-123050000D01*
X134373240Y-124169794D02*
X134373240Y-123419738D01*
X134346517Y-124196517D02*
X134373240Y-124169794D01*
X134373240Y-124196517D02*
X134346517Y-124196517D01*
%TO.N,DCHG*%
X166750000Y-138225000D02*
X166750000Y-137000000D01*
X133000000Y-122550000D02*
X131500000Y-122550000D01*
%TO.N,DDSG*%
X134700000Y-122623277D02*
X134700000Y-122750000D01*
X133000000Y-122050000D02*
X134126723Y-122050000D01*
X159850000Y-133800000D02*
X161325000Y-133800000D01*
X158900000Y-134750000D02*
X159850000Y-133800000D01*
X134126723Y-122050000D02*
X134700000Y-122623277D01*
%TO.N,RST_SHUT*%
X134500000Y-121550000D02*
X134900000Y-121950000D01*
X133000000Y-121550000D02*
X134500000Y-121550000D01*
X158944499Y-132905500D02*
X159744500Y-132905500D01*
X159744500Y-132905500D02*
X160350000Y-132300000D01*
X160350000Y-132300000D02*
X161325000Y-132300000D01*
%TO.N,REG2*%
X135360000Y-121050000D02*
X133000000Y-121050000D01*
X135860000Y-121550000D02*
X135360000Y-121050000D01*
%TO.N,REG1*%
D101*
X133000000Y-120550000D02*
X137560000Y-120550000D01*
D104*
X145500000Y-123550000D02*
X144034250Y-122084250D01*
X151362500Y-125580000D02*
X151482500Y-125700000D01*
X142100000Y-121600000D02*
X142900000Y-120800000D01*
X140500000Y-122084250D02*
X142100000Y-122084250D01*
X142100000Y-122084250D02*
X142100000Y-121600000D01*
X148500000Y-125550000D02*
X148530000Y-125580000D01*
D101*
X137560000Y-120550000D02*
X138060000Y-121050000D01*
D104*
X148530000Y-125580000D02*
X151362500Y-125580000D01*
X138060000Y-121050000D02*
X138060000Y-121428500D01*
X138715750Y-122084250D02*
X140500000Y-122084250D01*
X144034250Y-122084250D02*
X142100000Y-122084250D01*
X138060000Y-121428500D02*
X138715750Y-122084250D01*
%TO.N,REGIN*%
X135500000Y-120050000D02*
X136000000Y-119550000D01*
X133000000Y-120050000D02*
X135500000Y-120050000D01*
X139270000Y-119550000D02*
X139520000Y-119800000D01*
X137500000Y-119550000D02*
X139270000Y-119550000D01*
X136000000Y-119550000D02*
X137500000Y-119550000D01*
%TO.N,Net-(U1-FUSE)*%
D100*
X130500000Y-121550000D02*
X131050000Y-121000000D01*
X122500000Y-82950000D02*
X126600000Y-78850000D01*
X129300000Y-121550000D02*
X130500000Y-121550000D01*
X131050000Y-121000000D02*
X131050000Y-118600000D01*
X126600000Y-78850000D02*
X129900000Y-78850000D01*
X122500000Y-87750000D02*
X122500000Y-82950000D01*
%TO.N,PDSG*%
X130550000Y-117300000D02*
X130700000Y-117150000D01*
X130550000Y-118600000D02*
X130550000Y-117300000D01*
X160400000Y-87550000D02*
X161700000Y-86250000D01*
X160300000Y-87550000D02*
X160400000Y-87550000D01*
%TO.N,PCHG*%
X136000000Y-84550000D02*
X136000000Y-85650000D01*
X136000000Y-85650000D02*
X135500000Y-86150000D01*
X130050000Y-118600000D02*
X130050000Y-113300000D01*
X130050000Y-113300000D02*
X128300000Y-111550000D01*
%TO.N,LD*%
X137500000Y-108350000D02*
X137500000Y-106550000D01*
X129550000Y-119750362D02*
X129628883Y-119829245D01*
X138850000Y-105200000D02*
X137500000Y-106550000D01*
X140500000Y-105200000D02*
X138850000Y-105200000D01*
X129550000Y-118600000D02*
X129550000Y-119750362D01*
%TO.N,PACK*%
X129050000Y-118600000D02*
X129050000Y-115400000D01*
X157500000Y-79550000D02*
X156000000Y-78050000D01*
X129050000Y-115400000D02*
X129100000Y-115350000D01*
X156000000Y-78050000D02*
X159500000Y-78050000D01*
%TO.N,DSG*%
X145500000Y-116950000D02*
X143270000Y-116950000D01*
X128550000Y-120200000D02*
X129100000Y-120750000D01*
X145500000Y-116950000D02*
X148400000Y-116950000D01*
X139700000Y-115150000D02*
X141270000Y-115150000D01*
X141270000Y-115150000D02*
X141370000Y-115050000D01*
X128550000Y-118600000D02*
X128550000Y-120200000D01*
X143270000Y-116950000D02*
X141370000Y-115050000D01*
%TO.N,CHG*%
X154300000Y-86550000D02*
X154329000Y-86550000D01*
X155300000Y-87521000D02*
X155300000Y-87950000D01*
X127550000Y-114700000D02*
X128300000Y-113950000D01*
X154329000Y-86550000D02*
X155300000Y-87521000D01*
X127550000Y-118600000D02*
X127550000Y-114700000D01*
%TO.N,CP1*%
X126100000Y-114950000D02*
X127050000Y-115900000D01*
X126100000Y-114950000D02*
X126100000Y-113150000D01*
X127050000Y-115900000D02*
X127050000Y-118600000D01*
X126100000Y-113150000D02*
X126300000Y-112950000D01*
%TO.N,BAT*%
X124550000Y-114950000D02*
X126550000Y-116950000D01*
X123100000Y-109550000D02*
X123100000Y-113150000D01*
X123300000Y-109350000D02*
X123100000Y-109550000D01*
X121100000Y-109350000D02*
X123100000Y-109350000D01*
X123300000Y-109150000D02*
X123300000Y-109350000D01*
X123100000Y-113500000D02*
X124550000Y-114950000D01*
X126550000Y-116950000D02*
X126550000Y-118600000D01*
X123100000Y-109350000D02*
X123300000Y-109150000D01*
X123100000Y-113150000D02*
X123100000Y-113500000D01*
%TO.N,Cell4+*%
X126050000Y-118600000D02*
X125170000Y-117720000D01*
X118300000Y-115600000D02*
X118250000Y-115550000D01*
X125170000Y-117720000D02*
X120750000Y-117720000D01*
X118250000Y-115550000D02*
X115750000Y-115550000D01*
X120750000Y-117720000D02*
X120420000Y-117720000D01*
X120420000Y-117720000D02*
X118300000Y-115600000D01*
%TO.N,MCUCFETOFF*%
X163750000Y-136392842D02*
X163750000Y-134854565D01*
X153582500Y-149895342D02*
X156327842Y-147150000D01*
X156327842Y-147150000D02*
X157500000Y-147150000D01*
X157500000Y-147150000D02*
X160500000Y-144150000D01*
X148950000Y-149550000D02*
X148750000Y-149750000D01*
X150500000Y-149550000D02*
X148950000Y-149550000D01*
X162195435Y-133300000D02*
X161325000Y-133300000D01*
X163750000Y-134854565D02*
X162195435Y-133300000D01*
X162100000Y-139750000D02*
X162100000Y-138042842D01*
X162100000Y-138042842D02*
X163750000Y-136392842D01*
X163300000Y-140950000D02*
X162100000Y-139750000D01*
%TO.N,VDD*%
D103*
X157700000Y-128350000D02*
X158250342Y-128900342D01*
X193522379Y-120783513D02*
X193522379Y-118798513D01*
D101*
X161325000Y-128800000D02*
X159682842Y-128800000D01*
D103*
X156225000Y-136975000D02*
X158650000Y-139400000D01*
X163200000Y-145250000D02*
X162659500Y-145790500D01*
X172830000Y-127295000D02*
X174250000Y-125875000D01*
X156225000Y-136975000D02*
X152900000Y-133650000D01*
X163834500Y-118465500D02*
X162250000Y-120050000D01*
D101*
X164250000Y-138225000D02*
X164250000Y-139231106D01*
D103*
X170845342Y-152895342D02*
X185582500Y-152895342D01*
D101*
X156225000Y-136975000D02*
X158214316Y-136975000D01*
D100*
X165750000Y-142805000D02*
X165750000Y-143875000D01*
D103*
X171582500Y-139640342D02*
X172015342Y-139640342D01*
X174355000Y-140287842D02*
X174582500Y-140060342D01*
D101*
X162822158Y-136320684D02*
X162162500Y-136980342D01*
X162429316Y-134800000D02*
X161325000Y-134800000D01*
X170750000Y-138225000D02*
X170750000Y-137062842D01*
D103*
X176015000Y-140050342D02*
X176387500Y-140422842D01*
D101*
X170750000Y-138225000D02*
X170750000Y-139307842D01*
X164300000Y-146325000D02*
X164937500Y-145687500D01*
D103*
X154582500Y-125921000D02*
X154361500Y-125700000D01*
X192922379Y-121383513D02*
X193522379Y-120783513D01*
X191372379Y-119183513D02*
X191372379Y-118504513D01*
D100*
X161949658Y-122305000D02*
X163250000Y-122305000D01*
D101*
X164250000Y-139231106D02*
X164252500Y-139233606D01*
X160750000Y-123920342D02*
X160872158Y-124042500D01*
D103*
X177659500Y-118465500D02*
X177659500Y-125875000D01*
D101*
X163082500Y-125000000D02*
X163082500Y-126707500D01*
D103*
X154082500Y-127850000D02*
X154582500Y-127350000D01*
X154361500Y-125700000D02*
X155011500Y-126350000D01*
X153200000Y-127850000D02*
X154082500Y-127850000D01*
X191372379Y-118504513D02*
X191593379Y-118283513D01*
X191593379Y-118283513D02*
X193007379Y-118283513D01*
X192922379Y-121383513D02*
X192672379Y-121383513D01*
X158300000Y-126342842D02*
X159082500Y-125560342D01*
X174582500Y-140060342D02*
X176005000Y-140060342D01*
X174250000Y-125875000D02*
X177659500Y-125875000D01*
X151750000Y-127517500D02*
X152082500Y-127850000D01*
X161400000Y-125000000D02*
X160839658Y-125560342D01*
X193522379Y-118798513D02*
X193007379Y-118283513D01*
D101*
X164252500Y-139560342D02*
X164252500Y-139233606D01*
D103*
X163200000Y-145250000D02*
X170845342Y-152895342D01*
X154582500Y-127350000D02*
X154582500Y-125921000D01*
X151482500Y-127250000D02*
X151750000Y-127517500D01*
X163082500Y-125000000D02*
X161400000Y-125000000D01*
D101*
X159582500Y-128900342D02*
X158582500Y-128900342D01*
X164250000Y-138225000D02*
X164250000Y-136800000D01*
X177659500Y-125875000D02*
X177659500Y-125890500D01*
D103*
X151482500Y-127250000D02*
X151482500Y-127000000D01*
D101*
X169812158Y-136125000D02*
X164925000Y-136125000D01*
X156082500Y-143895342D02*
X156082500Y-142042500D01*
X170750000Y-139307842D02*
X171082500Y-139640342D01*
X162822158Y-135192842D02*
X162822158Y-136320684D01*
D103*
X152900000Y-133650000D02*
X152900000Y-128150000D01*
D100*
X161917500Y-122272842D02*
X161949658Y-122305000D01*
D101*
X163082500Y-126707500D02*
X163250000Y-126875000D01*
D103*
X157700000Y-126350000D02*
X158300000Y-126350000D01*
X152800000Y-127850000D02*
X153200000Y-127850000D01*
X160872158Y-124042500D02*
X161750000Y-124042500D01*
X158250342Y-128900342D02*
X158582500Y-128900342D01*
X176387500Y-140422842D02*
X176387500Y-142427842D01*
X160839658Y-125560342D02*
X160750000Y-125560342D01*
D101*
X158650000Y-139475000D02*
X158650000Y-139400000D01*
X156082500Y-142042500D02*
X158650000Y-139475000D01*
D103*
X160750000Y-123920342D02*
X160750000Y-125560342D01*
D101*
X158214316Y-136975000D02*
X158219658Y-136980342D01*
D103*
X159082500Y-125560342D02*
X160750000Y-125560342D01*
X159582500Y-141632500D02*
X163200000Y-145250000D01*
X159582500Y-140305000D02*
X159582500Y-141632500D01*
D101*
X159682842Y-128800000D02*
X159582500Y-128900342D01*
D103*
X190113721Y-116803855D02*
X179321145Y-116803855D01*
X160187342Y-145790500D02*
X156082500Y-149895342D01*
X158300000Y-126350000D02*
X158300000Y-126342842D01*
X158650000Y-139400000D02*
X159260000Y-140010000D01*
X187542500Y-150935342D02*
X187542500Y-150395342D01*
X162659500Y-145790500D02*
X160187342Y-145790500D01*
X172015342Y-139640342D02*
X173335342Y-140960342D01*
X173335342Y-140960342D02*
X174355000Y-140960342D01*
X174355000Y-140960342D02*
X174355000Y-140287842D01*
X159260000Y-140010000D02*
X159582500Y-140010000D01*
D101*
X159582500Y-136980342D02*
X158582500Y-136980342D01*
D103*
X185582500Y-152895342D02*
X187542500Y-150935342D01*
X154361500Y-125700000D02*
X153682500Y-125700000D01*
D101*
X162714658Y-135085342D02*
X162822158Y-135192842D01*
X162162500Y-136980342D02*
X159582500Y-136980342D01*
D100*
X171582500Y-139640342D02*
X171082500Y-139640342D01*
D101*
X172675000Y-128800000D02*
X172675000Y-128030000D01*
X170750000Y-137062842D02*
X169812158Y-136125000D01*
D103*
X177659500Y-118465500D02*
X163834500Y-118465500D01*
D100*
X165750000Y-143875000D02*
X166250000Y-144375000D01*
D103*
X155011500Y-126350000D02*
X157700000Y-126350000D01*
D101*
X158219658Y-136980342D02*
X158582500Y-136980342D01*
D103*
X152900000Y-128150000D02*
X153200000Y-127850000D01*
X179321145Y-116803855D02*
X177659500Y-118465500D01*
X176387500Y-142427842D02*
X175655000Y-143160342D01*
D101*
X161750000Y-124042500D02*
X161917500Y-123875000D01*
D103*
X191593379Y-118283513D02*
X190113721Y-116803855D01*
X152082500Y-127850000D02*
X152800000Y-127850000D01*
X172830000Y-127875000D02*
X172830000Y-127295000D01*
D101*
X172675000Y-128030000D02*
X172830000Y-127875000D01*
X164925000Y-136125000D02*
X164250000Y-136800000D01*
D103*
X157700000Y-126350000D02*
X157700000Y-128350000D01*
X177659500Y-125890500D02*
X175250000Y-128300000D01*
D101*
X162714658Y-135085342D02*
X162429316Y-134800000D01*
%TO.N,MCUDFETOFF*%
D100*
X155500000Y-145150000D02*
X157327842Y-145150000D01*
X160478618Y-132800000D02*
X159928618Y-133350000D01*
X154800000Y-138950000D02*
X154800000Y-144450000D01*
X157327842Y-145150000D02*
X158582500Y-143895342D01*
X154800000Y-138050000D02*
X154800000Y-138650000D01*
X161325000Y-132800000D02*
X160478618Y-132800000D01*
X154800000Y-144450000D02*
X155500000Y-145150000D01*
X153200000Y-137350000D02*
X154800000Y-138950000D01*
X154700000Y-137950000D02*
X154800000Y-138050000D01*
X159426723Y-133350000D02*
X159026723Y-133750000D01*
X159928618Y-133350000D02*
X159426723Y-133350000D01*
X154800000Y-138650000D02*
X154800000Y-138950000D01*
X159026723Y-133750000D02*
X158900000Y-133750000D01*
%TO.N,PWR+*%
D105*
X114500000Y-82650000D02*
X116900000Y-82650000D01*
X116900000Y-82650000D02*
X121500000Y-78050000D01*
D106*
X126500000Y-106550000D02*
X127130000Y-106550000D01*
X110000000Y-105550000D02*
X111000000Y-106550000D01*
X127130000Y-106550000D02*
X127500000Y-106920000D01*
X112300000Y-109350000D02*
X111000000Y-108050000D01*
X111000000Y-108050000D02*
X111000000Y-106550000D01*
X113670000Y-109350000D02*
X112300000Y-109350000D01*
X108000000Y-111050000D02*
X111000000Y-108050000D01*
D100*
X127000000Y-72050000D02*
X121850000Y-72050000D01*
D105*
X121500000Y-72700000D02*
X121350000Y-72550000D01*
X121500000Y-78050000D02*
X121500000Y-72700000D01*
D106*
X107380000Y-105550000D02*
X110000000Y-105550000D01*
D100*
X121850000Y-72050000D02*
X121350000Y-72550000D01*
%TO.N,USART1_RX*%
X197500000Y-142300000D02*
X198579500Y-141220500D01*
X172675000Y-131300000D02*
X173987158Y-131300000D01*
X179082500Y-136395342D02*
X194750000Y-136395342D01*
X196870000Y-137170000D02*
X197000000Y-137170000D01*
X198579500Y-138749500D02*
X197000000Y-137170000D01*
X196095342Y-136395342D02*
X196870000Y-137170000D01*
X198579500Y-141220500D02*
X198579500Y-138749500D01*
X194736389Y-136381731D02*
X194750000Y-136395342D01*
X194750000Y-136395342D02*
X196095342Y-136395342D01*
X173987158Y-131300000D02*
X179082500Y-136395342D01*
X194736389Y-134826579D02*
X194736389Y-136381731D01*
%TO.N,Net-(D15-K)*%
D107*
X160760000Y-112550000D02*
X160760000Y-111465000D01*
X160760000Y-111465000D02*
X161675000Y-110550000D01*
%TO.N,Net-(DD1-K)*%
D100*
X144690000Y-107550000D02*
X145500000Y-106740000D01*
X145500000Y-112550000D02*
X148000000Y-115050000D01*
X146100000Y-113150000D02*
X143000000Y-110050000D01*
X148000000Y-115050000D02*
X149900000Y-116950000D01*
X151800000Y-115050000D02*
X161000000Y-115050000D01*
X143000000Y-107050000D02*
X143000000Y-105200000D01*
X143000000Y-110050000D02*
X143000000Y-107050000D01*
X143000000Y-107050000D02*
X143000000Y-107550000D01*
X145500000Y-112550000D02*
X146100000Y-113150000D01*
X167500000Y-108550000D02*
X161000000Y-115050000D01*
X143000000Y-107550000D02*
X144690000Y-107550000D01*
X151800000Y-115050000D02*
X149900000Y-116950000D01*
X168500000Y-108550000D02*
X167500000Y-108550000D01*
%TO.N,V3*%
X106000000Y-118050000D02*
X105000000Y-118050000D01*
X105000000Y-118050000D02*
X103000000Y-116050000D01*
X103000000Y-116050000D02*
X103000000Y-113550000D01*
X75500000Y-121429250D02*
X110870750Y-121429250D01*
X110870750Y-121429250D02*
X113500000Y-118800000D01*
X101000000Y-134050000D02*
X98500000Y-136550000D01*
%TO.N,OSC_IN*%
X154992500Y-128632500D02*
X154100000Y-129525000D01*
X156900000Y-128830000D02*
X157180000Y-128830000D01*
X156592500Y-128632500D02*
X154992500Y-128632500D01*
X157180000Y-128830000D02*
X159150000Y-130800000D01*
X159150000Y-130800000D02*
X161325000Y-130800000D01*
X156790000Y-128830000D02*
X156592500Y-128632500D01*
X156900000Y-128830000D02*
X156790000Y-128830000D01*
%TO.N,V_SWD*%
D103*
X178450000Y-144895342D02*
X179680000Y-143665342D01*
X175179906Y-144895342D02*
X178450000Y-144895342D01*
D101*
X173744566Y-143648276D02*
X172582500Y-144810342D01*
D103*
X174355000Y-143648276D02*
X174355000Y-144070435D01*
D100*
X179530000Y-143815342D02*
X179680000Y-143665342D01*
D101*
X174355000Y-143648276D02*
X173744566Y-143648276D01*
D100*
X177582500Y-143815342D02*
X179530000Y-143815342D01*
D103*
X174355000Y-144070435D02*
X175179906Y-144895342D01*
X174355000Y-143160342D02*
X174355000Y-143648276D01*
%TO.N,Net-(BQ296115DSGR1-VDD)*%
D100*
X104500000Y-141550000D02*
X104500000Y-138560000D01*
X104500000Y-141550000D02*
X108540000Y-141550000D01*
X98250000Y-147800000D02*
X94500000Y-147800000D01*
X104500000Y-141550000D02*
X98250000Y-147800000D01*
%TO.N,Net-(BQ296115DSGR1-V3)*%
D102*
X98500000Y-143550000D02*
X98500000Y-141550000D01*
X98040000Y-144050000D02*
X95290000Y-146800000D01*
X98040000Y-144010000D02*
X98500000Y-143550000D01*
X98500000Y-141550000D02*
X98500000Y-139510000D01*
X95290000Y-146800000D02*
X94500000Y-146800000D01*
X98040000Y-144050000D02*
X98040000Y-144010000D01*
%TO.N,Net-(U2-PB6)*%
D100*
X163250000Y-121445000D02*
X167967158Y-121445000D01*
X167110342Y-125782500D02*
X168462500Y-124430342D01*
X168462500Y-121940342D02*
X168462500Y-123560342D01*
X166989658Y-125782500D02*
X167000000Y-125792842D01*
X163137500Y-121332500D02*
X163250000Y-121445000D01*
X166510342Y-125782500D02*
X166989658Y-125782500D01*
X166282500Y-126610342D02*
X166282500Y-126010342D01*
X166250000Y-126875000D02*
X166250000Y-126642842D01*
X168462500Y-124430342D02*
X168462500Y-123560342D01*
X167010342Y-125782500D02*
X167110342Y-125782500D01*
X167000000Y-125792842D02*
X167010342Y-125782500D01*
X167967158Y-121445000D02*
X168462500Y-121940342D01*
X166250000Y-126642842D02*
X166282500Y-126610342D01*
X158717500Y-121332500D02*
X158489658Y-121560342D01*
X158717500Y-121332500D02*
X163137500Y-121332500D01*
X166282500Y-126010342D02*
X166510342Y-125782500D01*
X158489658Y-121560342D02*
X157650000Y-121560342D01*
%TO.N,Net-(U2-PB2)*%
X167998750Y-140060342D02*
X167998750Y-139808408D01*
X167998750Y-139808408D02*
X168750000Y-139057158D01*
X168096250Y-140032842D02*
X168068750Y-140060342D01*
X168750000Y-139057158D02*
X168750000Y-138225000D01*
%TO.N,Net-(PCc2-Pad1)*%
X140000000Y-78550000D02*
X141950000Y-78550000D01*
%TO.N,Net-(LED2-A)*%
X173500000Y-105550000D02*
X176500000Y-105550000D01*
%TO.N,DPACK+*%
D102*
X155250000Y-108050000D02*
X153027500Y-105827500D01*
X157500000Y-108050000D02*
X155250000Y-108050000D01*
X162500000Y-106800000D02*
X162500000Y-103300000D01*
X157500000Y-108050000D02*
X161250000Y-108050000D01*
X153027500Y-105827500D02*
X153027500Y-105390000D01*
X161250000Y-108050000D02*
X162500000Y-106800000D01*
%TO.N,Net-(U2-NRST)*%
D100*
X159750000Y-131800000D02*
X159600000Y-131950000D01*
X179797158Y-149650000D02*
X180542500Y-150395342D01*
X180522158Y-150875000D02*
X180542500Y-150895342D01*
X162800000Y-131800000D02*
X161325000Y-131800000D01*
X177700000Y-149650000D02*
X179797158Y-149650000D01*
X159837158Y-139150000D02*
X171562158Y-150875000D01*
X163200000Y-132200000D02*
X162800000Y-131800000D01*
X161325000Y-131800000D02*
X159750000Y-131800000D01*
X159582500Y-139150000D02*
X159582500Y-138217500D01*
X159582500Y-138217500D02*
X159800000Y-138000000D01*
X159582500Y-139150000D02*
X159837158Y-139150000D01*
X180542500Y-150895342D02*
X180542500Y-150395342D01*
X171562158Y-150875000D02*
X180522158Y-150875000D01*
%TO.N,Net-(ChD2-K)*%
X154500000Y-84850000D02*
X154300000Y-85050000D01*
X153200000Y-87650000D02*
X153100000Y-87550000D01*
X154300000Y-85050000D02*
X152650000Y-85050000D01*
X152190000Y-85860000D02*
X152190000Y-87550000D01*
X153100000Y-87550000D02*
X152190000Y-87550000D01*
X152550000Y-85150000D02*
X152550000Y-85500000D01*
X154500000Y-83150000D02*
X154500000Y-84850000D01*
X139020000Y-90484000D02*
X139020000Y-90020000D01*
X152550000Y-85500000D02*
X152190000Y-85860000D01*
X152650000Y-85050000D02*
X152550000Y-85150000D01*
X153200000Y-88250000D02*
X153200000Y-87650000D01*
%TO.N,CD*%
X134040000Y-89810000D02*
X132100000Y-91750000D01*
X134040000Y-82050000D02*
X134040000Y-89810000D01*
X138450000Y-78550000D02*
X137540000Y-78550000D01*
X148810000Y-87550000D02*
X150900000Y-85460000D01*
X155340000Y-80710000D02*
X158100000Y-80710000D01*
X139448197Y-91300000D02*
X139536262Y-91211935D01*
X139536262Y-91211935D02*
X140047816Y-91211935D01*
X131900000Y-91750000D02*
X132100000Y-91750000D01*
X140047816Y-91211935D02*
X140185881Y-91350000D01*
X132100000Y-91750000D02*
X132550000Y-91300000D01*
X145200000Y-91350000D02*
X149000000Y-87550000D01*
X161700000Y-81150000D02*
X164950000Y-81150000D01*
X140185881Y-91350000D02*
X145200000Y-91350000D01*
X161260000Y-80710000D02*
X161700000Y-81150000D01*
X132550000Y-91300000D02*
X139448197Y-91300000D01*
X150900000Y-85460000D02*
X150900000Y-85150000D01*
X158100000Y-80710000D02*
X161260000Y-80710000D01*
X150900000Y-85150000D02*
X155340000Y-80710000D01*
X137540000Y-78550000D02*
X134040000Y-82050000D01*
X126900000Y-96750000D02*
X131900000Y-91750000D01*
%TO.N,Net-(PdFet1-G)*%
X159440000Y-82800000D02*
X159050000Y-83190000D01*
X161700000Y-84750000D02*
X161700000Y-82800000D01*
X161700000Y-82800000D02*
X159440000Y-82800000D01*
X159050000Y-85300000D02*
X159100000Y-85350000D01*
X159050000Y-83190000D02*
X159050000Y-85300000D01*
%TO.N,Net-(Rshunt3-Pad1)*%
X104460000Y-105590000D02*
X104500000Y-105550000D01*
D106*
X103000000Y-105590000D02*
X104460000Y-105590000D01*
X101500000Y-105590000D02*
X103000000Y-105590000D01*
X103000000Y-105590000D02*
X103000000Y-111050000D01*
%TO.N,Net-(Rshunt2-Pad1)*%
X97000000Y-111050000D02*
X97000000Y-105590000D01*
X97000000Y-105590000D02*
X98620000Y-105590000D01*
X95500000Y-105590000D02*
X97000000Y-105590000D01*
%TO.N,Net-(XCreg1-Pad1)*%
D102*
X89000000Y-153690000D02*
X92600000Y-153690000D01*
X92600000Y-153690000D02*
X92960000Y-154050000D01*
%TO.N,Net-(BQ296115DSGR1-REG)*%
X89000000Y-147550000D02*
X84500000Y-147550000D01*
X89250000Y-147300000D02*
X89000000Y-147550000D01*
X92600000Y-147300000D02*
X89250000Y-147300000D01*
%TO.N,BAT+*%
X104500000Y-136550000D02*
X107500000Y-133550000D01*
X104500000Y-137540000D02*
X104500000Y-136550000D01*
%TO.N,Net-(U2-PB7)*%
D100*
X165750000Y-124847842D02*
X164462500Y-123560342D01*
X163962500Y-123060342D02*
X164462500Y-123560342D01*
X158729000Y-123250000D02*
X157600000Y-123250000D01*
X160750000Y-123060342D02*
X163962500Y-123060342D01*
X158918658Y-123060342D02*
X160750000Y-123060342D01*
X165750000Y-126875000D02*
X165750000Y-124847842D01*
X158918658Y-123060342D02*
X158729000Y-123250000D01*
%TO.N,V_REGUSB*%
D103*
X189172379Y-120783513D02*
X182872379Y-120783513D01*
D100*
X190925512Y-123475512D02*
X190925512Y-121874488D01*
D103*
X189834537Y-120783513D02*
X190925512Y-121874488D01*
X191354879Y-122303855D02*
X191372379Y-122286355D01*
D100*
X191500000Y-124050000D02*
X190925512Y-123475512D01*
D103*
X182872379Y-120783513D02*
X182522379Y-120783513D01*
D100*
X194250000Y-124050000D02*
X191500000Y-124050000D01*
D103*
X189172379Y-120783513D02*
X189834537Y-120783513D01*
X190925512Y-121874488D02*
X191354879Y-122303855D01*
X181222379Y-119483513D02*
X180522379Y-119483513D01*
X191372379Y-122286355D02*
X191372379Y-121383513D01*
X182522379Y-120783513D02*
X181222379Y-119483513D01*
%TO.N,USB_C_VBUS*%
D101*
X181272500Y-127056500D02*
X179727500Y-127056500D01*
D103*
X181022379Y-123083513D02*
X180522379Y-122583513D01*
D101*
X179727500Y-127079500D02*
X178601658Y-127079500D01*
D103*
X182872379Y-123083513D02*
X181022379Y-123083513D01*
D101*
X178601658Y-127079500D02*
X178250000Y-126727842D01*
X182366000Y-128150000D02*
X181272500Y-127056500D01*
X183550051Y-132950000D02*
X182990000Y-132950000D01*
X183550051Y-128150000D02*
X183760051Y-128360000D01*
X183915000Y-132740000D02*
X183760051Y-132740000D01*
X178250000Y-123375000D02*
X179041487Y-122583513D01*
X178250000Y-126727842D02*
X178250000Y-123375000D01*
X183910500Y-128360000D02*
X184570000Y-129019500D01*
X184570000Y-129019500D02*
X184570000Y-132085000D01*
X182990000Y-128150000D02*
X183550051Y-128150000D01*
X183760051Y-128360000D02*
X183910500Y-128360000D01*
X183760051Y-132740000D02*
X183550051Y-132950000D01*
X182990000Y-128150000D02*
X182366000Y-128150000D01*
X179727500Y-127056500D02*
X179727500Y-127079500D01*
X179041487Y-122583513D02*
X180522379Y-122583513D01*
X184570000Y-132085000D02*
X183915000Y-132740000D01*
%TO.N,Net-(D2-A1)*%
D107*
X151000000Y-109050000D02*
X151000000Y-109550000D01*
X151000000Y-105480000D02*
X151590000Y-104890000D01*
X154000000Y-109050000D02*
X157100000Y-109050000D01*
X151000000Y-106307000D02*
X150152500Y-105459500D01*
X151000000Y-106307000D02*
X151000000Y-105480000D01*
X151000000Y-109050000D02*
X151000000Y-106307000D01*
X151000000Y-109550000D02*
X149000000Y-111550000D01*
X157100000Y-109050000D02*
X157500000Y-109450000D01*
X151000000Y-109050000D02*
X154000000Y-109050000D01*
%TO.N,PACK-*%
D100*
X159100000Y-68350000D02*
X159300000Y-68150000D01*
X157500000Y-68350000D02*
X159100000Y-68350000D01*
D108*
X131850000Y-139610000D02*
X129550000Y-137310000D01*
D100*
X178700000Y-105550000D02*
X179900000Y-105550000D01*
X140450000Y-76250000D02*
X139800000Y-76250000D01*
X179900000Y-105550000D02*
X179900000Y-103750000D01*
D108*
X131850000Y-143550000D02*
X131850000Y-139610000D01*
D100*
X139800000Y-76250000D02*
X138900000Y-75350000D01*
X172775000Y-82550000D02*
X174100000Y-82550000D01*
%TO.N,Net-(Rshunt1-Pad1)*%
D106*
X91000000Y-105590000D02*
X91000000Y-111050000D01*
X89500000Y-105590000D02*
X91000000Y-105590000D01*
X91000000Y-105590000D02*
X92620000Y-105590000D01*
%TO.N,Net-(FFet1-D)*%
D109*
X124850000Y-91910000D02*
X124850000Y-88562035D01*
X124850000Y-88562035D02*
X124909500Y-88502535D01*
%TO.N,IDin*%
D100*
X150152500Y-104390000D02*
X150152500Y-102550000D01*
X153027500Y-104390000D02*
X153027500Y-102550000D01*
%TO.N,Net-(D1-A2)*%
D107*
X148000000Y-106450000D02*
X148000000Y-108950000D01*
X148000000Y-108950000D02*
X148100000Y-109050000D01*
%TO.N,Net-(DFet2-G)*%
D100*
X140500000Y-99480000D02*
X140500000Y-100080000D01*
X142340000Y-112350000D02*
X140300000Y-112350000D01*
X140300000Y-99280000D02*
X140500000Y-99480000D01*
X140300000Y-112350000D02*
X140100000Y-112150000D01*
%TO.N,Net-(U2-VCAP_1)*%
X170250000Y-139807842D02*
X170082500Y-139975342D01*
X169558500Y-139975342D02*
X169459250Y-140074592D01*
X170250000Y-138225000D02*
X170250000Y-139807842D01*
X169459250Y-140074592D02*
X169459250Y-143009250D01*
X169459250Y-143009250D02*
X170100000Y-143650000D01*
X170082500Y-139975342D02*
X169558500Y-139975342D01*
%TO.N,V1*%
X113459250Y-126509250D02*
X113500000Y-126550000D01*
X94000000Y-134050000D02*
X93250000Y-134800000D01*
X94000000Y-118050000D02*
X93000000Y-118050000D01*
X95500000Y-126509250D02*
X113459250Y-126509250D01*
X91000000Y-116050000D02*
X91000000Y-113550000D01*
X93250000Y-134800000D02*
X93250000Y-136530000D01*
X75500000Y-126509250D02*
X95500000Y-126509250D01*
X93000000Y-118050000D02*
X91000000Y-116050000D01*
%TO.N,Net-(DFet3-G)*%
X159000000Y-105050000D02*
X159000000Y-102040000D01*
X159000000Y-102040000D02*
X159020000Y-102020000D01*
%TO.N,Net-(BD1-K)*%
X116930000Y-109350000D02*
X119450000Y-109350000D01*
X118700000Y-106780000D02*
X118700000Y-108600000D01*
X118700000Y-108600000D02*
X119450000Y-109350000D01*
%TO.N,V4*%
D102*
X101960000Y-136590000D02*
X106500000Y-132050000D01*
D100*
X108000000Y-116050000D02*
X108000000Y-113550000D01*
X110160750Y-118889250D02*
X113500000Y-115550000D01*
D102*
X101500000Y-136590000D02*
X101960000Y-136590000D01*
D100*
X106500000Y-132050000D02*
X104000000Y-132050000D01*
X75500000Y-118889250D02*
X110160750Y-118889250D01*
X110160750Y-118210750D02*
X108000000Y-116050000D01*
X110160750Y-118889250D02*
X110160750Y-118210750D01*
%TO.N,Net-(TsRST1A-B)*%
X140890000Y-134550000D02*
X141000000Y-134660000D01*
X139540000Y-134550000D02*
X140890000Y-134550000D01*
%TO.N,Net-(BQ296115DSGR1-V4)*%
D102*
X95750000Y-147300000D02*
X94500000Y-147300000D01*
X101500000Y-141550000D02*
X101500000Y-139550000D01*
X101500000Y-141550000D02*
X95750000Y-147300000D01*
%TO.N,Net-(BQ296115DSGR1-V2)*%
X94500000Y-146300000D02*
X94790000Y-146300000D01*
X95790000Y-145300000D02*
X95790000Y-145090000D01*
X95775000Y-141550000D02*
X95775000Y-139535000D01*
X95775000Y-139535000D02*
X95750000Y-139510000D01*
X95775000Y-145075000D02*
X95775000Y-141550000D01*
X95790000Y-145090000D02*
X95775000Y-145075000D01*
X94790000Y-146300000D02*
X95790000Y-145300000D01*
%TO.N,Net-(BQ296115DSGR1-V1)*%
X94200000Y-143550000D02*
X94200000Y-143850000D01*
X94200000Y-143850000D02*
X92600000Y-145450000D01*
X94200000Y-142500000D02*
X94200000Y-143550000D01*
X93250000Y-139490000D02*
X93250000Y-141550000D01*
X93250000Y-141550000D02*
X94200000Y-142500000D01*
X92600000Y-145450000D02*
X92600000Y-146300000D01*
%TO.N,Net-(BQ296115DSGR1-OUT)*%
X92500000Y-149550000D02*
X92500000Y-151550000D01*
X92600000Y-147800000D02*
X92600000Y-149450000D01*
X92600000Y-149450000D02*
X92500000Y-149550000D01*
%TO.N,Net-(DD3-K)*%
X155000000Y-104050000D02*
X155810000Y-104050000D01*
X159000000Y-106700000D02*
X160500000Y-106700000D01*
X154160000Y-104890000D02*
X155000000Y-104050000D01*
X154160000Y-105210000D02*
X155500000Y-106550000D01*
X153027500Y-104890000D02*
X154160000Y-104890000D01*
X154160000Y-104890000D02*
X154160000Y-105210000D01*
X155810000Y-104050000D02*
X157000000Y-105240000D01*
X158460000Y-106700000D02*
X159000000Y-106700000D01*
X157000000Y-105240000D02*
X158460000Y-106700000D01*
%TO.N,Net-(DC1-Pad2)*%
D100*
X168500000Y-83550000D02*
X170225000Y-83550000D01*
X170225000Y-83550000D02*
X171225000Y-82550000D01*
%TO.N,Net-(J7-CC1)*%
X181000000Y-132643000D02*
X181843000Y-131800000D01*
X181843000Y-131800000D02*
X182990000Y-131800000D01*
X181000000Y-133300000D02*
X181000000Y-132643000D01*
%TO.N,USB_D+*%
D101*
X183801000Y-129800000D02*
X184070000Y-130069000D01*
D100*
X180958604Y-129800000D02*
X182990000Y-129800000D01*
D101*
X182990000Y-129800000D02*
X183801000Y-129800000D01*
D100*
X180458604Y-130300000D02*
X180958604Y-129800000D01*
X172675000Y-130300000D02*
X180458604Y-130300000D01*
D101*
X184070000Y-130069000D02*
X184070000Y-130531000D01*
X183801000Y-130800000D02*
X182990000Y-130800000D01*
X184070000Y-130531000D02*
X183801000Y-130800000D01*
%TO.N,USB_D-*%
X181952500Y-130590000D02*
X181952500Y-131090000D01*
D100*
X181095000Y-130300000D02*
X182990000Y-130300000D01*
X180595000Y-130800000D02*
X181095000Y-130300000D01*
D101*
X182162500Y-131300000D02*
X182990000Y-131300000D01*
D100*
X172675000Y-130800000D02*
X180595000Y-130800000D01*
D101*
X181952500Y-130590000D02*
X182242500Y-130300000D01*
X181952500Y-131090000D02*
X182162500Y-131300000D01*
X182242500Y-130300000D02*
X182990000Y-130300000D01*
%TO.N,Net-(J7-CC2)*%
D100*
X180500000Y-127800000D02*
X181500000Y-128800000D01*
X181500000Y-128800000D02*
X182990000Y-128800000D01*
%TO.N,Net-(D17-K)*%
D107*
X166000000Y-106375000D02*
X166830500Y-106375000D01*
X164000000Y-106550000D02*
X165825000Y-106550000D01*
X165825000Y-106550000D02*
X166000000Y-106375000D01*
X163325000Y-107225000D02*
X164000000Y-106550000D01*
X163325000Y-110550000D02*
X163325000Y-107225000D01*
X166830500Y-106375000D02*
X167525500Y-107070000D01*
%TO.N,Net-(PdC1-Pad2)*%
D100*
X166500000Y-81150000D02*
X166500000Y-83550000D01*
%TO.N,Net-(Q6-C)*%
D107*
X135000000Y-113050000D02*
X138450000Y-116500000D01*
X140000000Y-117210000D02*
X140660000Y-117210000D01*
X139860000Y-117350000D02*
X140000000Y-117210000D01*
X138450000Y-116500000D02*
X138450000Y-117350000D01*
X140660000Y-117210000D02*
X142000000Y-118550000D01*
X138450000Y-117350000D02*
X139860000Y-117350000D01*
%TO.N,Net-(LED1-A)*%
D100*
X105500000Y-78050000D02*
X105000000Y-77550000D01*
X105500000Y-79550000D02*
X105500000Y-78050000D01*
%TO.N,V2*%
D102*
X95750000Y-136550000D02*
X95750000Y-135800000D01*
D100*
X100000000Y-118050000D02*
X99000000Y-118050000D01*
X97000000Y-116050000D02*
X97000000Y-113550000D01*
X75500000Y-123969250D02*
X103419250Y-123969250D01*
X113500000Y-124050000D02*
X103500000Y-124050000D01*
X103419250Y-123969250D02*
X103500000Y-124050000D01*
X99000000Y-118050000D02*
X97000000Y-116050000D01*
D102*
X95750000Y-135800000D02*
X97000000Y-134550000D01*
%TO.N,Net-(LED3-A)*%
D100*
X157500000Y-73550000D02*
X157500000Y-70550000D01*
%TO.N,Net-(PcFet1-G)*%
X139860000Y-85050000D02*
X138000000Y-85050000D01*
X141650000Y-83130000D02*
X143570000Y-83130000D01*
X138000000Y-85050000D02*
X137500000Y-84550000D01*
X143570000Y-83130000D02*
X144000000Y-82700000D01*
X141650000Y-83130000D02*
X141650000Y-83260000D01*
X141650000Y-83260000D02*
X139860000Y-85050000D01*
%TO.N,OSC_OUT*%
X157930000Y-131300000D02*
X156900000Y-132330000D01*
X155700000Y-132050000D02*
X155980000Y-132330000D01*
X155700000Y-131850000D02*
X155700000Y-132050000D01*
X156900000Y-132330000D02*
X156180000Y-132330000D01*
X161325000Y-131300000D02*
X157930000Y-131300000D01*
X156180000Y-132330000D02*
X155700000Y-131850000D01*
%TO.N,Net-(PcFet1-D)*%
X137000000Y-82050000D02*
X138670000Y-82050000D01*
X138670000Y-82050000D02*
X139750000Y-83130000D01*
%TO.N,Net-(LED5-A)*%
X129000000Y-72050000D02*
X129000000Y-70450000D01*
X129000000Y-70450000D02*
X129700000Y-69750000D01*
%TO.N,USART1_TX*%
X194500000Y-136895342D02*
X194250000Y-137145342D01*
X173507158Y-131800000D02*
X174082500Y-132375342D01*
X194250000Y-137145342D02*
X194250000Y-137930000D01*
X197500000Y-139550000D02*
X197500000Y-140300000D01*
X192250000Y-136895342D02*
X192162403Y-136982939D01*
X194500000Y-136895342D02*
X194845342Y-136895342D01*
X194845342Y-136895342D02*
X197500000Y-139550000D01*
X192250000Y-136895342D02*
X194500000Y-136895342D01*
X174082500Y-132395342D02*
X178582500Y-136895342D01*
X192162403Y-136982939D02*
X192162403Y-138450618D01*
X172675000Y-131800000D02*
X173507158Y-131800000D01*
X178582500Y-136895342D02*
X192250000Y-136895342D01*
X174082500Y-132375342D02*
X174082500Y-132395342D01*
%TO.N,Net-(RD1-K)*%
D107*
X130500000Y-110180000D02*
X132750000Y-107930000D01*
X130500000Y-111510000D02*
X130500000Y-110180000D01*
X130500000Y-110050000D02*
X130370000Y-110180000D01*
X130370000Y-110180000D02*
X127500000Y-110180000D01*
X132040000Y-113050000D02*
X130500000Y-111510000D01*
X132750000Y-107930000D02*
X133250000Y-107930000D01*
%TO.N,Net-(DFet4-G)*%
D100*
X160500000Y-105050000D02*
X160500000Y-103950000D01*
X157900000Y-96550000D02*
X157900000Y-95890000D01*
X157900000Y-95890000D02*
X157500000Y-95490000D01*
%TO.N,FUSE*%
X126700000Y-85825000D02*
X128300000Y-84225000D01*
X94000000Y-151550000D02*
X96000000Y-151550000D01*
X129900000Y-84300000D02*
X129900000Y-80350000D01*
X126700000Y-87532535D02*
X126700000Y-85825000D01*
X129900000Y-80350000D02*
X129700000Y-80150000D01*
X96000000Y-151550000D02*
X96500000Y-151050000D01*
X129900000Y-82150000D02*
X126700001Y-82150001D01*
X128300000Y-84225000D02*
X129825000Y-84225000D01*
X129825000Y-84225000D02*
X129900000Y-84300000D01*
%TO.N,SWDIO*%
X171582500Y-136539658D02*
X172260342Y-137217500D01*
X171677842Y-129800000D02*
X171582500Y-129895342D01*
X172675000Y-129800000D02*
X171677842Y-129800000D01*
X179680000Y-140790342D02*
X178645000Y-140790342D01*
X175072158Y-137217500D02*
X172260342Y-137217500D01*
X178645000Y-140790342D02*
X175072158Y-137217500D01*
X171582500Y-129895342D02*
X171582500Y-136539658D01*
%TO.N,Net-(U2-VCAP_2)*%
X171367500Y-127097500D02*
X171750000Y-126715000D01*
X173250000Y-125550000D02*
X173250000Y-124550000D01*
X171750000Y-126715000D02*
X172085000Y-126715000D01*
X171367500Y-128824658D02*
X171367500Y-127097500D01*
X172085000Y-126715000D02*
X173250000Y-125550000D01*
X171842842Y-129300000D02*
X171367500Y-128824658D01*
X172675000Y-129300000D02*
X171842842Y-129300000D01*
%TO.N,SWCLK*%
X178605000Y-138585342D02*
X176415000Y-136395342D01*
X179680000Y-138585342D02*
X178605000Y-138585342D01*
X176415000Y-136395342D02*
X174582500Y-136395342D01*
X170750000Y-126875000D02*
X170750000Y-128227842D01*
%TO.N,Net-(U2-BOOT0)*%
X165250000Y-126875000D02*
X165250000Y-128375000D01*
X167998750Y-141060342D02*
X167998750Y-145623750D01*
X192194658Y-150395342D02*
X193750000Y-148840000D01*
X191622500Y-149435342D02*
X191622500Y-150395342D01*
X167998750Y-145623750D02*
X170770342Y-148395342D01*
X165250000Y-126875000D02*
X165250000Y-127707158D01*
X170770342Y-148395342D02*
X190582500Y-148395342D01*
X190582500Y-148395342D02*
X191622500Y-149435342D01*
%TO.N,Net-(PdFet1-D)*%
X157100000Y-86950000D02*
X157100000Y-83240000D01*
X157100000Y-83240000D02*
X157150000Y-83190000D01*
X159500000Y-88725000D02*
X158875000Y-88725000D01*
X158875000Y-88725000D02*
X157100000Y-86950000D01*
%TO.N,Net-(ChC1-Pad2)*%
X142000000Y-76250000D02*
X143825000Y-76250000D01*
%TO.N,Net-(Rshunt1-Pad2)*%
D106*
X86620000Y-109430000D02*
X86620000Y-105590000D01*
X85000000Y-111050000D02*
X86620000Y-109430000D01*
%TO.N,Net-(XCshun1-Pad1)*%
D100*
X102980000Y-132050000D02*
X98000000Y-132050000D01*
%TO.N,Net-(DD2-A)*%
X144630000Y-115050000D02*
X146350000Y-115050000D01*
%TO.N,Net-(Dfet1-G)*%
X139792039Y-91829435D02*
X140309435Y-91829435D01*
X140480000Y-92000000D02*
X140309435Y-91829435D01*
X140300000Y-109950000D02*
X138900000Y-108550000D01*
X140480000Y-92580000D02*
X140480000Y-92000000D01*
X138900000Y-108550000D02*
X138900000Y-107550000D01*
%TO.N,BAT-*%
X84200000Y-156200000D02*
X93850000Y-156200000D01*
X93850000Y-156200000D02*
X96000000Y-154050000D01*
%TD*%
%TA.AperFunction,Conductor*%
%TO.N,BAT-*%
G36*
X127455692Y-130273582D02*
G01*
X127494403Y-130331748D01*
X127500000Y-130368583D01*
X127500000Y-133082740D01*
X127480315Y-133149779D01*
X127427511Y-133195534D01*
X127411631Y-133201510D01*
X125000000Y-133924999D01*
X125000000Y-136550000D01*
X127717407Y-139514444D01*
X127748197Y-139577164D01*
X127750000Y-139598234D01*
X127750000Y-154426000D01*
X127730315Y-154493039D01*
X127677511Y-154538794D01*
X127626000Y-154550000D01*
X115250000Y-154550000D01*
X109124000Y-154550000D01*
X109056961Y-154530315D01*
X109011206Y-154477511D01*
X109000000Y-154426000D01*
X109000000Y-141990693D01*
X109013514Y-141934400D01*
X109059868Y-141843427D01*
X109074500Y-141751045D01*
X109074499Y-141348956D01*
X109059868Y-141256573D01*
X109013514Y-141165599D01*
X109000000Y-141109307D01*
X109000000Y-140193647D01*
X109005483Y-140157180D01*
X109177466Y-139598234D01*
X111473651Y-132135632D01*
X111512180Y-132077349D01*
X111576105Y-132049147D01*
X111589568Y-132048129D01*
X124109430Y-131786702D01*
X127322691Y-130256627D01*
X127391680Y-130245578D01*
X127455692Y-130273582D01*
G37*
%TD.AperFunction*%
%TD*%
%TA.AperFunction,Conductor*%
%TO.N,BAT+*%
G36*
X104541594Y-80540188D02*
G01*
X104550084Y-80546009D01*
X104569169Y-80560296D01*
X104569172Y-80560297D01*
X104704017Y-80610591D01*
X104704016Y-80610591D01*
X104710944Y-80611335D01*
X104763627Y-80617000D01*
X105949650Y-80616999D01*
X105976643Y-80619973D01*
X113295600Y-82252414D01*
X113356743Y-82286219D01*
X113389906Y-82347718D01*
X113391076Y-82392836D01*
X113364500Y-82560633D01*
X113364500Y-82739365D01*
X113392460Y-82915898D01*
X113392460Y-82915901D01*
X113447689Y-83085878D01*
X113447691Y-83085881D01*
X113528833Y-83245132D01*
X113633889Y-83389728D01*
X113760272Y-83516111D01*
X113904868Y-83621167D01*
X114064119Y-83702309D01*
X114064121Y-83702310D01*
X114105806Y-83715854D01*
X114234103Y-83757540D01*
X114410634Y-83785500D01*
X114410635Y-83785500D01*
X116989370Y-83785500D01*
X117067824Y-83773073D01*
X117165897Y-83757541D01*
X117294193Y-83715853D01*
X117335881Y-83702309D01*
X117495132Y-83621167D01*
X117639728Y-83516111D01*
X117766111Y-83389728D01*
X117824666Y-83331173D01*
X117824677Y-83331160D01*
X117832571Y-83323266D01*
X117893895Y-83289787D01*
X117947233Y-83289928D01*
X121775498Y-84143796D01*
X121836640Y-84177600D01*
X121869803Y-84239099D01*
X121872500Y-84264820D01*
X121872500Y-87210642D01*
X121852815Y-87277681D01*
X121851602Y-87279533D01*
X121790609Y-87370814D01*
X121790602Y-87370827D01*
X121730264Y-87516498D01*
X121730261Y-87516510D01*
X121699500Y-87671153D01*
X121699500Y-87828846D01*
X121730261Y-87983489D01*
X121730264Y-87983501D01*
X121790602Y-88129172D01*
X121790609Y-88129185D01*
X121878210Y-88260288D01*
X121878213Y-88260292D01*
X121989707Y-88371786D01*
X121989711Y-88371789D01*
X122120814Y-88459390D01*
X122120827Y-88459397D01*
X122256537Y-88515609D01*
X122266503Y-88519737D01*
X122415598Y-88549394D01*
X122421153Y-88550499D01*
X122421156Y-88550500D01*
X122421158Y-88550500D01*
X122578844Y-88550500D01*
X122578845Y-88550499D01*
X122733497Y-88519737D01*
X122862989Y-88466100D01*
X122879172Y-88459397D01*
X122879172Y-88459396D01*
X122879179Y-88459394D01*
X122886604Y-88454433D01*
X122896304Y-88451395D01*
X122903987Y-88444738D01*
X122929084Y-88441129D01*
X122953280Y-88433552D01*
X122963082Y-88436240D01*
X122973145Y-88434794D01*
X122996211Y-88445327D01*
X123020661Y-88452034D01*
X123027453Y-88459594D01*
X123036701Y-88463818D01*
X123050410Y-88485150D01*
X123067354Y-88504011D01*
X123069985Y-88515609D01*
X123074476Y-88522596D01*
X123079498Y-88557529D01*
X123079499Y-88557531D01*
X123079499Y-88678080D01*
X123079499Y-88678086D01*
X123079500Y-88682481D01*
X123079500Y-90874809D01*
X123059815Y-90941848D01*
X123007011Y-90987603D01*
X123002953Y-90989370D01*
X122967600Y-91004013D01*
X122872751Y-91055805D01*
X122767442Y-91153851D01*
X122694030Y-91277583D01*
X122694025Y-91277592D01*
X122677928Y-91316453D01*
X122659915Y-91367512D01*
X122647209Y-91455891D01*
X122639440Y-91509925D01*
X122639440Y-91609899D01*
X122641597Y-91656543D01*
X122675127Y-91796462D01*
X122690106Y-91834182D01*
X122690114Y-91834203D01*
X122709325Y-91876742D01*
X122709326Y-91876744D01*
X122709327Y-91876745D01*
X122792125Y-91994408D01*
X122792132Y-91994417D01*
X123116476Y-92338413D01*
X123146030Y-92391385D01*
X123169863Y-92480330D01*
X123169866Y-92480337D01*
X123258677Y-92694745D01*
X123258685Y-92694762D01*
X123374720Y-92895743D01*
X123374721Y-92895745D01*
X123450732Y-92994804D01*
X123475926Y-93059973D01*
X123476320Y-93067303D01*
X123698853Y-102302437D01*
X123680789Y-102369931D01*
X123669037Y-102386122D01*
X121339215Y-105104248D01*
X121280640Y-105142338D01*
X121239795Y-105147438D01*
X115296009Y-104894511D01*
X115278281Y-104892471D01*
X100706872Y-102141956D01*
X100644647Y-102110178D01*
X100609480Y-102049804D01*
X100605880Y-102018699D01*
X100625717Y-100273091D01*
X100646162Y-100206280D01*
X100699483Y-100161128D01*
X100749709Y-100150500D01*
X101686610Y-100150500D01*
X101686611Y-100150500D01*
X101857701Y-100123402D01*
X102022445Y-100069873D01*
X102176788Y-99991232D01*
X102316928Y-99889414D01*
X102439414Y-99766928D01*
X102541232Y-99626788D01*
X102619873Y-99472445D01*
X102673402Y-99307701D01*
X102700500Y-99136611D01*
X102700500Y-98963389D01*
X102673402Y-98792299D01*
X102619873Y-98627555D01*
X102541232Y-98473212D01*
X102439414Y-98333072D01*
X102316928Y-98210586D01*
X102176788Y-98108768D01*
X102022445Y-98030127D01*
X101857701Y-97976598D01*
X101857699Y-97976597D01*
X101857698Y-97976597D01*
X101726271Y-97955781D01*
X101686611Y-97949500D01*
X100777538Y-97949500D01*
X100710499Y-97929815D01*
X100664744Y-97877011D01*
X100653546Y-97824093D01*
X100677167Y-95745415D01*
X104641500Y-95745415D01*
X104641500Y-96054584D01*
X104681853Y-96361104D01*
X104761873Y-96659742D01*
X104880184Y-96945369D01*
X104880188Y-96945379D01*
X105034770Y-97213123D01*
X105222979Y-97458402D01*
X105222985Y-97458409D01*
X105441590Y-97677014D01*
X105441597Y-97677020D01*
X105686876Y-97865229D01*
X105954620Y-98019811D01*
X105954621Y-98019811D01*
X105954624Y-98019813D01*
X106240258Y-98138127D01*
X106538892Y-98218146D01*
X106768785Y-98248411D01*
X106845415Y-98258500D01*
X106845416Y-98258500D01*
X107154585Y-98258500D01*
X107215888Y-98250429D01*
X107461108Y-98218146D01*
X107759742Y-98138127D01*
X108045376Y-98019813D01*
X108313124Y-97865229D01*
X108558404Y-97677019D01*
X108777019Y-97458404D01*
X108965229Y-97213124D01*
X109119813Y-96945376D01*
X109238127Y-96659742D01*
X109318146Y-96361108D01*
X109358500Y-96054584D01*
X109358500Y-95745416D01*
X109318146Y-95438892D01*
X109238127Y-95140258D01*
X109119813Y-94854624D01*
X108965229Y-94586876D01*
X108777019Y-94341596D01*
X108777014Y-94341590D01*
X108558409Y-94122985D01*
X108558402Y-94122979D01*
X108313123Y-93934770D01*
X108045379Y-93780188D01*
X108045369Y-93780184D01*
X107759742Y-93661873D01*
X107461104Y-93581853D01*
X107154585Y-93541500D01*
X107154584Y-93541500D01*
X106845416Y-93541500D01*
X106845415Y-93541500D01*
X106538895Y-93581853D01*
X106240257Y-93661873D01*
X105954630Y-93780184D01*
X105954620Y-93780188D01*
X105686876Y-93934770D01*
X105441597Y-94122979D01*
X105441590Y-94122985D01*
X105222985Y-94341590D01*
X105222979Y-94341597D01*
X105034770Y-94586876D01*
X104880188Y-94854620D01*
X104880184Y-94854630D01*
X104761873Y-95140257D01*
X104681853Y-95438895D01*
X104641500Y-95745415D01*
X100677167Y-95745415D01*
X100759128Y-88532907D01*
X100779572Y-88466100D01*
X100795434Y-88446643D01*
X100891789Y-88350289D01*
X100979394Y-88219179D01*
X101039737Y-88073497D01*
X101070500Y-87918842D01*
X101070500Y-87761158D01*
X101070500Y-87761155D01*
X101070499Y-87761153D01*
X101039738Y-87606510D01*
X101039737Y-87606503D01*
X101002456Y-87516498D01*
X100979397Y-87460827D01*
X100979390Y-87460814D01*
X100891789Y-87329711D01*
X100891786Y-87329707D01*
X100811041Y-87248962D01*
X100777556Y-87187639D01*
X100774730Y-87159879D01*
X100779126Y-86773090D01*
X100799571Y-86706279D01*
X100852892Y-86661127D01*
X100903118Y-86650500D01*
X101686610Y-86650500D01*
X101686611Y-86650500D01*
X101857701Y-86623402D01*
X102022445Y-86569873D01*
X102176788Y-86491232D01*
X102316928Y-86389414D01*
X102439414Y-86266928D01*
X102541232Y-86126788D01*
X102619873Y-85972445D01*
X102673402Y-85807701D01*
X102700500Y-85636611D01*
X102700500Y-85463389D01*
X102673402Y-85292299D01*
X102619873Y-85127555D01*
X102541232Y-84973212D01*
X102439414Y-84833072D01*
X102316928Y-84710586D01*
X102176788Y-84608768D01*
X102022445Y-84530127D01*
X101857701Y-84476598D01*
X101857699Y-84476597D01*
X101857698Y-84476597D01*
X101726271Y-84455781D01*
X101686611Y-84449500D01*
X100930948Y-84449500D01*
X100863909Y-84429815D01*
X100818154Y-84377011D01*
X100806956Y-84324091D01*
X100848306Y-80685240D01*
X100868751Y-80618429D01*
X100922072Y-80573277D01*
X100970830Y-80562658D01*
X104474332Y-80521298D01*
X104541594Y-80540188D01*
G37*
%TD.AperFunction*%
%TD*%
%TA.AperFunction,Conductor*%
%TO.N,BAT-*%
G36*
X170976539Y-140282508D02*
G01*
X170982535Y-140283701D01*
X171032650Y-140306051D01*
X171070168Y-140334137D01*
X171070171Y-140334139D01*
X171115118Y-140350903D01*
X171205017Y-140384433D01*
X171264627Y-140390842D01*
X171499837Y-140390841D01*
X171508580Y-140390841D01*
X171508582Y-140390842D01*
X171653113Y-140390842D01*
X171720152Y-140410527D01*
X171720154Y-140410529D01*
X171740793Y-140427161D01*
X172236100Y-140922468D01*
X172269585Y-140983791D01*
X172264601Y-141053483D01*
X172222729Y-141109416D01*
X172211998Y-141116609D01*
X170528913Y-142121770D01*
X170467476Y-142139291D01*
X170212892Y-142143690D01*
X170145523Y-142125167D01*
X170098862Y-142073161D01*
X170086750Y-142019709D01*
X170086750Y-140849841D01*
X170106435Y-140782802D01*
X170159239Y-140737047D01*
X170210750Y-140725841D01*
X170400371Y-140725841D01*
X170400372Y-140725841D01*
X170459983Y-140719433D01*
X170594831Y-140669138D01*
X170710046Y-140582888D01*
X170796296Y-140467673D01*
X170827343Y-140384433D01*
X170836160Y-140360792D01*
X170878031Y-140304858D01*
X170943495Y-140280440D01*
X170976539Y-140282508D01*
G37*
%TD.AperFunction*%
%TD*%
%TA.AperFunction,Conductor*%
%TO.N,IDin*%
G36*
X150124259Y-89957107D02*
G01*
X156279117Y-90330949D01*
X156313677Y-90338079D01*
X156333873Y-90345365D01*
X156345566Y-90353161D01*
X156355989Y-90355919D01*
X156383273Y-90378301D01*
X156387246Y-90382643D01*
X156401916Y-90402264D01*
X157115321Y-91584246D01*
X157158191Y-91655274D01*
X157973412Y-93005950D01*
X157986705Y-93036764D01*
X157995457Y-93068202D01*
X158000000Y-93101458D01*
X158000000Y-95014892D01*
X157999999Y-95014898D01*
X158000000Y-95014901D01*
X157994975Y-95049836D01*
X157990570Y-95064834D01*
X157952801Y-95123600D01*
X157952074Y-95124230D01*
X157895704Y-95152007D01*
X157892774Y-95152606D01*
X157889262Y-95152615D01*
X157889233Y-95152629D01*
X157889140Y-95152615D01*
X157848657Y-95152722D01*
X157848621Y-95153097D01*
X157844923Y-95152732D01*
X157843747Y-95152736D01*
X157842562Y-95152500D01*
X157842558Y-95152500D01*
X157727889Y-95152500D01*
X157695715Y-95148253D01*
X157693814Y-95147742D01*
X157693372Y-95147600D01*
X157660180Y-95138706D01*
X157660102Y-95138685D01*
X157660080Y-95138671D01*
X157649788Y-95135179D01*
X157647255Y-95134500D01*
X157647253Y-95134499D01*
X157550225Y-95108500D01*
X157550222Y-95108500D01*
X157449778Y-95108500D01*
X157449775Y-95108500D01*
X157391071Y-95124230D01*
X157350227Y-95135174D01*
X157339820Y-95138705D01*
X157304111Y-95148274D01*
X157272019Y-95152500D01*
X157157439Y-95152500D01*
X157120253Y-95159896D01*
X157120250Y-95159898D01*
X157078077Y-95188077D01*
X157049898Y-95230250D01*
X157049896Y-95230253D01*
X157042500Y-95267438D01*
X157042500Y-95267441D01*
X157042500Y-95712558D01*
X157042500Y-95712560D01*
X157042499Y-95712560D01*
X157049896Y-95749745D01*
X157049897Y-95749747D01*
X157049898Y-95749749D01*
X157078077Y-95791922D01*
X157120250Y-95820101D01*
X157120252Y-95820102D01*
X157148205Y-95825662D01*
X157157441Y-95827500D01*
X157157442Y-95827500D01*
X157231271Y-95827500D01*
X157233778Y-95827601D01*
X157236954Y-95828674D01*
X157263719Y-95832522D01*
X157276055Y-95836144D01*
X157279538Y-95836901D01*
X157340857Y-95870380D01*
X157340864Y-95870387D01*
X157467859Y-95997382D01*
X157489010Y-96025637D01*
X157496502Y-96039358D01*
X157511354Y-96107618D01*
X157511225Y-96109424D01*
X157491859Y-96167623D01*
X157487677Y-96174131D01*
X157471041Y-96194776D01*
X157456288Y-96209529D01*
X157456283Y-96209535D01*
X157383293Y-96335959D01*
X157383289Y-96335967D01*
X157383284Y-96335984D01*
X157345500Y-96476999D01*
X157345500Y-96622999D01*
X157383284Y-96764014D01*
X157383289Y-96764031D01*
X157383293Y-96764039D01*
X157456282Y-96890461D01*
X157456286Y-96890467D01*
X157456288Y-96890470D01*
X157456289Y-96890471D01*
X157559529Y-96993711D01*
X157685971Y-97066712D01*
X157826999Y-97104500D01*
X157827001Y-97104500D01*
X157858171Y-97104500D01*
X157893106Y-97109523D01*
X157908104Y-97113927D01*
X157966855Y-97151672D01*
X157966879Y-97151700D01*
X157966882Y-97151702D01*
X157966883Y-97151704D01*
X157968042Y-97153041D01*
X157995518Y-97207902D01*
X157997163Y-97215460D01*
X158000000Y-97241831D01*
X158000000Y-97550000D01*
X159302736Y-99721229D01*
X159302737Y-99721229D01*
X159473656Y-100006093D01*
X159486827Y-100036790D01*
X159495500Y-100068101D01*
X159500000Y-100101202D01*
X159500000Y-101541390D01*
X159498032Y-101555066D01*
X159498333Y-101555089D01*
X159497960Y-101560113D01*
X159497335Y-101562740D01*
X159497592Y-101564160D01*
X159495786Y-101570685D01*
X159494974Y-101576334D01*
X159493647Y-101580852D01*
X159493072Y-101580683D01*
X159489216Y-101596910D01*
X159489277Y-101596933D01*
X159489097Y-101597410D01*
X159488872Y-101598359D01*
X159487893Y-101600722D01*
X159487674Y-101601197D01*
X159487617Y-101601389D01*
X159486659Y-101603705D01*
X159486316Y-101604130D01*
X159485770Y-101605312D01*
X159485474Y-101605175D01*
X159466084Y-101629248D01*
X159446158Y-101655724D01*
X159444171Y-101657204D01*
X159443260Y-101657584D01*
X159442830Y-101658119D01*
X159438659Y-101659507D01*
X159392232Y-101678916D01*
X159392373Y-101679569D01*
X159391605Y-101679734D01*
X159389825Y-101679922D01*
X159388845Y-101680333D01*
X159385072Y-101680910D01*
X159384999Y-101680435D01*
X159365559Y-101682500D01*
X159247985Y-101682500D01*
X159215890Y-101678274D01*
X159180176Y-101668704D01*
X159169795Y-101665181D01*
X159167255Y-101664500D01*
X159167253Y-101664499D01*
X159070225Y-101638500D01*
X159070222Y-101638500D01*
X158969778Y-101638500D01*
X158969775Y-101638500D01*
X158899972Y-101657204D01*
X158870227Y-101665174D01*
X158859820Y-101668705D01*
X158824111Y-101678274D01*
X158792019Y-101682500D01*
X158677439Y-101682500D01*
X158640253Y-101689896D01*
X158640250Y-101689898D01*
X158598077Y-101718077D01*
X158569898Y-101760250D01*
X158569896Y-101760253D01*
X158562500Y-101797438D01*
X158562500Y-101923427D01*
X158562499Y-101923433D01*
X158562500Y-101923436D01*
X158557475Y-101958371D01*
X158553070Y-101973369D01*
X158515298Y-102032138D01*
X158496917Y-102048065D01*
X158495803Y-102051412D01*
X158481632Y-102068367D01*
X158039155Y-102510843D01*
X158010901Y-102531994D01*
X157981755Y-102547909D01*
X157946646Y-102560669D01*
X155500027Y-103049993D01*
X155500014Y-103049996D01*
X153522182Y-103544454D01*
X153507260Y-103547227D01*
X153492277Y-103549071D01*
X153477131Y-103550000D01*
X149499998Y-103550000D01*
X148554751Y-104495246D01*
X148554750Y-104495249D01*
X148526495Y-104516400D01*
X148505614Y-104527802D01*
X148452601Y-104542804D01*
X148450844Y-104542895D01*
X148437974Y-104542516D01*
X148437341Y-104542654D01*
X148436885Y-104542484D01*
X148430737Y-104542303D01*
X144000004Y-104050000D01*
X144000002Y-104050000D01*
X144000000Y-104050000D01*
X143000000Y-104050000D01*
X140161969Y-104523004D01*
X140161965Y-104523004D01*
X140161964Y-104523005D01*
X140126680Y-104523791D01*
X140120171Y-104523004D01*
X140112903Y-104522124D01*
X140048716Y-104494524D01*
X140009640Y-104436603D01*
X140005832Y-104424629D01*
X140000000Y-104387049D01*
X140000000Y-100555106D01*
X140005023Y-100520170D01*
X140009427Y-100505172D01*
X140019065Y-100490174D01*
X140024086Y-100473073D01*
X140047198Y-100446398D01*
X140047925Y-100445768D01*
X140104325Y-100417984D01*
X140107256Y-100417385D01*
X140110082Y-100417378D01*
X140111479Y-100416741D01*
X140115816Y-100417364D01*
X140151347Y-100417275D01*
X140151384Y-100416903D01*
X140155067Y-100417265D01*
X140156250Y-100417263D01*
X140157442Y-100417500D01*
X140272111Y-100417500D01*
X140304283Y-100421746D01*
X140306188Y-100422257D01*
X140306627Y-100422399D01*
X140339892Y-100431312D01*
X140339912Y-100431325D01*
X140350206Y-100434819D01*
X140352741Y-100435498D01*
X140352746Y-100435501D01*
X140449775Y-100461500D01*
X140449778Y-100461500D01*
X140550222Y-100461500D01*
X140550223Y-100461500D01*
X140550225Y-100461500D01*
X140647254Y-100435501D01*
X140647255Y-100435499D01*
X140649797Y-100434819D01*
X140660183Y-100431292D01*
X140693374Y-100422399D01*
X140695894Y-100421724D01*
X140727983Y-100417500D01*
X140842558Y-100417500D01*
X140842559Y-100417500D01*
X140851250Y-100415771D01*
X140879748Y-100410102D01*
X140921922Y-100381922D01*
X140950102Y-100339748D01*
X140957500Y-100302558D01*
X140957500Y-99857442D01*
X140950102Y-99820252D01*
X140921922Y-99778078D01*
X140918538Y-99773013D01*
X140918664Y-99772928D01*
X140911985Y-99763240D01*
X140911380Y-99762184D01*
X140903115Y-99747047D01*
X140899462Y-99741362D01*
X140897884Y-99738606D01*
X140890483Y-99707600D01*
X140881500Y-99677004D01*
X140881500Y-99542619D01*
X140881501Y-99542568D01*
X140881501Y-99429777D01*
X140881501Y-99429775D01*
X140860825Y-99352612D01*
X140857664Y-99336722D01*
X140855559Y-99320731D01*
X140854500Y-99304556D01*
X140854500Y-99207001D01*
X140854500Y-99206999D01*
X140816712Y-99065971D01*
X140743711Y-98939529D01*
X140640471Y-98836289D01*
X140640470Y-98836288D01*
X140640467Y-98836286D01*
X140526746Y-98770630D01*
X140525385Y-98769796D01*
X140523963Y-98768224D01*
X140521635Y-98766438D01*
X140506423Y-98760137D01*
X140498261Y-98759063D01*
X140491618Y-98757283D01*
X140373001Y-98725500D01*
X140373000Y-98725500D01*
X140226994Y-98725500D01*
X140173317Y-98739882D01*
X140173317Y-98739883D01*
X140173314Y-98739883D01*
X140173312Y-98739884D01*
X140138272Y-98744074D01*
X140124398Y-98743744D01*
X140057846Y-98722471D01*
X140013360Y-98668594D01*
X140013356Y-98668586D01*
X140010009Y-98660769D01*
X140000000Y-98611962D01*
X140000000Y-94544377D01*
X140000000Y-94544375D01*
X139898887Y-93032619D01*
X139901568Y-92997433D01*
X139904580Y-92983886D01*
X139938347Y-92922719D01*
X139999771Y-92889529D01*
X140001407Y-92889181D01*
X140071072Y-92894458D01*
X140096136Y-92907352D01*
X140100252Y-92910102D01*
X140118847Y-92913801D01*
X140137441Y-92917500D01*
X140137442Y-92917500D01*
X140256193Y-92917500D01*
X140256937Y-92917610D01*
X140257309Y-92917505D01*
X140259519Y-92917993D01*
X140292197Y-92922842D01*
X140300010Y-92925212D01*
X140304161Y-92927097D01*
X140321784Y-92931819D01*
X140323720Y-92932407D01*
X140324386Y-92932844D01*
X140330211Y-92934820D01*
X140332740Y-92935497D01*
X140332746Y-92935501D01*
X140429775Y-92961500D01*
X140429778Y-92961500D01*
X140530222Y-92961500D01*
X140530223Y-92961500D01*
X140530225Y-92961500D01*
X140627254Y-92935501D01*
X140627255Y-92935499D01*
X140629797Y-92934819D01*
X140640183Y-92931292D01*
X140672180Y-92922719D01*
X140675894Y-92921724D01*
X140707983Y-92917500D01*
X140822559Y-92917500D01*
X140829957Y-92916028D01*
X140829957Y-92916029D01*
X140829961Y-92916027D01*
X140859748Y-92910102D01*
X140901922Y-92881922D01*
X140930102Y-92839748D01*
X140937500Y-92802558D01*
X140937500Y-92357442D01*
X140930102Y-92320252D01*
X140901922Y-92278078D01*
X140898538Y-92273013D01*
X140898739Y-92272878D01*
X140890767Y-92261061D01*
X140876666Y-92235235D01*
X140861500Y-92175812D01*
X140861500Y-91949777D01*
X140861500Y-91949775D01*
X140849451Y-91904811D01*
X140845262Y-91869770D01*
X140845592Y-91855894D01*
X140866865Y-91789345D01*
X140920740Y-91744860D01*
X140926342Y-91742461D01*
X140928579Y-91741504D01*
X140977374Y-91731500D01*
X145250222Y-91731500D01*
X145250225Y-91731500D01*
X145347254Y-91705501D01*
X145434247Y-91655276D01*
X145505276Y-91584247D01*
X145505276Y-91584246D01*
X146775847Y-90313673D01*
X146804093Y-90292528D01*
X146829400Y-90278709D01*
X146877063Y-90264103D01*
X150095404Y-89957603D01*
X150105007Y-89957063D01*
X150114649Y-89956898D01*
X150124259Y-89957107D01*
G37*
%TD.AperFunction*%
%TD*%
%TA.AperFunction,Conductor*%
%TO.N,PACK-*%
G36*
X132625000Y-139425000D02*
G01*
X133998367Y-139497282D01*
X134004408Y-139497748D01*
X135985685Y-139699496D01*
X135991696Y-139700257D01*
X136650000Y-139800000D01*
X137310010Y-139900002D01*
X137312593Y-139900421D01*
X139280304Y-140241118D01*
X139282749Y-140241568D01*
X139884240Y-140358817D01*
X139905573Y-140365003D01*
X141718150Y-141072069D01*
X141738029Y-141081960D01*
X144125800Y-142550356D01*
X145304749Y-143074333D01*
X145526003Y-143172668D01*
X145579268Y-143217883D01*
X145589185Y-143236146D01*
X146144690Y-144501852D01*
X146153608Y-144571150D01*
X146148637Y-144591330D01*
X145314715Y-147062824D01*
X142905130Y-154204101D01*
X142865046Y-154261328D01*
X142848599Y-154272437D01*
X141635149Y-154957495D01*
X141567093Y-154973312D01*
X141547433Y-154970594D01*
X136341166Y-153820144D01*
X131128803Y-152668346D01*
X131067590Y-152634660D01*
X131061614Y-152628202D01*
X130070081Y-151477302D01*
X130041237Y-151413664D01*
X130040320Y-151404914D01*
X129878506Y-149062881D01*
X129878216Y-149055495D01*
X129859591Y-147066506D01*
X129859743Y-147059116D01*
X130197182Y-140350117D01*
X130220209Y-140284154D01*
X130237960Y-140264283D01*
X131210420Y-139387017D01*
X131273380Y-139356730D01*
X131299984Y-139355262D01*
X132625000Y-139425000D01*
G37*
%TD.AperFunction*%
%TD*%
%TA.AperFunction,Conductor*%
%TO.N,CPACK+*%
G36*
X150531637Y-68560545D02*
G01*
X153473279Y-69541093D01*
X153520250Y-69569575D01*
X156462183Y-72413444D01*
X156477843Y-72441002D01*
X156494977Y-72467663D01*
X156495649Y-72472336D01*
X156496702Y-72474190D01*
X156500000Y-72502598D01*
X156500000Y-72569190D01*
X156492182Y-72612523D01*
X156439408Y-72754017D01*
X156433001Y-72813616D01*
X156433000Y-72813635D01*
X156433000Y-74286370D01*
X156433001Y-74286376D01*
X156439408Y-74345983D01*
X156492182Y-74487474D01*
X156500000Y-74530807D01*
X156500000Y-75017868D01*
X156484395Y-75078088D01*
X155619321Y-76635220D01*
X155569557Y-76684263D01*
X155510927Y-76699000D01*
X155348130Y-76699000D01*
X155348123Y-76699001D01*
X155288516Y-76705408D01*
X155153671Y-76755702D01*
X155153664Y-76755706D01*
X155038455Y-76841952D01*
X155038452Y-76841955D01*
X154952206Y-76957164D01*
X154952202Y-76957171D01*
X154901908Y-77092017D01*
X154895501Y-77151616D01*
X154895500Y-77151635D01*
X154895500Y-77905966D01*
X154879896Y-77966186D01*
X154013575Y-79525564D01*
X153977253Y-79566247D01*
X150515172Y-82039162D01*
X150482310Y-82055896D01*
X147543090Y-83035636D01*
X147473266Y-83038161D01*
X147457826Y-83033130D01*
X145004790Y-82051916D01*
X144995396Y-82047698D01*
X144000000Y-81550000D01*
X140089374Y-81550000D01*
X140022335Y-81530315D01*
X139976580Y-81477511D01*
X139971737Y-81465212D01*
X139536446Y-80159340D01*
X139533922Y-80089519D01*
X139569547Y-80029414D01*
X139606387Y-80005671D01*
X140677109Y-79559538D01*
X140724801Y-79550000D01*
X141999999Y-79550000D01*
X142000000Y-79550000D01*
X142003738Y-79547421D01*
X142070101Y-79525565D01*
X142074122Y-79525499D01*
X142223344Y-79525499D01*
X142223352Y-79525498D01*
X142223355Y-79525498D01*
X142277760Y-79519940D01*
X142322708Y-79515349D01*
X142483697Y-79462003D01*
X142628044Y-79372968D01*
X142747968Y-79253044D01*
X142837003Y-79108697D01*
X142890349Y-78947708D01*
X142900500Y-78848345D01*
X142900499Y-78762756D01*
X142904245Y-78748174D01*
X142903414Y-78736032D01*
X142915844Y-78703009D01*
X142991504Y-78565446D01*
X143012467Y-78537532D01*
X144424918Y-77125081D01*
X144447488Y-77107235D01*
X144503044Y-77072968D01*
X144622968Y-76953044D01*
X144712003Y-76808697D01*
X144713048Y-76805541D01*
X144735182Y-76765535D01*
X145046378Y-76389130D01*
X144813814Y-76166810D01*
X144778957Y-76106256D01*
X144775499Y-76077177D01*
X144775499Y-75951662D01*
X144775498Y-75951644D01*
X144765349Y-75852292D01*
X144765348Y-75852289D01*
X144712003Y-75691303D01*
X144711999Y-75691297D01*
X144711998Y-75691294D01*
X144622970Y-75546959D01*
X144622967Y-75546955D01*
X144503044Y-75427032D01*
X144503040Y-75427029D01*
X144358705Y-75338001D01*
X144358699Y-75337998D01*
X144358697Y-75337997D01*
X144358694Y-75337996D01*
X144197709Y-75284651D01*
X144098352Y-75274500D01*
X143930121Y-75274500D01*
X143863082Y-75254815D01*
X143844436Y-75240133D01*
X143538315Y-74947496D01*
X143503458Y-74886942D01*
X143500000Y-74857863D01*
X143500000Y-71620142D01*
X143519685Y-71553103D01*
X143560118Y-71513864D01*
X146827321Y-69550000D01*
X147420560Y-69193413D01*
X147459350Y-69178257D01*
X150467340Y-68556748D01*
X150531637Y-68560545D01*
G37*
%TD.AperFunction*%
%TD*%
%TA.AperFunction,Conductor*%
%TO.N,Net-(ChD1-K)*%
G36*
X148943039Y-84069685D02*
G01*
X148988794Y-84122489D01*
X149000000Y-84174000D01*
X149000000Y-86029876D01*
X148993637Y-86069089D01*
X148886761Y-86389713D01*
X148846886Y-86447087D01*
X148782323Y-86473796D01*
X148769124Y-86474500D01*
X148287129Y-86474500D01*
X148287123Y-86474501D01*
X148227516Y-86480908D01*
X148092671Y-86531202D01*
X148092664Y-86531206D01*
X147977455Y-86617452D01*
X147977452Y-86617455D01*
X147891206Y-86732664D01*
X147891202Y-86732671D01*
X147840908Y-86867517D01*
X147834501Y-86927116D01*
X147834500Y-86927135D01*
X147834500Y-87776717D01*
X147814815Y-87843756D01*
X147798181Y-87864398D01*
X146913315Y-88749263D01*
X146900461Y-88760460D01*
X144638409Y-90472285D01*
X144372200Y-90673741D01*
X144340965Y-90697378D01*
X144275629Y-90722136D01*
X144266138Y-90722500D01*
X140482409Y-90722500D01*
X140464265Y-90717172D01*
X140445357Y-90716835D01*
X140417136Y-90703333D01*
X140415370Y-90702815D01*
X140413579Y-90701642D01*
X140371826Y-90673744D01*
X140371822Y-90673741D01*
X140345051Y-90655853D01*
X140345044Y-90655849D01*
X140311601Y-90641997D01*
X140230851Y-90608549D01*
X140230843Y-90608547D01*
X140109623Y-90584435D01*
X140109619Y-90584435D01*
X140019973Y-90584435D01*
X139952934Y-90564750D01*
X139907179Y-90511946D01*
X139896541Y-90472285D01*
X139828613Y-89764723D01*
X139835863Y-89709542D01*
X139844091Y-89687483D01*
X139850500Y-89627873D01*
X139850499Y-89112128D01*
X139845245Y-89063252D01*
X139845245Y-89036746D01*
X139850500Y-88987873D01*
X139850499Y-88494239D01*
X139852056Y-88474649D01*
X139996430Y-87572310D01*
X140011211Y-87530380D01*
X140355923Y-86927135D01*
X141898449Y-84227713D01*
X141948801Y-84179273D01*
X141994666Y-84166739D01*
X141994571Y-84165854D01*
X142057483Y-84159091D01*
X142192328Y-84108797D01*
X142192327Y-84108797D01*
X142192331Y-84108796D01*
X142237833Y-84074732D01*
X142303297Y-84050316D01*
X142312144Y-84050000D01*
X148876000Y-84050000D01*
X148943039Y-84069685D01*
G37*
%TD.AperFunction*%
%TD*%
%TA.AperFunction,Conductor*%
%TO.N,BAT-*%
G36*
X179230893Y-123397289D02*
G01*
X180618350Y-123725554D01*
X180658688Y-123743121D01*
X180666881Y-123748595D01*
X180666888Y-123748599D01*
X180803461Y-123805169D01*
X180803466Y-123805171D01*
X180803470Y-123805171D01*
X180803471Y-123805172D01*
X180948458Y-123834013D01*
X180948461Y-123834013D01*
X180948462Y-123834013D01*
X181062292Y-123834013D01*
X181090841Y-123837344D01*
X181143239Y-123849741D01*
X181203946Y-123884332D01*
X181236314Y-123946252D01*
X181237938Y-123984043D01*
X180982237Y-126295633D01*
X180955301Y-126360102D01*
X180897787Y-126399774D01*
X180858989Y-126406000D01*
X179663429Y-126406000D01*
X179559785Y-126426617D01*
X179535593Y-126429000D01*
X179245009Y-126429000D01*
X179231375Y-126428248D01*
X179010866Y-126403855D01*
X178946397Y-126376919D01*
X178906726Y-126319404D01*
X178900500Y-126280607D01*
X178900500Y-123695807D01*
X178920185Y-123628768D01*
X178936814Y-123608131D01*
X179114670Y-123430275D01*
X179175989Y-123396793D01*
X179230893Y-123397289D01*
G37*
%TD.AperFunction*%
%TD*%
%TA.AperFunction,Conductor*%
%TO.N,CD*%
G36*
X139393106Y-87055023D02*
G01*
X139408104Y-87059427D01*
X139423094Y-87069057D01*
X139440175Y-87074067D01*
X139466855Y-87097172D01*
X139468042Y-87098541D01*
X139495518Y-87153402D01*
X139497163Y-87160960D01*
X139500000Y-87187331D01*
X139500000Y-87466599D01*
X139497643Y-87489674D01*
X139497721Y-87489687D01*
X139497501Y-87491056D01*
X139497439Y-87491672D01*
X139497280Y-87492438D01*
X139450982Y-87781802D01*
X139352905Y-88394785D01*
X139348145Y-88434599D01*
X139346588Y-88454189D01*
X139344999Y-88494240D01*
X139344999Y-88960774D01*
X139342642Y-88982704D01*
X139339745Y-89036746D01*
X139339745Y-89063252D01*
X139342641Y-89117280D01*
X139344999Y-89139216D01*
X139344999Y-89445624D01*
X139325314Y-89512663D01*
X139272510Y-89558418D01*
X139260212Y-89563261D01*
X139056854Y-89631048D01*
X139050258Y-89633044D01*
X139046263Y-89634133D01*
X139013647Y-89638500D01*
X138969775Y-89638500D01*
X138872746Y-89664499D01*
X138872739Y-89664501D01*
X138868079Y-89666431D01*
X138867228Y-89667187D01*
X138847638Y-89672541D01*
X138833484Y-89677533D01*
X138824075Y-89679000D01*
X138821990Y-89678843D01*
X138817685Y-89679996D01*
X138811121Y-89681020D01*
X138807191Y-89680502D01*
X138792017Y-89682500D01*
X138677439Y-89682500D01*
X138640251Y-89689897D01*
X138640250Y-89689897D01*
X138598078Y-89718075D01*
X138598076Y-89718078D01*
X138574929Y-89752719D01*
X138561061Y-89768157D01*
X138551344Y-89778974D01*
X138528410Y-89798140D01*
X138488107Y-89820629D01*
X138000000Y-89983333D01*
X138000000Y-91050000D01*
X138651833Y-91484555D01*
X138726734Y-91534489D01*
X138839849Y-91609899D01*
X138839852Y-91609901D01*
X139040093Y-91743395D01*
X139040096Y-91743397D01*
X139163471Y-91825647D01*
X139174869Y-91833246D01*
X139201150Y-91856804D01*
X139219065Y-91878195D01*
X139243776Y-91925716D01*
X139275325Y-92043457D01*
X139275328Y-92043466D01*
X139275332Y-92043474D01*
X139348304Y-92169866D01*
X139348325Y-92169902D01*
X139348327Y-92169905D01*
X139348328Y-92169906D01*
X139451568Y-92273146D01*
X139451569Y-92273147D01*
X139451571Y-92273148D01*
X139458619Y-92277217D01*
X139469183Y-92287497D01*
X139469684Y-92288386D01*
X139472442Y-92290789D01*
X139487420Y-92306498D01*
X139517118Y-92358756D01*
X139518885Y-92365092D01*
X139523156Y-92389975D01*
X139559532Y-92923979D01*
X139559758Y-92928521D01*
X139559902Y-92933115D01*
X139559961Y-92937701D01*
X139500472Y-103466259D01*
X139495252Y-103501163D01*
X139489184Y-103521406D01*
X139458576Y-103572991D01*
X139454036Y-103577582D01*
X139434649Y-103593566D01*
X136536492Y-105525670D01*
X136510861Y-105538745D01*
X136484431Y-105548556D01*
X136456473Y-105555373D01*
X131247399Y-106198519D01*
X131212110Y-106197814D01*
X131179259Y-106192419D01*
X131143900Y-106180967D01*
X130030828Y-105624431D01*
X130030827Y-105624431D01*
X130001826Y-105604315D01*
X129991663Y-105594862D01*
X129955981Y-105534791D01*
X129958436Y-105464981D01*
X129959007Y-105463265D01*
X129989773Y-105413913D01*
X129993191Y-105410555D01*
X129993190Y-105410554D01*
X130016760Y-105387395D01*
X130026872Y-105375506D01*
X130105477Y-105296902D01*
X130190784Y-105169232D01*
X130249545Y-105027372D01*
X130279500Y-104876774D01*
X130279500Y-104723226D01*
X130249545Y-104572628D01*
X130190784Y-104430768D01*
X130105477Y-104303098D01*
X130105474Y-104303094D01*
X130105469Y-104303088D01*
X129996910Y-104194529D01*
X129996911Y-104194529D01*
X129869229Y-104109214D01*
X129869226Y-104109212D01*
X129727377Y-104050457D01*
X129727377Y-104050456D01*
X129727351Y-104050449D01*
X129576782Y-104020500D01*
X129576778Y-104020500D01*
X129576774Y-104020500D01*
X129423226Y-104020500D01*
X129423221Y-104020500D01*
X129423216Y-104020500D01*
X129272647Y-104050449D01*
X129272621Y-104050456D01*
X129272621Y-104050457D01*
X129130772Y-104109212D01*
X129130769Y-104109214D01*
X129003088Y-104194529D01*
X128894529Y-104303088D01*
X128809214Y-104430769D01*
X128809212Y-104430773D01*
X128751028Y-104571242D01*
X128746342Y-104581264D01*
X128735686Y-104601635D01*
X128687170Y-104651914D01*
X128619173Y-104667982D01*
X128559305Y-104648816D01*
X128552167Y-104644280D01*
X128530329Y-104626638D01*
X125551188Y-101601970D01*
X125530254Y-101573559D01*
X125518307Y-101551281D01*
X125503799Y-101485398D01*
X125998981Y-93067310D01*
X126000193Y-93055852D01*
X126001935Y-93044470D01*
X126004202Y-93033187D01*
X126040522Y-92887905D01*
X126048451Y-92865552D01*
X126058350Y-92844340D01*
X126070390Y-92823909D01*
X126153869Y-92709012D01*
X126262810Y-92495205D01*
X126334606Y-92274238D01*
X126343459Y-92253584D01*
X126360194Y-92222640D01*
X126379043Y-92196563D01*
X126404178Y-92169905D01*
X126728761Y-91825650D01*
X126781133Y-91743397D01*
X126796115Y-91705666D01*
X126814433Y-91609899D01*
X126814433Y-91569423D01*
X126819456Y-91534489D01*
X126826793Y-91509501D01*
X126859176Y-91455680D01*
X130624907Y-87781799D01*
X131230435Y-87104631D01*
X131257456Y-87081944D01*
X131278872Y-87068649D01*
X131344272Y-87050000D01*
X139358170Y-87050000D01*
X139393106Y-87055023D01*
G37*
%TD.AperFunction*%
%TD*%
%TA.AperFunction,Conductor*%
%TO.N,BAT-*%
G36*
X130893106Y-85055023D02*
G01*
X130908104Y-85059427D01*
X130923094Y-85069057D01*
X130940175Y-85074067D01*
X130966855Y-85097172D01*
X130968042Y-85098541D01*
X130995518Y-85153402D01*
X130997163Y-85160960D01*
X131000000Y-85187331D01*
X131000000Y-86925670D01*
X130980315Y-86992709D01*
X130968434Y-87008325D01*
X130440180Y-87599075D01*
X130434338Y-87605177D01*
X128066128Y-89915624D01*
X128004396Y-89948349D01*
X127985728Y-89950712D01*
X126522500Y-90023873D01*
X126522500Y-90023874D01*
X126522498Y-90023873D01*
X126522497Y-90023874D01*
X126487357Y-90020603D01*
X126472156Y-90016953D01*
X126411567Y-89982163D01*
X126411446Y-89982037D01*
X126411339Y-89981925D01*
X126380528Y-89925642D01*
X126378085Y-89915624D01*
X126378028Y-89915390D01*
X126374500Y-89886019D01*
X126374500Y-88956510D01*
X126376025Y-88937123D01*
X126379043Y-88918066D01*
X126383580Y-88899168D01*
X126396462Y-88859523D01*
X126434000Y-88622520D01*
X126434000Y-88382548D01*
X126396462Y-88145546D01*
X126365190Y-88049302D01*
X126359177Y-88014662D01*
X126358879Y-88004233D01*
X126358864Y-88004132D01*
X126358759Y-88000567D01*
X126366727Y-87970123D01*
X126372914Y-87939262D01*
X126375507Y-87936581D01*
X126376452Y-87932975D01*
X126399612Y-87911674D01*
X126421504Y-87889054D01*
X126425134Y-87888201D01*
X126427879Y-87885678D01*
X126458883Y-87880279D01*
X126489525Y-87873087D01*
X126495088Y-87873975D01*
X126496713Y-87873693D01*
X126498785Y-87874566D01*
X126514796Y-87877124D01*
X126539810Y-87883826D01*
X126550203Y-87887353D01*
X126552740Y-87888033D01*
X126552746Y-87888036D01*
X126649775Y-87914035D01*
X126649778Y-87914035D01*
X126750222Y-87914035D01*
X126750223Y-87914035D01*
X126750225Y-87914035D01*
X126847254Y-87888036D01*
X126847255Y-87888034D01*
X126849797Y-87887354D01*
X126860183Y-87883827D01*
X126891822Y-87875349D01*
X126895894Y-87874259D01*
X126927983Y-87870035D01*
X127042559Y-87870035D01*
X127049957Y-87868563D01*
X127049957Y-87868564D01*
X127049961Y-87868562D01*
X127079748Y-87862637D01*
X127121922Y-87834457D01*
X127150102Y-87792283D01*
X127157500Y-87755093D01*
X127157500Y-87309977D01*
X127150102Y-87272787D01*
X127121922Y-87230613D01*
X127118538Y-87225548D01*
X127118739Y-87225413D01*
X127110767Y-87213596D01*
X127096666Y-87187770D01*
X127081500Y-87128347D01*
X127081500Y-86079857D01*
X127086523Y-86044922D01*
X127092425Y-86024822D01*
X127122972Y-85972831D01*
X127127730Y-85967991D01*
X127147358Y-85951759D01*
X128453928Y-85080714D01*
X128485778Y-85065516D01*
X128517484Y-85055625D01*
X128554410Y-85050000D01*
X130858170Y-85050000D01*
X130893106Y-85055023D01*
G37*
%TD.AperFunction*%
%TD*%
%TA.AperFunction,Conductor*%
%TO.N,DPACK+*%
G36*
X180993106Y-84555023D02*
G01*
X181008104Y-84559427D01*
X181023094Y-84569057D01*
X181040175Y-84574067D01*
X181066855Y-84597172D01*
X181068042Y-84598541D01*
X181095518Y-84653402D01*
X181097163Y-84660960D01*
X181100000Y-84687331D01*
X181100000Y-100065807D01*
X181094976Y-100100744D01*
X181089074Y-100120843D01*
X181081740Y-100133321D01*
X181079422Y-100144423D01*
X181058508Y-100172852D01*
X181053755Y-100177685D01*
X181034128Y-100193913D01*
X174552655Y-104514894D01*
X174520803Y-104530093D01*
X174499623Y-104536701D01*
X174441687Y-104540536D01*
X174437143Y-104539755D01*
X174414817Y-104533730D01*
X174381349Y-104521248D01*
X174345996Y-104494784D01*
X174244083Y-104483828D01*
X174239242Y-104483000D01*
X174236381Y-104483000D01*
X174236373Y-104483000D01*
X174236364Y-104483000D01*
X172763629Y-104483000D01*
X172763623Y-104483000D01*
X172761692Y-104483159D01*
X172760045Y-104483385D01*
X172704016Y-104489408D01*
X172569166Y-104539704D01*
X172569165Y-104539705D01*
X172453956Y-104625950D01*
X172453950Y-104625956D01*
X172367705Y-104741165D01*
X172367703Y-104741168D01*
X172317407Y-104876016D01*
X172311001Y-104935616D01*
X172311000Y-104935639D01*
X172311000Y-105925139D01*
X172310999Y-105925140D01*
X172311000Y-105925141D01*
X172305976Y-105960076D01*
X172300074Y-105980175D01*
X172269508Y-106032184D01*
X172264755Y-106037017D01*
X172245128Y-106053245D01*
X170046075Y-107519282D01*
X170014228Y-107534479D01*
X170013252Y-107534783D01*
X170005684Y-107538317D01*
X170004135Y-107535000D01*
X169953383Y-107550000D01*
X169873479Y-107550000D01*
X169856326Y-107548808D01*
X169854435Y-107548543D01*
X169833582Y-107544972D01*
X169833425Y-107545609D01*
X169786605Y-107539070D01*
X169786508Y-107539026D01*
X169786113Y-107539000D01*
X169742388Y-107532714D01*
X169684912Y-107524451D01*
X169684910Y-107524451D01*
X169684908Y-107524451D01*
X168382332Y-107524451D01*
X168360873Y-107522580D01*
X168351545Y-107520941D01*
X168348717Y-107519541D01*
X168347391Y-107519426D01*
X168343019Y-107518142D01*
X168343302Y-107517176D01*
X168327227Y-107513074D01*
X168326971Y-107513761D01*
X168324123Y-107512699D01*
X168323277Y-107512066D01*
X168321517Y-107511617D01*
X168318809Y-107510381D01*
X168319373Y-107509144D01*
X168307443Y-107500214D01*
X168297715Y-107497363D01*
X168293064Y-107492000D01*
X168288924Y-107489952D01*
X168285010Y-107483423D01*
X168272933Y-107474384D01*
X168271907Y-107475274D01*
X168270992Y-107474218D01*
X168270098Y-107472262D01*
X168268187Y-107470832D01*
X168268175Y-107470816D01*
X168266348Y-107468375D01*
X168267818Y-107467274D01*
X168263588Y-107458017D01*
X168251935Y-107444581D01*
X168241976Y-107410721D01*
X168241767Y-107409271D01*
X168240499Y-107391593D01*
X168240499Y-107352317D01*
X168242882Y-107328127D01*
X168248208Y-107301354D01*
X168250896Y-107290625D01*
X168280000Y-107144314D01*
X168280000Y-106995687D01*
X168279999Y-106995686D01*
X168254524Y-106867611D01*
X168251007Y-106849927D01*
X168251005Y-106849923D01*
X168251005Y-106849920D01*
X168251004Y-106849918D01*
X168250374Y-106846749D01*
X168249924Y-106845170D01*
X168249929Y-106844509D01*
X168249389Y-106841792D01*
X168249386Y-106841785D01*
X168249160Y-106840650D01*
X168247552Y-106835353D01*
X168242879Y-106811862D01*
X168240499Y-106787679D01*
X168240499Y-106692530D01*
X168240499Y-106692129D01*
X168240498Y-106692123D01*
X168238711Y-106675500D01*
X168234091Y-106632517D01*
X168228973Y-106618796D01*
X168183797Y-106497671D01*
X168183793Y-106497664D01*
X168097547Y-106382455D01*
X168063960Y-106357311D01*
X168039004Y-106332354D01*
X168025375Y-106314147D01*
X168002613Y-106261846D01*
X168001969Y-106258275D01*
X168001158Y-106249213D01*
X168000960Y-106248682D01*
X168001066Y-106248191D01*
X168000000Y-106236268D01*
X168000001Y-105978572D01*
X168000000Y-105978571D01*
X167999999Y-105978570D01*
X161249469Y-103567666D01*
X161249466Y-103567665D01*
X161218258Y-103551185D01*
X161193399Y-103533112D01*
X161163214Y-103501707D01*
X161121799Y-103439724D01*
X161121786Y-103439707D01*
X161121781Y-103439701D01*
X161010297Y-103328217D01*
X161010291Y-103328212D01*
X161010290Y-103328211D01*
X160879191Y-103240613D01*
X160879190Y-103240612D01*
X160879185Y-103240609D01*
X160879172Y-103240602D01*
X160879165Y-103240598D01*
X160733502Y-103180264D01*
X160733471Y-103180257D01*
X160578847Y-103149500D01*
X160578845Y-103149500D01*
X160578842Y-103149500D01*
X160421158Y-103149500D01*
X160421156Y-103149500D01*
X160421153Y-103149500D01*
X160262691Y-103181020D01*
X160262639Y-103180762D01*
X160252843Y-103182632D01*
X160252044Y-103182727D01*
X160235963Y-103184456D01*
X160234179Y-103184870D01*
X160228927Y-103185500D01*
X160197292Y-103180191D01*
X160165465Y-103176419D01*
X160161542Y-103174193D01*
X160160021Y-103173938D01*
X160158238Y-103172319D01*
X160141250Y-103162680D01*
X160137058Y-103159632D01*
X160117853Y-103135632D01*
X160108304Y-103126957D01*
X160106988Y-103122054D01*
X160096130Y-103108484D01*
X160091518Y-103097803D01*
X160082920Y-103068248D01*
X160074377Y-103014858D01*
X159902546Y-101940914D01*
X159906045Y-101913499D01*
X159906168Y-101885865D01*
X159910871Y-101875683D01*
X159911392Y-101871609D01*
X159920961Y-101853841D01*
X159925389Y-101847017D01*
X159934640Y-101839073D01*
X159944859Y-101816908D01*
X159947857Y-101813472D01*
X159952608Y-101800882D01*
X159956055Y-101792656D01*
X159958610Y-101787123D01*
X159960100Y-101781568D01*
X159961909Y-101775829D01*
X159962044Y-101775880D01*
X159962224Y-101775403D01*
X159965251Y-101765231D01*
X159965539Y-101764319D01*
X159965610Y-101764212D01*
X159966902Y-101760247D01*
X159972213Y-101745253D01*
X159972270Y-101745061D01*
X159972269Y-101745060D01*
X159978740Y-101723266D01*
X159979772Y-101719790D01*
X159979772Y-101719789D01*
X159979776Y-101719776D01*
X159983125Y-101708494D01*
X159984204Y-101701446D01*
X159984769Y-101699024D01*
X159984775Y-101699003D01*
X159985252Y-101696493D01*
X159986427Y-101691012D01*
X159989109Y-101679740D01*
X159989734Y-101677113D01*
X159990854Y-101669880D01*
X159992211Y-101662588D01*
X159995331Y-101648256D01*
X159996143Y-101642607D01*
X159996141Y-101642606D01*
X159997651Y-101632112D01*
X159997652Y-101632111D01*
X159998055Y-101629303D01*
X160000225Y-101617920D01*
X160000118Y-101614974D01*
X160000346Y-101613391D01*
X160000349Y-101613348D01*
X160001415Y-101605933D01*
X160001415Y-101605931D01*
X160001923Y-101602391D01*
X160001928Y-101599474D01*
X160002070Y-101597558D01*
X160002073Y-101597540D01*
X160002446Y-101592516D01*
X160002463Y-101587780D01*
X160002778Y-101579404D01*
X160005500Y-101541390D01*
X160005500Y-100101202D01*
X160000893Y-100033107D01*
X159996393Y-100000006D01*
X159982656Y-99933161D01*
X159973983Y-99901850D01*
X159951372Y-99837470D01*
X159938201Y-99806773D01*
X159938197Y-99806765D01*
X159938197Y-99806763D01*
X159907130Y-99746037D01*
X159907123Y-99746026D01*
X159907118Y-99746015D01*
X159857069Y-99662601D01*
X159777671Y-99530269D01*
X159760000Y-99466472D01*
X159760000Y-98550000D01*
X158587293Y-97153920D01*
X158568671Y-97123944D01*
X158562395Y-97109625D01*
X158554817Y-97050511D01*
X158553455Y-97050511D01*
X158553455Y-97050510D01*
X158554402Y-97047281D01*
X158553511Y-97040328D01*
X158555004Y-97030970D01*
X158557749Y-97031408D01*
X158561188Y-97024171D01*
X158573140Y-96983471D01*
X158574874Y-96981968D01*
X158574354Y-96981621D01*
X158597766Y-96946581D01*
X158609394Y-96929179D01*
X158669737Y-96783497D01*
X158700500Y-96628842D01*
X158700500Y-96471158D01*
X158700500Y-96471155D01*
X158700500Y-96470973D01*
X158700065Y-96468972D01*
X158670397Y-96319824D01*
X158669994Y-96317467D01*
X158669738Y-96316508D01*
X158669737Y-96316506D01*
X158669737Y-96316503D01*
X158669735Y-96316498D01*
X158609397Y-96170827D01*
X158609390Y-96170814D01*
X158558302Y-96094356D01*
X158546917Y-96073094D01*
X158544752Y-96067891D01*
X158542968Y-96062192D01*
X158541382Y-96059789D01*
X158537073Y-96049431D01*
X158536635Y-96045417D01*
X158528912Y-96020054D01*
X158528849Y-96019639D01*
X158527500Y-96001393D01*
X158527500Y-95828197D01*
X158527363Y-95827511D01*
X158527349Y-95827441D01*
X158503569Y-95707890D01*
X158501787Y-95695883D01*
X158500595Y-95683784D01*
X158500000Y-95671639D01*
X158500000Y-95096510D01*
X158500336Y-95089649D01*
X158500202Y-95089642D01*
X158501724Y-95061147D01*
X158501964Y-95057605D01*
X158505500Y-95014892D01*
X158505500Y-93101458D01*
X158500848Y-93033039D01*
X158496305Y-92999783D01*
X158482438Y-92932632D01*
X158473686Y-92901194D01*
X158450857Y-92836531D01*
X158437564Y-92805717D01*
X158406192Y-92744739D01*
X158255952Y-92495818D01*
X158017838Y-92101304D01*
X158000000Y-92037229D01*
X158000000Y-91119191D01*
X158005022Y-91084258D01*
X158012434Y-91059013D01*
X158043728Y-91006271D01*
X158951076Y-90098923D01*
X158979326Y-90077775D01*
X159002418Y-90065167D01*
X159061843Y-90050000D01*
X160499999Y-90050000D01*
X160500000Y-90050000D01*
X161389073Y-88545414D01*
X175141500Y-88545414D01*
X175141500Y-88854584D01*
X175181851Y-89161093D01*
X175181852Y-89161098D01*
X175181853Y-89161104D01*
X175221863Y-89310423D01*
X175261872Y-89459740D01*
X175379902Y-89744688D01*
X175380162Y-89745326D01*
X175380186Y-89745376D01*
X175380188Y-89745379D01*
X175534770Y-90013123D01*
X175534771Y-90013124D01*
X175534773Y-90013127D01*
X175722972Y-90258394D01*
X175722976Y-90258399D01*
X175722979Y-90258402D01*
X175722985Y-90258409D01*
X175941590Y-90477014D01*
X175941597Y-90477020D01*
X175941600Y-90477022D01*
X175941604Y-90477026D01*
X176136284Y-90626408D01*
X176186876Y-90665229D01*
X176355548Y-90762612D01*
X176451160Y-90817814D01*
X176456375Y-90820824D01*
X176456394Y-90820835D01*
X176456980Y-90821173D01*
X176462119Y-90822917D01*
X176740258Y-90938127D01*
X177038892Y-91018146D01*
X177268785Y-91048411D01*
X177345414Y-91058500D01*
X177345415Y-91058500D01*
X177345416Y-91058500D01*
X177654578Y-91058500D01*
X177654585Y-91058500D01*
X177715888Y-91050429D01*
X177961108Y-91018146D01*
X178259742Y-90938127D01*
X178545376Y-90819813D01*
X178813124Y-90665229D01*
X179058404Y-90477019D01*
X179277019Y-90258404D01*
X179465229Y-90013124D01*
X179619813Y-89745376D01*
X179738127Y-89459742D01*
X179818146Y-89161108D01*
X179858500Y-88854584D01*
X179858500Y-88545416D01*
X179818146Y-88238892D01*
X179738127Y-87940258D01*
X179619813Y-87654624D01*
X179619811Y-87654620D01*
X179465232Y-87386880D01*
X179330848Y-87211748D01*
X179299444Y-87170821D01*
X179277020Y-87141597D01*
X179277014Y-87141590D01*
X179058409Y-86922985D01*
X179058402Y-86922979D01*
X179058399Y-86922976D01*
X179058394Y-86922972D01*
X178813127Y-86734773D01*
X178813126Y-86734772D01*
X178813123Y-86734770D01*
X178545379Y-86580188D01*
X178545380Y-86580188D01*
X178545376Y-86580186D01*
X178545326Y-86580162D01*
X178544688Y-86579902D01*
X178259740Y-86461872D01*
X178110423Y-86421863D01*
X177961104Y-86381853D01*
X177961098Y-86381852D01*
X177961093Y-86381851D01*
X177654586Y-86341500D01*
X177654585Y-86341500D01*
X177654584Y-86341500D01*
X177345416Y-86341500D01*
X177345415Y-86341500D01*
X177345414Y-86341500D01*
X177038905Y-86381851D01*
X177038898Y-86381852D01*
X177038895Y-86381853D01*
X176979959Y-86397645D01*
X176740258Y-86461872D01*
X176455310Y-86579902D01*
X176454680Y-86580158D01*
X176454622Y-86580186D01*
X176186871Y-86734773D01*
X175941604Y-86922972D01*
X175941589Y-86922986D01*
X175941581Y-86922993D01*
X175722993Y-87141581D01*
X175722986Y-87141589D01*
X175722972Y-87141604D01*
X175534773Y-87386871D01*
X175380186Y-87654622D01*
X175380158Y-87654680D01*
X175379902Y-87655310D01*
X175261872Y-87940258D01*
X175181854Y-88238892D01*
X175181851Y-88238905D01*
X175141500Y-88545414D01*
X161389073Y-88545414D01*
X162177152Y-87211740D01*
X162199241Y-87184229D01*
X162220559Y-87164310D01*
X162261878Y-87138737D01*
X162374331Y-87096796D01*
X162489546Y-87010546D01*
X162575796Y-86895331D01*
X162626091Y-86760483D01*
X162632500Y-86700873D01*
X162632499Y-86491691D01*
X162636886Y-86459000D01*
X162645355Y-86428021D01*
X162658205Y-86397651D01*
X163704937Y-84626258D01*
X163727028Y-84598745D01*
X163741026Y-84585666D01*
X163797062Y-84555622D01*
X163806655Y-84553345D01*
X163835268Y-84550000D01*
X180958170Y-84550000D01*
X180993106Y-84555023D01*
G37*
%TD.AperFunction*%
%TD*%
M02*
