%TF.GenerationSoftware,KiCad,Pcbnew,10.0.4*%
%TF.CreationDate,2026-09-02T23:18:37-04:00*%
%TF.ProjectId,Aqua BMS Monitor(MAIN),41717561-2042-44d5-9320-4d6f6e69746f,rev?*%
%TF.SameCoordinates,Original*%
%TF.FileFunction,Soldermask,Bot*%
%TF.FilePolarity,Negative*%
%FSLAX46Y46*%
G04 Gerber Fmt 4.6, Leading zero omitted, Abs format (unit mm)*
G04 Created by KiCad (PCBNEW 10.0.4) date 2026-09-02 23:18:37*
%MOMM*%
%LPD*%
G01*
G04 APERTURE LIST*
G04 Aperture macros list*
%AMRoundRect*
0 Rectangle with rounded corners*
0 $1 Rounding radius*
0 $2 $3 $4 $5 $6 $7 $8 $9 X,Y pos of 4 corners*
0 Add a 4 corners polygon primitive as box body*
4,1,4,$2,$3,$4,$5,$6,$7,$8,$9,$2,$3,0*
0 Add four circle primitives for the rounded corners*
1,1,$1+$1,$2,$3*
1,1,$1+$1,$4,$5*
1,1,$1+$1,$6,$7*
1,1,$1+$1,$8,$9*
0 Add four rect primitives between the rounded corners*
20,1,$1+$1,$2,$3,$4,$5,0*
20,1,$1+$1,$4,$5,$6,$7,0*
20,1,$1+$1,$6,$7,$8,$9,0*
20,1,$1+$1,$8,$9,$2,$3,0*%
G04 Aperture macros list end*
%ADD10R,1.300000X1.300000*%
%ADD11C,1.300000*%
%ADD12C,3.600000*%
%ADD13C,6.400000*%
%ADD14RoundRect,0.102000X1.858000X1.858000X-1.858000X1.858000X-1.858000X-1.858000X1.858000X-1.858000X0*%
%ADD15C,3.920000*%
%ADD16O,1.404000X2.604000*%
%ADD17C,1.270000*%
%ADD18C,1.712000*%
%ADD19C,1.050000*%
%ADD20C,0.600000*%
%ADD21O,2.000000X0.900000*%
%ADD22O,1.700000X0.900000*%
%ADD23R,1.800000X1.800000*%
%ADD24C,1.800000*%
%ADD25C,1.524000*%
%ADD26RoundRect,0.102000X1.858000X-1.858000X1.858000X1.858000X-1.858000X1.858000X-1.858000X-1.858000X0*%
%ADD27O,2.604000X1.404000*%
%ADD28RoundRect,0.102000X-1.858000X1.858000X-1.858000X-1.858000X1.858000X-1.858000X1.858000X1.858000X0*%
G04 APERTURE END LIST*
D10*
%TO.C,S1*%
X153582500Y-149895342D03*
D11*
X156082500Y-149895342D03*
X158582500Y-149895342D03*
X158582500Y-143895342D03*
X156082500Y-143895342D03*
X153582500Y-143895342D03*
%TD*%
D12*
%TO.C,H4*%
X182070000Y-68840000D03*
D13*
X182070000Y-68840000D03*
%TD*%
D14*
%TO.C,J6*%
X148000000Y-72550000D03*
D15*
X140800000Y-72550000D03*
D16*
X151150000Y-66550000D03*
X137650000Y-66550000D03*
%TD*%
D17*
%TO.C,better1*%
X114500000Y-82650000D03*
X114500000Y-87350000D03*
X114500000Y-92050000D03*
%TD*%
D18*
%TO.C,S3*%
X103000000Y-116050000D03*
X103000000Y-113550000D03*
X103000000Y-111050000D03*
%TD*%
D19*
%TO.C,TH1*%
X131000000Y-132840000D03*
X133540000Y-132840000D03*
%TD*%
D20*
%TO.C,J7*%
X184050000Y-133440000D03*
X184050000Y-127660000D03*
D21*
X183570000Y-134870000D03*
D22*
X187740000Y-134870000D03*
D21*
X183570000Y-126230000D03*
D22*
X187740000Y-126230000D03*
%TD*%
D12*
%TO.C,H2*%
X196070000Y-154440000D03*
D13*
X196070000Y-154440000D03*
%TD*%
D18*
%TO.C,S2*%
X108000000Y-116050000D03*
X108000000Y-113550000D03*
X108000000Y-111050000D03*
%TD*%
D23*
%TO.C,Cellin1*%
X75500000Y-129049250D03*
D24*
X75500000Y-126509250D03*
X75500000Y-123969250D03*
X75500000Y-121429250D03*
X75500000Y-118889250D03*
%TD*%
D18*
%TO.C,S4*%
X97000000Y-116050000D03*
X97000000Y-113550000D03*
X97000000Y-111050000D03*
%TD*%
D12*
%TO.C,H3*%
X101270000Y-67840000D03*
D13*
X101270000Y-67840000D03*
%TD*%
D25*
%TO.C,J1*%
X197500000Y-140300000D03*
X197500000Y-142300000D03*
X197500000Y-144300000D03*
%TD*%
D14*
%TO.C,J3*%
X121350000Y-72550000D03*
D15*
X114150000Y-72550000D03*
D16*
X124500000Y-66550000D03*
X111000000Y-66550000D03*
%TD*%
D19*
%TO.C,TH2*%
X135000000Y-130800000D03*
X137540000Y-130800000D03*
%TD*%
D26*
%TO.C,J4*%
X177500000Y-95900000D03*
D15*
X177500000Y-88700000D03*
D27*
X183500000Y-99050000D03*
X183500000Y-85550000D03*
%TD*%
D18*
%TO.C,S6*%
X85000000Y-116050000D03*
X85000000Y-113550000D03*
X85000000Y-111050000D03*
%TD*%
D19*
%TO.C,TH3*%
X129500000Y-104800000D03*
X126960000Y-104800000D03*
%TD*%
D28*
%TO.C,J2*%
X107000000Y-88700000D03*
D15*
X107000000Y-95900000D03*
D27*
X101000000Y-85550000D03*
X101000000Y-99050000D03*
%TD*%
D12*
%TO.C,H1*%
X75670000Y-154340000D03*
D13*
X75670000Y-154340000D03*
%TD*%
D18*
%TO.C,S5*%
X91000000Y-116050000D03*
X91000000Y-113550000D03*
X91000000Y-111050000D03*
%TD*%
M02*
