%TF.GenerationSoftware,KiCad,Pcbnew,10.0.4*%
%TF.CreationDate,2026-09-03T19:25:53-04:00*%
%TF.ProjectId,Aqua BMS Monitor(MAIN),41717561-2042-44d5-9320-4d6f6e69746f,rev?*%
%TF.SameCoordinates,Original*%
%TF.FileFunction,Soldermask,Top*%
%TF.FilePolarity,Negative*%
%FSLAX46Y46*%
G04 Gerber Fmt 4.6, Leading zero omitted, Abs format (unit mm)*
G04 Created by KiCad (PCBNEW 10.0.4) date 2026-09-03 19:25:53*
%MOMM*%
%LPD*%
G01*
G04 APERTURE LIST*
G04 Aperture macros list*
%AMRoundRect*
0 Rectangle with rounded corners*
0 $1 Rounding radius*
0 $2 $3 $4 $5 $6 $7 $8 $9 X,Y pos of 4 corners*
0 Add a 4 corners polygon primitive as box body*
4,1,4,$2,$3,$4,$5,$6,$7,$8,$9,$2,$3,0*
0 Add four circle primitives for the rounded corners*
1,1,$1+$1,$2,$3*
1,1,$1+$1,$4,$5*
1,1,$1+$1,$6,$7*
1,1,$1+$1,$8,$9*
0 Add four rect primitives between the rounded corners*
20,1,$1+$1,$2,$3,$4,$5,0*
20,1,$1+$1,$4,$5,$6,$7,0*
20,1,$1+$1,$6,$7,$8,$9,0*
20,1,$1+$1,$8,$9,$2,$3,0*%
%AMFreePoly0*
4,1,13,3.735221,0.735277,3.749866,0.699922,3.749866,-0.700075,3.735221,-0.735430,3.699866,-0.750075,-3.700120,-0.750075,-3.735475,-0.735430,-3.750120,-0.700075,-3.750120,0.699922,-3.735475,0.735277,-3.700120,0.749922,3.699866,0.749922,3.735221,0.735277,3.735221,0.735277,$1*%
%AMFreePoly1*
4,1,17,-0.265800,1.686313,1.134197,0.366326,1.149874,0.331416,1.149896,0.329946,1.149896,-0.330048,1.135251,-0.365403,1.134197,-0.366427,-0.265800,-1.686439,-0.300101,-1.700060,-0.400075,-1.700060,-0.435430,-1.685415,-0.450075,-1.650060,-0.450075,1.649933,-0.435430,1.685288,-0.400075,1.699933,-0.300101,1.699933,-0.265800,1.686313,-0.265800,1.686313,$1*%
%AMFreePoly2*
4,1,13,3.735221,0.735328,3.749866,0.699973,3.749866,-0.700024,3.735221,-0.735379,3.699866,-0.750024,-3.700120,-0.750024,-3.735475,-0.735379,-3.750120,-0.700024,-3.750120,0.699973,-3.735475,0.735328,-3.700120,0.749973,3.699866,0.749973,3.735221,0.735328,3.735221,0.735328,$1*%
%AMFreePoly3*
4,1,53,-0.729566,1.835301,-0.714921,1.799946,-0.714921,1.379944,-0.584924,1.379944,-0.584924,1.799946,-0.570279,1.835301,-0.534924,1.849946,-0.114935,1.849946,-0.079580,1.835301,-0.064935,1.799946,-0.064935,1.379944,0.065087,1.379944,0.065087,1.799946,0.079732,1.835301,0.115087,1.849946,0.535076,1.849946,0.570431,1.835301,0.585076,1.799946,0.585076,1.379944,0.715073,1.379944,
0.715073,1.799946,0.729718,1.835301,0.765073,1.849946,1.185062,1.849946,1.220417,1.835301,1.235062,1.799946,1.235062,0.334937,1.730070,0.334937,1.765425,0.320292,1.780070,0.284937,1.780070,-0.285039,1.765425,-0.320394,1.730070,-0.335039,1.235062,-0.335039,1.235062,-0.465049,1.220417,-0.500404,1.185062,-0.515049,-1.184910,-0.515049,-1.220265,-0.500404,-1.234910,-0.465049,
-1.234910,-0.335039,-1.750035,-0.335039,-1.785390,-0.320394,-1.800035,-0.285039,-1.800035,0.284937,-1.785390,0.320292,-1.750035,0.334937,-1.234910,0.334937,-1.234910,1.799946,-1.220265,1.835301,-1.184910,1.849946,-0.764921,1.849946,-0.729566,1.835301,-0.729566,1.835301,$1*%
G04 Aperture macros list end*
%ADD10RoundRect,0.200000X-0.275000X0.200000X-0.275000X-0.200000X0.275000X-0.200000X0.275000X0.200000X0*%
%ADD11O,1.800000X0.280000*%
%ADD12O,0.280000X1.800000*%
%ADD13C,1.000000*%
%ADD14R,1.300000X1.300000*%
%ADD15C,1.300000*%
%ADD16C,1.500000*%
%ADD17R,1.200000X1.200000*%
%ADD18R,1.350000X1.410000*%
%ADD19R,0.806000X0.864000*%
%ADD20R,0.490000X0.985000*%
%ADD21R,0.540000X0.500000*%
%ADD22C,3.600000*%
%ADD23C,6.400000*%
%ADD24R,0.500000X0.540000*%
%ADD25R,0.540000X0.566000*%
%ADD26R,0.566000X0.540000*%
%ADD27RoundRect,0.225000X-0.225000X-0.250000X0.225000X-0.250000X0.225000X0.250000X-0.225000X0.250000X0*%
%ADD28R,0.800000X0.864000*%
%ADD29R,1.377000X1.133000*%
%ADD30R,0.864000X0.806000*%
%ADD31R,1.283000X2.808000*%
%ADD32R,3.456000X1.283000*%
%ADD33RoundRect,0.135000X0.185000X-0.135000X0.185000X0.135000X-0.185000X0.135000X-0.185000X-0.135000X0*%
%ADD34R,0.985000X0.490000*%
%ADD35RoundRect,0.375000X-0.625000X-0.375000X0.625000X-0.375000X0.625000X0.375000X-0.625000X0.375000X0*%
%ADD36RoundRect,0.500000X-0.500000X-1.400000X0.500000X-1.400000X0.500000X1.400000X-0.500000X1.400000X0*%
%ADD37RoundRect,0.140000X-0.140000X-0.170000X0.140000X-0.170000X0.140000X0.170000X-0.140000X0.170000X0*%
%ADD38R,0.900000X0.800000*%
%ADD39RoundRect,0.102000X1.858000X1.858000X-1.858000X1.858000X-1.858000X-1.858000X1.858000X-1.858000X0*%
%ADD40C,3.920000*%
%ADD41O,1.404000X2.604000*%
%ADD42FreePoly0,270.000000*%
%ADD43FreePoly1,270.000000*%
%ADD44FreePoly2,270.000000*%
%ADD45RoundRect,0.140000X-0.170000X0.140000X-0.170000X-0.140000X0.170000X-0.140000X0.170000X0.140000X0*%
%ADD46R,1.208000X1.701000*%
%ADD47C,1.270000*%
%ADD48RoundRect,0.250000X0.400000X0.450000X-0.400000X0.450000X-0.400000X-0.450000X0.400000X-0.450000X0*%
%ADD49R,0.660000X0.420000*%
%ADD50FreePoly3,90.000000*%
%ADD51FreePoly3,270.000000*%
%ADD52C,1.712000*%
%ADD53R,1.150000X0.950000*%
%ADD54R,1.133000X1.377000*%
%ADD55RoundRect,0.135000X-0.185000X0.135000X-0.185000X-0.135000X0.185000X-0.135000X0.185000X0.135000X0*%
%ADD56C,1.050000*%
%ADD57R,0.521000X0.250000*%
%ADD58R,0.900000X1.600000*%
%ADD59R,0.800000X0.900000*%
%ADD60RoundRect,0.200000X0.275000X-0.200000X0.275000X0.200000X-0.275000X0.200000X-0.275000X-0.200000X0*%
%ADD61R,1.500000X1.500000*%
%ADD62R,1.701000X1.208000*%
%ADD63RoundRect,0.225000X0.250000X-0.225000X0.250000X0.225000X-0.250000X0.225000X-0.250000X-0.225000X0*%
%ADD64C,0.600000*%
%ADD65R,1.160000X0.600000*%
%ADD66R,1.160000X0.300000*%
%ADD67O,2.000000X0.900000*%
%ADD68O,1.700000X0.900000*%
%ADD69RoundRect,0.225000X0.225000X0.250000X-0.225000X0.250000X-0.225000X-0.250000X0.225000X-0.250000X0*%
%ADD70RoundRect,0.225000X-0.250000X0.225000X-0.250000X-0.225000X0.250000X-0.225000X0.250000X0.225000X0*%
%ADD71R,2.500000X7.000000*%
%ADD72R,1.000000X1.250000*%
%ADD73R,0.850000X0.350000*%
%ADD74R,1.150000X1.400000*%
%ADD75R,1.800000X1.800000*%
%ADD76C,1.800000*%
%ADD77R,0.600000X1.070000*%
%ADD78RoundRect,0.250000X-0.450000X0.400000X-0.450000X-0.400000X0.450000X-0.400000X0.450000X0.400000X0*%
%ADD79R,0.350000X0.850000*%
%ADD80R,0.950000X1.150000*%
%ADD81RoundRect,0.140000X0.170000X-0.140000X0.170000X0.140000X-0.170000X0.140000X-0.170000X-0.140000X0*%
%ADD82C,1.524000*%
%ADD83RoundRect,0.075000X-0.700000X-0.075000X0.700000X-0.075000X0.700000X0.075000X-0.700000X0.075000X0*%
%ADD84RoundRect,0.075000X-0.075000X-0.700000X0.075000X-0.700000X0.075000X0.700000X-0.075000X0.700000X0*%
%ADD85R,1.250000X1.000000*%
%ADD86R,0.420000X0.660000*%
%ADD87FreePoly3,180.000000*%
%ADD88RoundRect,0.102000X1.858000X-1.858000X1.858000X1.858000X-1.858000X1.858000X-1.858000X-1.858000X0*%
%ADD89O,2.604000X1.404000*%
%ADD90RoundRect,0.200000X-0.200000X-0.275000X0.200000X-0.275000X0.200000X0.275000X-0.200000X0.275000X0*%
%ADD91RoundRect,0.140000X0.140000X0.170000X-0.140000X0.170000X-0.140000X-0.170000X0.140000X-0.170000X0*%
%ADD92RoundRect,0.135000X0.135000X0.185000X-0.135000X0.185000X-0.135000X-0.185000X0.135000X-0.185000X0*%
%ADD93RoundRect,0.062500X0.350000X0.062500X-0.350000X0.062500X-0.350000X-0.062500X0.350000X-0.062500X0*%
%ADD94R,1.650000X1.350000*%
%ADD95RoundRect,0.102000X-1.858000X1.858000X-1.858000X-1.858000X1.858000X-1.858000X1.858000X1.858000X0*%
%ADD96RoundRect,0.200000X0.200000X0.275000X-0.200000X0.275000X-0.200000X-0.275000X0.200000X-0.275000X0*%
%ADD97R,1.635000X2.700000*%
%ADD98R,2.808000X1.283000*%
%ADD99R,1.050000X2.000000*%
%ADD100RoundRect,0.102000X1.585000X-0.510000X1.585000X0.510000X-1.585000X0.510000X-1.585000X-0.510000X0*%
%ADD101R,0.532000X1.037000*%
G04 APERTURE END LIST*
D10*
%TO.C,RR2*%
X132500000Y-115400000D03*
X132500000Y-117050000D03*
%TD*%
D11*
%TO.C,U1*%
X124600000Y-120050000D03*
X124600000Y-120550000D03*
X124600000Y-121050000D03*
X124600000Y-121550000D03*
X124600000Y-122050000D03*
X124600000Y-122550000D03*
X124600000Y-123050000D03*
X124600000Y-123550000D03*
X124600000Y-124050000D03*
X124600000Y-124550000D03*
X124600000Y-125050000D03*
X124600000Y-125550000D03*
D12*
X126050000Y-127000000D03*
X126550000Y-127000000D03*
X127050000Y-127000000D03*
X127550000Y-127000000D03*
X128050000Y-127000000D03*
X128550000Y-127000000D03*
X129050000Y-127000000D03*
X129550000Y-127000000D03*
X130050000Y-127000000D03*
X130550000Y-127000000D03*
X131050000Y-127000000D03*
X131550000Y-127000000D03*
D11*
X133000000Y-125550000D03*
X133000000Y-125050000D03*
X133000000Y-124550000D03*
X133000000Y-124050000D03*
X133000000Y-123550000D03*
X133000000Y-123050000D03*
X133000000Y-122550000D03*
X133000000Y-122050000D03*
X133000000Y-121550000D03*
X133000000Y-121050000D03*
X133000000Y-120550000D03*
X133000000Y-120050000D03*
D12*
X131550000Y-118600000D03*
X131050000Y-118600000D03*
X130550000Y-118600000D03*
X130050000Y-118600000D03*
X129550000Y-118600000D03*
X129050000Y-118600000D03*
X128550000Y-118600000D03*
X128050000Y-118600000D03*
X127550000Y-118600000D03*
X127050000Y-118600000D03*
X126550000Y-118600000D03*
X126050000Y-118600000D03*
%TD*%
D13*
%TO.C,TP55*%
X145500000Y-116950000D03*
%TD*%
D14*
%TO.C,S1*%
X153582500Y-149895342D03*
D15*
X156082500Y-149895342D03*
X158582500Y-149895342D03*
X158582500Y-143895342D03*
X156082500Y-143895342D03*
X153582500Y-143895342D03*
%TD*%
D16*
%TO.C,TP9*%
X121500000Y-78050000D03*
%TD*%
%TO.C,TP23*%
X194736389Y-134826579D03*
%TD*%
%TO.C,TP67*%
X162700000Y-149850000D03*
%TD*%
D17*
%TO.C,D15*%
X160760000Y-112550000D03*
X157500000Y-112550000D03*
%TD*%
D18*
%TO.C,BC1*%
X123300000Y-109150000D03*
X123300000Y-107150000D03*
%TD*%
D19*
%TO.C,DR3*%
X148400000Y-116950000D03*
X149900000Y-116950000D03*
%TD*%
D20*
%TO.C,MCUTVS4*%
X197000000Y-134930000D03*
X197000000Y-137170000D03*
%TD*%
D16*
%TO.C,TP31*%
X89500000Y-121550000D03*
%TD*%
D21*
%TO.C,OSCC1*%
X156900000Y-128830000D03*
X156900000Y-129670000D03*
%TD*%
%TO.C,C70*%
X177582500Y-143815342D03*
X177582500Y-142975342D03*
%TD*%
D22*
%TO.C,H4*%
X182070000Y-68840000D03*
D23*
X182070000Y-68840000D03*
%TD*%
D13*
%TO.C,TP46*%
X142900000Y-120800000D03*
%TD*%
%TO.C,TP37*%
X104500000Y-141550000D03*
%TD*%
%TO.C,TP39*%
X98500000Y-141550000D03*
%TD*%
D24*
%TO.C,RC4*%
X136700000Y-121550000D03*
X135860000Y-121550000D03*
%TD*%
D25*
%TO.C,MCUR5*%
X163250000Y-122305000D03*
X163250000Y-121445000D03*
%TD*%
D26*
%TO.C,MCUR4*%
X167998750Y-140060342D03*
X168858750Y-140060342D03*
%TD*%
D27*
%TO.C,PCc2*%
X141950000Y-78550000D03*
X143500000Y-78550000D03*
%TD*%
D24*
%TO.C,TsC2*%
X135660000Y-129050000D03*
X136500000Y-129050000D03*
%TD*%
%TO.C,MCUC13*%
X163082500Y-125000000D03*
X163922500Y-125000000D03*
%TD*%
D28*
%TO.C,FB1*%
X157650000Y-121560342D03*
X156250000Y-121560342D03*
%TD*%
D29*
%TO.C,LEDR2*%
X173500000Y-105550000D03*
X173500000Y-103550000D03*
%TD*%
D16*
%TO.C,TP65*%
X177700000Y-149650000D03*
%TD*%
D30*
%TO.C,ChR2*%
X154300000Y-86550000D03*
X154300000Y-85050000D03*
%TD*%
D27*
%TO.C,PcC1*%
X138450000Y-78550000D03*
X140000000Y-78550000D03*
%TD*%
D10*
%TO.C,PdR2*%
X161700000Y-81150000D03*
X161700000Y-82800000D03*
%TD*%
D31*
%TO.C,Rshunt3*%
X101500000Y-105590000D03*
X98620000Y-105590000D03*
%TD*%
D32*
%TO.C,XRreg1*%
X89000000Y-153690000D03*
X89000000Y-147550000D03*
%TD*%
D33*
%TO.C,XRC5*%
X104500000Y-138560000D03*
X104500000Y-137540000D03*
%TD*%
D34*
%TO.C,MCUTVS2*%
X166702500Y-123560342D03*
X164462500Y-123560342D03*
%TD*%
D13*
%TO.C,TP15*%
X133400000Y-129550000D03*
%TD*%
D35*
%TO.C,U9*%
X182872379Y-118483513D03*
X182872379Y-120783513D03*
D36*
X189172379Y-120783513D03*
D35*
X182872379Y-123083513D03*
%TD*%
D37*
%TO.C,SC3*%
X128570000Y-129300000D03*
X129530000Y-129300000D03*
%TD*%
D38*
%TO.C,DC3*%
X157500000Y-108050000D03*
X157500000Y-109450000D03*
%TD*%
D39*
%TO.C,J6*%
X148000000Y-72550000D03*
D40*
X140800000Y-72550000D03*
D41*
X151150000Y-66550000D03*
X137650000Y-66550000D03*
%TD*%
D21*
%TO.C,MCUC18*%
X158582500Y-136980342D03*
X158582500Y-136140342D03*
%TD*%
D13*
%TO.C,TP8*%
X131500000Y-136050000D03*
%TD*%
D25*
%TO.C,MCUR3*%
X165750000Y-142805000D03*
X165750000Y-141945000D03*
%TD*%
D31*
%TO.C,Rshunt2*%
X95500000Y-105590000D03*
X92620000Y-105590000D03*
%TD*%
D42*
%TO.C,3TFuse1*%
X126900000Y-96750000D03*
D43*
X124850000Y-91910000D03*
D44*
X122800000Y-96750000D03*
%TD*%
D45*
%TO.C,C1-0*%
X123500000Y-131070000D03*
X123500000Y-132030000D03*
%TD*%
D34*
%TO.C,MCUTVS1*%
X170702500Y-123560342D03*
X168462500Y-123560342D03*
%TD*%
D16*
%TO.C,TP20*%
X149500000Y-78050000D03*
%TD*%
D24*
%TO.C,RC3*%
X138900000Y-121050000D03*
X138060000Y-121050000D03*
%TD*%
D46*
%TO.C,PackR1*%
X156000000Y-78050000D03*
X153040000Y-78050000D03*
%TD*%
D16*
%TO.C,TP50*%
X147500000Y-96550000D03*
%TD*%
D13*
%TO.C,TP54*%
X143000000Y-107550000D03*
%TD*%
D47*
%TO.C,better1*%
X114500000Y-82650000D03*
X114500000Y-87350000D03*
X114500000Y-92050000D03*
%TD*%
D38*
%TO.C,USBC2*%
X180522379Y-119483513D03*
X180522379Y-118083513D03*
%TD*%
D37*
%TO.C,SC2*%
X129790000Y-130550000D03*
X130750000Y-130550000D03*
%TD*%
D48*
%TO.C,D2*%
X151000000Y-109050000D03*
X148100000Y-109050000D03*
%TD*%
D13*
%TO.C,TP34*%
X118500000Y-123950000D03*
%TD*%
D49*
%TO.C,DFet2*%
X140500000Y-102020000D03*
X140500000Y-101370000D03*
X140500000Y-100730000D03*
X140500000Y-100080000D03*
D50*
X139020000Y-101050000D03*
%TD*%
D21*
%TO.C,MCUC20*%
X170082500Y-139975342D03*
X170082500Y-140815342D03*
%TD*%
D16*
%TO.C,TP29*%
X89500000Y-126550000D03*
%TD*%
D49*
%TO.C,DFet3*%
X159020000Y-100080000D03*
X159020000Y-100730000D03*
X159020000Y-101370000D03*
X159020000Y-102020000D03*
D51*
X160500000Y-101050000D03*
%TD*%
D16*
%TO.C,TP63*%
X146600000Y-129550000D03*
%TD*%
D17*
%TO.C,ChD1*%
X146500000Y-84680000D03*
X146500000Y-81420000D03*
%TD*%
D13*
%TO.C,TP16*%
X117100000Y-130750000D03*
%TD*%
D16*
%TO.C,TP68*%
X153200000Y-137350000D03*
%TD*%
D52*
%TO.C,S3*%
X103000000Y-116050000D03*
X103000000Y-113550000D03*
X103000000Y-111050000D03*
%TD*%
D17*
%TO.C,BD1*%
X118700000Y-106780000D03*
X118700000Y-103520000D03*
%TD*%
D53*
%TO.C,DD1*%
X145500000Y-106740000D03*
X145500000Y-103360000D03*
%TD*%
D54*
%TO.C,CR1*%
X113500000Y-115550000D03*
X115500000Y-115550000D03*
%TD*%
D55*
%TO.C,SRinN1*%
X128550000Y-136300000D03*
X128550000Y-137320000D03*
%TD*%
D16*
%TO.C,TP59*%
X172582500Y-144810342D03*
%TD*%
D13*
%TO.C,TP33*%
X119900000Y-129750000D03*
%TD*%
D25*
%TO.C,TsR1*%
X141000000Y-134660000D03*
X141000000Y-133800000D03*
%TD*%
D56*
%TO.C,TH1*%
X131000000Y-132840000D03*
X133540000Y-132840000D03*
%TD*%
D57*
%TO.C,BQ296115DSGR1*%
X94500000Y-147800000D03*
X94500000Y-147300000D03*
X94500000Y-146800000D03*
X94500000Y-146300000D03*
X92600000Y-146300000D03*
X92600000Y-146800000D03*
X92600000Y-147300000D03*
X92600000Y-147800000D03*
D58*
X93550000Y-147050000D03*
%TD*%
D59*
%TO.C,BC2*%
X123300000Y-111350000D03*
X124700000Y-111350000D03*
%TD*%
D25*
%TO.C,MCUR6*%
X160750000Y-123920342D03*
X160750000Y-123060342D03*
%TD*%
D13*
%TO.C,TP6*%
X126500000Y-136050000D03*
%TD*%
D53*
%TO.C,DD3*%
X157000000Y-105240000D03*
X157000000Y-101860000D03*
%TD*%
D24*
%TO.C,MCUC15*%
X164252500Y-139560342D03*
X163412500Y-139560342D03*
%TD*%
D49*
%TO.C,ChFet1*%
X139020000Y-88080000D03*
X139020000Y-88730000D03*
X139020000Y-89370000D03*
X139020000Y-90020000D03*
D51*
X140500000Y-89050000D03*
%TD*%
D60*
%TO.C,DR1*%
X143000000Y-105200000D03*
X143000000Y-103550000D03*
%TD*%
D61*
%TO.C,TP7*%
X120000000Y-137550000D03*
%TD*%
D27*
%TO.C,BC3*%
X124550000Y-114950000D03*
X126100000Y-114950000D03*
%TD*%
D13*
%TO.C,TP58*%
X149000000Y-111550000D03*
%TD*%
D62*
%TO.C,XRC3*%
X98500000Y-139510000D03*
X98500000Y-136550000D03*
%TD*%
D63*
%TO.C,DC1*%
X168500000Y-85100000D03*
X168500000Y-83550000D03*
%TD*%
D64*
%TO.C,J7*%
X184050000Y-133440000D03*
X184050000Y-127660000D03*
D65*
X182990000Y-133750000D03*
X182990000Y-132950000D03*
D66*
X182990000Y-131800000D03*
X182990000Y-130800000D03*
X182990000Y-130300000D03*
X182990000Y-129300000D03*
D65*
X182990000Y-128150000D03*
X182990000Y-127350000D03*
X182990000Y-127350000D03*
X182990000Y-128150000D03*
D66*
X182990000Y-128800000D03*
X182990000Y-129800000D03*
X182990000Y-131300000D03*
X182990000Y-132300000D03*
D65*
X182990000Y-132950000D03*
X182990000Y-133750000D03*
D67*
X183570000Y-134870000D03*
D68*
X187740000Y-134870000D03*
D67*
X183570000Y-126230000D03*
D68*
X187740000Y-126230000D03*
%TD*%
D13*
%TO.C,TP18*%
X122500000Y-122550000D03*
%TD*%
%TO.C,TP53*%
X163500000Y-108550000D03*
%TD*%
D22*
%TO.C,H2*%
X196070000Y-154440000D03*
D23*
X196070000Y-154440000D03*
%TD*%
D13*
%TO.C,TP44*%
X134500000Y-117050000D03*
%TD*%
D69*
%TO.C,XC2*%
X95750000Y-143550000D03*
X94200000Y-143550000D03*
%TD*%
D70*
%TO.C,PdC2*%
X166500000Y-83550000D03*
X166500000Y-85100000D03*
%TD*%
D71*
%TO.C,FRShunt1*%
X126250000Y-143550000D03*
X131850000Y-143550000D03*
%TD*%
D60*
%TO.C,R46*%
X166000000Y-106375000D03*
X166000000Y-104725000D03*
%TD*%
D13*
%TO.C,TP49*%
X159100000Y-85350000D03*
%TD*%
D21*
%TO.C,RC1*%
X140000000Y-117210000D03*
X140000000Y-118050000D03*
%TD*%
D72*
%TO.C,LED1*%
X102800000Y-77550000D03*
X105000000Y-77550000D03*
%TD*%
D31*
%TO.C,Rshunt4*%
X107380000Y-105550000D03*
X104500000Y-105550000D03*
%TD*%
D62*
%TO.C,XRC2*%
X95750000Y-139510000D03*
X95750000Y-136550000D03*
%TD*%
D21*
%TO.C,MCUC17*%
X159582500Y-136980342D03*
X159582500Y-136140342D03*
%TD*%
D16*
%TO.C,TP60*%
X194250000Y-124050000D03*
%TD*%
D27*
%TO.C,PdC1*%
X164950000Y-81150000D03*
X166500000Y-81150000D03*
%TD*%
D46*
%TO.C,DRgate2*%
X145300000Y-112350000D03*
X142340000Y-112350000D03*
%TD*%
D13*
%TO.C,TP14*%
X142000000Y-118550000D03*
%TD*%
D52*
%TO.C,S2*%
X108000000Y-116050000D03*
X108000000Y-113550000D03*
X108000000Y-111050000D03*
%TD*%
D16*
%TO.C,TP25*%
X157000000Y-119850000D03*
%TD*%
D73*
%TO.C,U6*%
X151482500Y-125700000D03*
X151482500Y-126350000D03*
X151482500Y-127000000D03*
X153682500Y-127000000D03*
X153682500Y-126350000D03*
X153682500Y-125700000D03*
%TD*%
D16*
%TO.C,TP72*%
X148500000Y-132050000D03*
%TD*%
D59*
%TO.C,C4*%
X128350000Y-134810000D03*
X129750000Y-134810000D03*
%TD*%
D13*
%TO.C,TP22*%
X154500000Y-83150000D03*
%TD*%
D54*
%TO.C,LEDR3*%
X157500000Y-73550000D03*
X155500000Y-73550000D03*
%TD*%
D19*
%TO.C,PcR3*%
X136000000Y-84550000D03*
X137500000Y-84550000D03*
%TD*%
D21*
%TO.C,TsC3*%
X122170000Y-120720000D03*
X122170000Y-119880000D03*
%TD*%
D16*
%TO.C,TP71*%
X150700000Y-136050000D03*
%TD*%
D30*
%TO.C,USBR2*%
X180500000Y-126300000D03*
X180500000Y-127800000D03*
%TD*%
D16*
%TO.C,TP26*%
X131500000Y-96550000D03*
%TD*%
D74*
%TO.C,X1*%
X154100000Y-129650000D03*
X154100000Y-131850000D03*
X155700000Y-131850000D03*
X155700000Y-129650000D03*
%TD*%
D75*
%TO.C,Cellin1*%
X75500000Y-129049250D03*
D76*
X75500000Y-126509250D03*
X75500000Y-123969250D03*
X75500000Y-121429250D03*
X75500000Y-118889250D03*
%TD*%
D77*
%TO.C,PcFet1*%
X139750000Y-83130000D03*
X141650000Y-83130000D03*
X140700000Y-80650000D03*
%TD*%
D21*
%TO.C,C72*%
X150000000Y-125580000D03*
X150000000Y-126420000D03*
%TD*%
D78*
%TO.C,D1*%
X148000000Y-103550000D03*
X148000000Y-106450000D03*
%TD*%
D79*
%TO.C,U4*%
X174355000Y-143160342D03*
X175005000Y-143160342D03*
X175655000Y-143160342D03*
X175655000Y-140960342D03*
X175005000Y-140960342D03*
X174355000Y-140960342D03*
%TD*%
D80*
%TO.C,ChD2*%
X152190000Y-87550000D03*
X148810000Y-87550000D03*
%TD*%
D60*
%TO.C,LDR1*%
X140500000Y-105200000D03*
X140500000Y-103550000D03*
%TD*%
D13*
%TO.C,TP57*%
X155500000Y-106550000D03*
%TD*%
%TO.C,TP51*%
X137500000Y-106550000D03*
%TD*%
D16*
%TO.C,TP42*%
X84500000Y-147550000D03*
%TD*%
D54*
%TO.C,CR2*%
X113500000Y-118800000D03*
X115500000Y-118800000D03*
%TD*%
D52*
%TO.C,S4*%
X97000000Y-116050000D03*
X97000000Y-113550000D03*
X97000000Y-111050000D03*
%TD*%
D38*
%TO.C,USBC1*%
X180522379Y-122583513D03*
X180522379Y-123983513D03*
%TD*%
D54*
%TO.C,LEDR5*%
X129000000Y-72050000D03*
X127000000Y-72050000D03*
%TD*%
D22*
%TO.C,H3*%
X101270000Y-67840000D03*
D23*
X101270000Y-67840000D03*
%TD*%
D81*
%TO.C,C2-0*%
X122250000Y-129800000D03*
X122250000Y-128840000D03*
%TD*%
D82*
%TO.C,J1*%
X197500000Y-140300000D03*
X197500000Y-142300000D03*
X197500000Y-144300000D03*
%TD*%
D46*
%TO.C,RR1*%
X135000000Y-113050000D03*
X132040000Y-113050000D03*
%TD*%
D13*
%TO.C,TP11*%
X126100000Y-112950000D03*
%TD*%
D37*
%TO.C,XC1*%
X91640000Y-145450000D03*
X92600000Y-145450000D03*
%TD*%
D60*
%TO.C,DFetGate4*%
X160500000Y-106700000D03*
X160500000Y-105050000D03*
%TD*%
D16*
%TO.C,TP24*%
X156900000Y-124950000D03*
%TD*%
%TO.C,TP28*%
X82900000Y-129150000D03*
%TD*%
D39*
%TO.C,J3*%
X121350000Y-72550000D03*
D40*
X114150000Y-72550000D03*
D41*
X124500000Y-66550000D03*
X111000000Y-66550000D03*
%TD*%
D54*
%TO.C,CR3*%
X113500000Y-124050000D03*
X115500000Y-124050000D03*
%TD*%
D24*
%TO.C,MCUC19*%
X159600000Y-131950000D03*
X158760000Y-131950000D03*
%TD*%
D70*
%TO.C,FC1*%
X129900000Y-84300000D03*
X129900000Y-85850000D03*
%TD*%
D83*
%TO.C,U2*%
X161325000Y-128800000D03*
X161325000Y-129300000D03*
X161325000Y-129800000D03*
X161325000Y-130300000D03*
X161325000Y-130800000D03*
X161325000Y-131300000D03*
X161325000Y-131800000D03*
X161325000Y-132300000D03*
X161325000Y-132800000D03*
X161325000Y-133300000D03*
X161325000Y-133800000D03*
X161325000Y-134300000D03*
X161325000Y-134800000D03*
X161325000Y-135300000D03*
X161325000Y-135800000D03*
X161325000Y-136300000D03*
D84*
X163250000Y-138225000D03*
X163750000Y-138225000D03*
X164250000Y-138225000D03*
X164750000Y-138225000D03*
X165250000Y-138225000D03*
X165750000Y-138225000D03*
X166250000Y-138225000D03*
X166750000Y-138225000D03*
X167250000Y-138225000D03*
X167750000Y-138225000D03*
X168250000Y-138225000D03*
X168750000Y-138225000D03*
X169250000Y-138225000D03*
X169750000Y-138225000D03*
X170250000Y-138225000D03*
X170750000Y-138225000D03*
D83*
X172675000Y-136300000D03*
X172675000Y-135800000D03*
X172675000Y-135300000D03*
X172675000Y-134800000D03*
X172675000Y-134300000D03*
X172675000Y-133800000D03*
X172675000Y-133300000D03*
X172675000Y-132800000D03*
X172675000Y-132300000D03*
X172675000Y-131800000D03*
X172675000Y-131300000D03*
X172675000Y-130800000D03*
X172675000Y-130300000D03*
X172675000Y-129800000D03*
X172675000Y-129300000D03*
X172675000Y-128800000D03*
D84*
X170750000Y-126875000D03*
X170250000Y-126875000D03*
X169750000Y-126875000D03*
X169250000Y-126875000D03*
X168750000Y-126875000D03*
X168250000Y-126875000D03*
X167750000Y-126875000D03*
X167250000Y-126875000D03*
X166750000Y-126875000D03*
X166250000Y-126875000D03*
X165750000Y-126875000D03*
X165250000Y-126875000D03*
X164750000Y-126875000D03*
X164250000Y-126875000D03*
X163750000Y-126875000D03*
X163250000Y-126875000D03*
%TD*%
D10*
%TO.C,PdR1*%
X159500000Y-88725000D03*
X159500000Y-90375000D03*
%TD*%
D85*
%TO.C,LED3*%
X157500000Y-68350000D03*
X157500000Y-70550000D03*
%TD*%
D37*
%TO.C,RC2*%
X139520000Y-119800000D03*
X140480000Y-119800000D03*
%TD*%
D16*
%TO.C,TP61*%
X170100000Y-143650000D03*
%TD*%
D26*
%TO.C,MCUR2*%
X167998750Y-141060342D03*
X168858750Y-141060342D03*
%TD*%
D56*
%TO.C,TH2*%
X135000000Y-130800000D03*
X137540000Y-130800000D03*
%TD*%
D81*
%TO.C,CC2-1*%
X124750000Y-129760000D03*
X124750000Y-128800000D03*
%TD*%
D86*
%TO.C,NMOS1*%
X169470000Y-107070000D03*
X168820000Y-107070000D03*
X168180000Y-107070000D03*
X167530000Y-107070000D03*
D87*
X168500000Y-108550000D03*
%TD*%
D13*
%TO.C,TP13*%
X130500000Y-110050000D03*
%TD*%
D88*
%TO.C,J4*%
X177500000Y-95900000D03*
D40*
X177500000Y-88700000D03*
D89*
X183500000Y-99050000D03*
X183500000Y-85550000D03*
%TD*%
D79*
%TO.C,U5*%
X191372379Y-121383513D03*
X192022379Y-121383513D03*
X192672379Y-121383513D03*
X192672379Y-119183513D03*
X192022379Y-119183513D03*
X191372379Y-119183513D03*
%TD*%
D28*
%TO.C,FB2*%
X157600000Y-123250000D03*
X156200000Y-123250000D03*
%TD*%
D81*
%TO.C,CC4-3*%
X120750000Y-118680000D03*
X120750000Y-117720000D03*
%TD*%
D53*
%TO.C,D17*%
X164000000Y-106550000D03*
X164000000Y-103170000D03*
%TD*%
D37*
%TO.C,XC5*%
X108540000Y-141550000D03*
X109500000Y-141550000D03*
%TD*%
D69*
%TO.C,ChC1*%
X145375000Y-76250000D03*
X143825000Y-76250000D03*
%TD*%
D55*
%TO.C,SRinP1*%
X129550000Y-136290000D03*
X129550000Y-137310000D03*
%TD*%
D54*
%TO.C,CR5*%
X113500000Y-129050000D03*
X115500000Y-129050000D03*
%TD*%
D19*
%TO.C,Xout1*%
X92500000Y-151550000D03*
X94000000Y-151550000D03*
%TD*%
D90*
%TO.C,R47*%
X161675000Y-110550000D03*
X163325000Y-110550000D03*
%TD*%
D91*
%TO.C,XC3*%
X96750000Y-145300000D03*
X95790000Y-145300000D03*
%TD*%
D52*
%TO.C,S6*%
X85000000Y-116050000D03*
X85000000Y-113550000D03*
X85000000Y-111050000D03*
%TD*%
D54*
%TO.C,CR4*%
X113500000Y-126550000D03*
X115500000Y-126550000D03*
%TD*%
D60*
%TO.C,PcR2*%
X144000000Y-82700000D03*
X144000000Y-81050000D03*
%TD*%
D31*
%TO.C,Rshunt1*%
X89500000Y-105590000D03*
X86620000Y-105590000D03*
%TD*%
D13*
%TO.C,TP43*%
X92500000Y-149550000D03*
%TD*%
%TO.C,TP48*%
X139870000Y-85050000D03*
%TD*%
D37*
%TO.C,CC3-2*%
X123620000Y-126950000D03*
X124580000Y-126950000D03*
%TD*%
D24*
%TO.C,MCUC14*%
X172830000Y-127875000D03*
X173670000Y-127875000D03*
%TD*%
D60*
%TO.C,DR4*%
X155000000Y-104050000D03*
X155000000Y-102400000D03*
%TD*%
D16*
%TO.C,TP32*%
X81000000Y-119050000D03*
%TD*%
D85*
%TO.C,LED5*%
X129700000Y-67550000D03*
X129700000Y-69750000D03*
%TD*%
D17*
%TO.C,BD2*%
X116930000Y-109350000D03*
X113670000Y-109350000D03*
%TD*%
D24*
%TO.C,C71*%
X191354879Y-122303855D03*
X192194879Y-122303855D03*
%TD*%
D56*
%TO.C,TH3*%
X129500000Y-104800000D03*
X126960000Y-104800000D03*
%TD*%
D62*
%TO.C,XRC4*%
X101500000Y-139550000D03*
X101500000Y-136590000D03*
%TD*%
D69*
%TO.C,XCshun1*%
X98000000Y-132050000D03*
X96450000Y-132050000D03*
%TD*%
D60*
%TO.C,DFetGate3*%
X159000000Y-106700000D03*
X159000000Y-105050000D03*
%TD*%
D17*
%TO.C,RD2*%
X127500000Y-110180000D03*
X127500000Y-106920000D03*
%TD*%
D16*
%TO.C,TP62*%
X173250000Y-124550000D03*
%TD*%
D13*
%TO.C,TP41*%
X95775000Y-141550000D03*
%TD*%
D16*
%TO.C,TP1*%
X114000000Y-102050000D03*
%TD*%
D92*
%TO.C,Xshun1*%
X104000000Y-132050000D03*
X102980000Y-132050000D03*
%TD*%
D13*
%TO.C,TP35*%
X118100000Y-118750000D03*
%TD*%
D49*
%TO.C,DFet4*%
X157500000Y-93550000D03*
X157500000Y-94200000D03*
X157500000Y-94840000D03*
X157500000Y-95490000D03*
D51*
X158980000Y-94520000D03*
%TD*%
D93*
%TO.C,U7*%
X153027500Y-105390000D03*
X153027500Y-104890000D03*
X153027500Y-104390000D03*
X150152500Y-104390000D03*
X150152500Y-104890000D03*
X150152500Y-105390000D03*
D94*
X151590000Y-104890000D03*
%TD*%
D16*
%TO.C,TP30*%
X95500000Y-123950000D03*
%TD*%
%TO.C,TP17*%
X136000000Y-137550000D03*
%TD*%
D81*
%TO.C,BMSC1*%
X132500000Y-128030000D03*
X132500000Y-127070000D03*
%TD*%
D20*
%TO.C,MCUTVS3*%
X194250000Y-140170000D03*
X194250000Y-137930000D03*
%TD*%
D16*
%TO.C,TP64*%
X193750000Y-148840000D03*
%TD*%
D90*
%TO.C,DR2*%
X146350000Y-115050000D03*
X148000000Y-115050000D03*
%TD*%
D95*
%TO.C,J2*%
X107000000Y-88700000D03*
D40*
X107000000Y-95900000D03*
D89*
X101000000Y-85550000D03*
X101000000Y-99050000D03*
%TD*%
D16*
%TO.C,TP66*%
X148750000Y-149750000D03*
%TD*%
%TO.C,TP21*%
X167500000Y-95550000D03*
%TD*%
D13*
%TO.C,TP36*%
X118100000Y-115550000D03*
%TD*%
D72*
%TO.C,LED2*%
X178700000Y-105550000D03*
X176500000Y-105550000D03*
%TD*%
D22*
%TO.C,H1*%
X75670000Y-154340000D03*
D23*
X75670000Y-154340000D03*
%TD*%
D13*
%TO.C,TP38*%
X101500000Y-141550000D03*
%TD*%
D17*
%TO.C,DD2*%
X141370000Y-115050000D03*
X144630000Y-115050000D03*
%TD*%
D16*
%TO.C,TP5*%
X192162403Y-138450618D03*
%TD*%
D52*
%TO.C,S5*%
X91000000Y-116050000D03*
X91000000Y-113550000D03*
X91000000Y-111050000D03*
%TD*%
D90*
%TO.C,BR1*%
X119450000Y-109350000D03*
X121100000Y-109350000D03*
%TD*%
D96*
%TO.C,ChR1*%
X152550000Y-85150000D03*
X150900000Y-85150000D03*
%TD*%
D16*
%TO.C,TP69*%
X149100000Y-143650000D03*
%TD*%
D13*
%TO.C,TP40*%
X93250000Y-141550000D03*
%TD*%
D21*
%TO.C,OSCC2*%
X156900000Y-132330000D03*
X156900000Y-133170000D03*
%TD*%
D13*
%TO.C,TP12*%
X133500000Y-134800000D03*
%TD*%
D30*
%TO.C,PdR3*%
X161700000Y-84750000D03*
X161700000Y-86250000D03*
%TD*%
D91*
%TO.C,SC1*%
X128250000Y-130550000D03*
X127290000Y-130550000D03*
%TD*%
D49*
%TO.C,FFet1*%
X126700000Y-89472535D03*
X126700000Y-88822535D03*
X126700000Y-88182535D03*
X126700000Y-87532535D03*
D50*
X125220000Y-88502535D03*
%TD*%
D21*
%TO.C,MCUC16*%
X159582500Y-128900342D03*
X159582500Y-128060342D03*
%TD*%
D30*
%TO.C,USBR1*%
X181000000Y-133300000D03*
X181000000Y-134800000D03*
%TD*%
D21*
%TO.C,MCUC21*%
X171750000Y-126715000D03*
X171750000Y-125875000D03*
%TD*%
D97*
%TO.C,XCreg1*%
X92960000Y-154050000D03*
X96000000Y-154050000D03*
%TD*%
D25*
%TO.C,MCUR1*%
X159582500Y-140010000D03*
X159582500Y-139150000D03*
%TD*%
D98*
%TO.C,DR5*%
X154000000Y-111930000D03*
X154000000Y-109050000D03*
%TD*%
D62*
%TO.C,XRC1*%
X93250000Y-139490000D03*
X93250000Y-136530000D03*
%TD*%
D99*
%TO.C,NRSTSW2*%
X184622500Y-150395342D03*
X180542500Y-150395342D03*
%TD*%
D21*
%TO.C,MCUC12*%
X158582500Y-128900342D03*
X158582500Y-128060342D03*
%TD*%
D77*
%TO.C,PdFet1*%
X157150000Y-83190000D03*
X159050000Y-83190000D03*
X158100000Y-80710000D03*
%TD*%
D13*
%TO.C,TP27*%
X129900000Y-82150000D03*
%TD*%
D24*
%TO.C,TsC1*%
X131580000Y-131300000D03*
X132420000Y-131300000D03*
%TD*%
D30*
%TO.C,USBR3*%
X175070000Y-128528059D03*
X175070000Y-130028059D03*
%TD*%
D21*
%TO.C,MCUC11*%
X171582500Y-139640342D03*
X171582500Y-140480342D03*
%TD*%
D46*
%TO.C,DRgate1*%
X143260000Y-109950000D03*
X140300000Y-109950000D03*
%TD*%
D91*
%TO.C,XC4*%
X99000000Y-144050000D03*
X98040000Y-144050000D03*
%TD*%
D30*
%TO.C,FUSER2*%
X129900000Y-78850000D03*
X129900000Y-80350000D03*
%TD*%
D99*
%TO.C,BOOTSW1*%
X191622500Y-150395342D03*
X187542500Y-150395342D03*
%TD*%
D29*
%TO.C,LEDR1*%
X105500000Y-79550000D03*
X105500000Y-81550000D03*
%TD*%
D27*
%TO.C,DC2*%
X171225000Y-82550000D03*
X172775000Y-82550000D03*
%TD*%
D16*
%TO.C,TP52*%
X159500000Y-78050000D03*
%TD*%
D60*
%TO.C,FR1*%
X128300000Y-85875000D03*
X128300000Y-84225000D03*
%TD*%
D16*
%TO.C,TP70*%
X156400000Y-139150000D03*
%TD*%
D46*
%TO.C,PcR1*%
X134040000Y-82050000D03*
X137000000Y-82050000D03*
%TD*%
D13*
%TO.C,TP10*%
X123100000Y-113150000D03*
%TD*%
D17*
%TO.C,RD1*%
X133250000Y-107930000D03*
X133250000Y-104670000D03*
%TD*%
D49*
%TO.C,Dfet1*%
X140480000Y-94520000D03*
X140480000Y-93870000D03*
X140480000Y-93230000D03*
X140480000Y-92580000D03*
D50*
X139000000Y-93550000D03*
%TD*%
D69*
%TO.C,ChC2*%
X142000000Y-76250000D03*
X140450000Y-76250000D03*
%TD*%
D99*
%TO.C,TsRST1*%
X135460000Y-134550000D03*
X139540000Y-134550000D03*
%TD*%
D100*
%TO.C,J5*%
X179680000Y-146205342D03*
X179680000Y-143665342D03*
X179680000Y-141125342D03*
X179680000Y-138585342D03*
%TD*%
D101*
%TO.C,Q6*%
X138450000Y-117350000D03*
X136550000Y-117350000D03*
X137500000Y-119550000D03*
%TD*%
M02*
