M48
; DRILL file KiCad 10.0.4 date 2026-09-03T19:26:20
; FORMAT={-:-/ absolute / metric / decimal}
; #@! TF.CreationDate,2026-09-03T19:26:20-04:00
; #@! TF.GenerationSoftware,Kicad,Pcbnew,10.0.4
; #@! TF.FileFunction,Plated,1,4,PTH
FMAT,2
METRIC
; #@! TA.AperFunction,Plated,PTH,ViaDrill
T1C0.300
; #@! TA.AperFunction,Plated,PTH,ComponentDrill
T2C0.600
; #@! TA.AperFunction,Plated,PTH,ComponentDrill
T3C0.700
; #@! TA.AperFunction,Plated,PTH,ComponentDrill
T4C0.800
; #@! TA.AperFunction,Plated,PTH,ComponentDrill
T5C0.850
; #@! TA.AperFunction,Plated,PTH,ComponentDrill
T6C0.900
; #@! TA.AperFunction,Plated,PTH,ComponentDrill
T7C1.000
; #@! TA.AperFunction,Plated,PTH,ComponentDrill
T8C1.200
; #@! TA.AperFunction,Plated,PTH,ComponentDrill
T9C2.700
; #@! TA.AperFunction,Plated,PTH,ComponentDrill
T10C3.200
%
G90
G05
T1
X84.2Y-156.2
X88.0Y-118.05
X89.5Y-129.05
X94.0Y-118.05
X94.0Y-134.05
X95.5Y-126.509
X96.5Y-151.05
X97.0Y-134.55
X100.0Y-118.05
X100.27Y-87.84
X101.0Y-134.05
X102.7Y-78.95
X103.5Y-124.05
X106.0Y-118.05
X106.5Y-132.05
X107.5Y-133.55
X108.0Y-121.429
X110.161Y-118.889
X111.0Y-106.55
X111.5Y-134.8
X111.5Y-140.3
X111.5Y-141.3
X111.5Y-142.3
X111.5Y-143.3
X112.0Y-134.05
X112.0Y-137.05
X112.25Y-136.3
X112.5Y-140.3
X112.5Y-141.3
X112.5Y-142.3
X112.5Y-143.3
X112.6Y-133.8
X113.0Y-133.05
X113.0Y-136.05
X113.0Y-137.05
X113.25Y-135.3
X113.5Y-140.3
X113.5Y-141.3
X113.5Y-142.3
X113.5Y-143.3
X113.75Y-132.55
X114.0Y-135.05
X114.0Y-136.05
X114.0Y-137.05
X114.25Y-134.3
X115.0Y-134.05
X115.0Y-135.05
X115.0Y-136.05
X115.0Y-137.05
X115.25Y-145.3
X115.25Y-146.3
X115.25Y-147.05
X115.4Y-133.2
X116.25Y-145.3
X116.25Y-146.3
X116.5Y-133.55
X116.5Y-134.55
X116.5Y-135.55
X116.5Y-136.55
X116.5Y-147.05
X117.25Y-145.3
X117.25Y-146.3
X118.25Y-145.3
X118.25Y-146.3
X122.5Y-87.75
X122.5Y-132.55
X122.75Y-128.0
X123.0Y-119.8
X123.25Y-121.3
X123.5Y-133.55
X124.5Y-132.55
X124.5Y-133.55
X124.7Y-108.55
X125.5Y-131.55
X125.5Y-132.55
X126.5Y-106.55
X126.5Y-131.55
X126.5Y-132.55
X126.7Y-82.15
X127.0Y-121.3
X127.25Y-124.3
X127.3Y-67.95
X127.5Y-123.3
X128.25Y-87.05
X128.25Y-88.3
X128.25Y-123.8
X128.25Y-124.8
X128.3Y-111.55
X128.3Y-113.95
X129.0Y-139.05
X129.1Y-115.35
X129.1Y-120.75
X129.25Y-124.8
X129.3Y-121.55
X129.629Y-119.829
X129.75Y-122.8
X130.0Y-87.05
X130.0Y-125.05
X130.5Y-131.55
X130.7Y-117.15
X131.0Y-123.3
X131.5Y-115.05
X131.5Y-122.55
X132.75Y-119.05
X133.4Y-128.0
X134.0Y-119.05
X134.373Y-124.197
X134.7Y-122.75
X134.9Y-121.95
X135.5Y-86.15
X136.0Y-144.3
X136.0Y-145.3
X136.0Y-146.3
X136.0Y-147.3
X136.0Y-148.3
X136.75Y-122.55
X137.0Y-144.3
X137.0Y-145.3
X137.0Y-146.3
X137.0Y-147.3
X137.0Y-148.3
X137.5Y-108.35
X138.0Y-144.3
X138.0Y-145.3
X138.0Y-146.3
X138.0Y-147.3
X138.0Y-148.3
X138.9Y-75.35
X138.9Y-107.55
X139.0Y-144.3
X139.0Y-145.3
X139.0Y-146.3
X139.0Y-147.3
X139.0Y-148.3
X139.02Y-90.484
X139.7Y-115.15
X139.792Y-91.829
X140.0Y-121.05
X140.0Y-144.3
X140.0Y-145.3
X140.0Y-146.3
X140.0Y-147.3
X140.0Y-148.3
X140.1Y-112.15
X140.3Y-99.28
X143.4Y-125.55
X144.75Y-127.55
X145.5Y-123.55
X146.75Y-154.5
X148.5Y-125.55
X148.5Y-132.05
X149.75Y-146.3
X150.1Y-140.95
X150.5Y-143.8
X150.5Y-149.55
X150.7Y-136.05
X151.7Y-137.95
X152.5Y-126.35
X152.5Y-135.55
X152.9Y-141.15
X153.2Y-88.25
X153.5Y-146.05
X154.5Y-147.05
X154.7Y-137.95
X155.25Y-113.6
X155.3Y-87.95
X155.5Y-134.95
X156.25Y-153.3
X156.4Y-139.15
X157.2Y-135.45
X157.3Y-130.55
X157.5Y-79.55
X157.5Y-145.8
X157.85Y-132.285
X157.9Y-96.55
X157.963Y-133.013
X158.9Y-134.75
X158.944Y-132.905
X159.027Y-133.75
X159.082Y-126.895
X159.3Y-68.15
X159.3Y-124.55
X159.8Y-138.0
X160.3Y-87.55
X160.332Y-127.31
X160.5Y-103.95
X160.5Y-144.15
X160.7Y-121.95
X161.917Y-122.273
X161.917Y-123.875
X162.25Y-120.05
X162.5Y-118.55
X162.715Y-135.085
X163.2Y-132.2
X163.3Y-140.95
X163.5Y-129.05
X163.75Y-128.3
X163.75Y-130.8
X163.75Y-154.0
X164.0Y-132.8
X164.25Y-136.8
X164.6Y-140.65
X164.805Y-141.945
X164.938Y-145.688
X165.0Y-129.8
X165.0Y-135.05
X165.25Y-128.375
X165.25Y-131.3
X166.0Y-133.55
X166.25Y-117.0
X166.25Y-144.375
X166.5Y-119.75
X166.75Y-134.8
X166.75Y-137.0
X167.082Y-122.395
X167.25Y-128.8
X167.999Y-142.05
X168.25Y-130.05
X168.25Y-148.8
X168.75Y-131.8
X168.75Y-134.05
X168.8Y-141.8
X169.5Y-129.05
X169.5Y-146.0
X169.75Y-132.8
X170.0Y-131.05
X170.0Y-134.8
X170.75Y-128.228
X171.0Y-125.05
X171.0Y-141.356
X171.082Y-122.395
X171.75Y-116.0
X172.5Y-147.5
X173.0Y-119.8
X174.0Y-154.75
X174.1Y-82.55
X174.582Y-136.395
X174.75Y-126.875
X175.0Y-151.8
X176.0Y-121.25
X176.5Y-146.05
X177.07Y-132.84
X177.082Y-146.895
X177.128Y-141.895
X177.75Y-115.5
X178.07Y-128.84
X179.07Y-132.34
X179.25Y-118.375
X179.25Y-123.875
X179.25Y-125.875
X179.832Y-134.56
X179.9Y-103.75
X180.5Y-145.05
X182.75Y-155.25
X183.72Y-139.34
X184.41Y-144.42
X184.5Y-114.75
X186.082Y-149.895
X187.25Y-130.55
X187.5Y-142.05
X187.7Y-138.96
X188.25Y-144.92
X191.5Y-145.05
X191.522Y-120.284
X191.855Y-123.304
X192.0Y-114.55
X192.0Y-134.75
X192.25Y-130.5
X192.254Y-155.288
X192.32Y-153.446
X193.07Y-151.946
X193.75Y-142.3
X193.75Y-144.3
X193.75Y-147.05
X194.32Y-150.946
X195.25Y-127.75
X195.829Y-150.549
X196.25Y-146.75
X196.5Y-120.25
X196.75Y-115.75
X197.405Y-150.811
X198.0Y-124.75
X198.25Y-148.05
X198.5Y-130.25
X198.5Y-135.05
X198.593Y-151.567
T3
X126.96Y-104.8
X129.5Y-104.8
X131.0Y-132.84
X133.54Y-132.84
X135.0Y-130.8
X137.54Y-130.8
T4
X153.582Y-143.895
X153.582Y-149.895
X156.082Y-143.895
X156.082Y-149.895
X158.582Y-143.895
X158.582Y-149.895
T5
X114.5Y-82.65
X114.5Y-87.35
X114.5Y-92.05
T6
X197.5Y-140.3
X197.5Y-142.3
X197.5Y-144.3
T7
X85.0Y-111.05
X85.0Y-113.55
X85.0Y-116.05
X91.0Y-111.05
X91.0Y-113.55
X91.0Y-116.05
X97.0Y-111.05
X97.0Y-113.55
X97.0Y-116.05
X103.0Y-111.05
X103.0Y-113.55
X103.0Y-116.05
X108.0Y-111.05
X108.0Y-113.55
X108.0Y-116.05
T8
X75.5Y-118.889
X75.5Y-121.429
X75.5Y-123.969
X75.5Y-126.509
X75.5Y-129.049
T9
X107.0Y-88.7
X107.0Y-95.9
X114.15Y-72.55
X121.35Y-72.55
X140.8Y-72.55
X148.0Y-72.55
X177.5Y-88.7
X177.5Y-95.9
T10
X75.67Y-154.34
X101.27Y-67.84
X182.07Y-68.84
X196.07Y-154.44
T2
X101.55Y-85.55G85X100.45Y-85.55
G05
X101.55Y-99.05G85X100.45Y-99.05
G05
X111.0Y-67.1G85X111.0Y-66.0
G05
X124.5Y-67.1G85X124.5Y-66.0
G05
X137.65Y-67.1G85X137.65Y-66.0
G05
X151.15Y-67.1G85X151.15Y-66.0
G05
X182.95Y-85.55G85X184.05Y-85.55
G05
X182.95Y-99.05G85X184.05Y-99.05
G05
X184.12Y-126.23G85X183.02Y-126.23
G05
X184.12Y-134.87G85X183.02Y-134.87
G05
X188.14Y-126.23G85X187.34Y-126.23
G05
X188.14Y-134.87G85X187.34Y-134.87
G05
M30
